<mxfile host="app.diagrams.net" modified="2022-12-29T02:59:18.915Z" agent="5.0 (Windows NT 10.0; Win64; x64) AppleWebKit/537.36 (KHTML, like Gecko) Chrome/108.0.0.0 Safari/537.36 Edg/108.0.1462.46" etag="pnOLfnjyuPDgktr4MDK5" version="20.7.4" type="github" pages="2">
  <diagram id="arCa56h_frZCBuso5xLl" name="Overall Topology">
    <mxGraphModel dx="2454" dy="806" grid="1" gridSize="10" guides="1" tooltips="1" connect="1" arrows="1" fold="1" page="1" pageScale="1" pageWidth="827" pageHeight="1169" math="0" shadow="0">
      <root>
        <mxCell id="0" />
        <mxCell id="1" parent="0" />
        <mxCell id="nL2MoL1y-vNYPmYflyOT-1" value="" style="rounded=1;whiteSpace=wrap;html=1;" parent="1" vertex="1">
          <mxGeometry x="40" y="260" width="140" height="180" as="geometry" />
        </mxCell>
        <mxCell id="nL2MoL1y-vNYPmYflyOT-2" value="" style="rounded=1;whiteSpace=wrap;html=1;" parent="1" vertex="1">
          <mxGeometry x="200" y="260" width="140" height="180" as="geometry" />
        </mxCell>
        <mxCell id="nL2MoL1y-vNYPmYflyOT-4" value="Azure Region 1" style="text;html=1;strokeColor=none;fillColor=none;align=center;verticalAlign=middle;whiteSpace=wrap;rounded=0;" parent="1" vertex="1">
          <mxGeometry x="68" y="230" width="100" height="30" as="geometry" />
        </mxCell>
        <mxCell id="nL2MoL1y-vNYPmYflyOT-5" value="Azure Region 2" style="text;html=1;strokeColor=none;fillColor=none;align=center;verticalAlign=middle;whiteSpace=wrap;rounded=0;" parent="1" vertex="1">
          <mxGeometry x="630" y="230" width="100" height="30" as="geometry" />
        </mxCell>
        <mxCell id="nL2MoL1y-vNYPmYflyOT-6" value="" style="rounded=1;whiteSpace=wrap;html=1;" parent="1" vertex="1">
          <mxGeometry x="600" y="260" width="140" height="180" as="geometry" />
        </mxCell>
        <mxCell id="nL2MoL1y-vNYPmYflyOT-7" value="AWS Region 1" style="text;html=1;strokeColor=none;fillColor=none;align=center;verticalAlign=middle;whiteSpace=wrap;rounded=0;" parent="1" vertex="1">
          <mxGeometry x="870" y="227" width="100" height="30" as="geometry" />
        </mxCell>
        <mxCell id="nL2MoL1y-vNYPmYflyOT-8" value="" style="rounded=1;whiteSpace=wrap;html=1;" parent="1" vertex="1">
          <mxGeometry x="840" y="260" width="140" height="180" as="geometry" />
        </mxCell>
        <mxCell id="nL2MoL1y-vNYPmYflyOT-9" value="sharedservices" style="text;html=1;strokeColor=none;fillColor=none;align=center;verticalAlign=middle;whiteSpace=wrap;rounded=0;" parent="1" vertex="1">
          <mxGeometry x="40" y="260" width="100" height="30" as="geometry" />
        </mxCell>
        <mxCell id="nL2MoL1y-vNYPmYflyOT-10" value="stg" style="text;html=1;strokeColor=none;fillColor=none;align=center;verticalAlign=middle;whiteSpace=wrap;rounded=0;" parent="1" vertex="1">
          <mxGeometry x="170" y="260" width="100" height="30" as="geometry" />
        </mxCell>
        <mxCell id="nL2MoL1y-vNYPmYflyOT-11" value="" style="rounded=1;whiteSpace=wrap;html=1;" parent="1" vertex="1">
          <mxGeometry x="360" y="260" width="140" height="180" as="geometry" />
        </mxCell>
        <mxCell id="nL2MoL1y-vNYPmYflyOT-12" value="prd" style="text;html=1;strokeColor=none;fillColor=none;align=center;verticalAlign=middle;whiteSpace=wrap;rounded=0;" parent="1" vertex="1">
          <mxGeometry x="330" y="260" width="100" height="30" as="geometry" />
        </mxCell>
        <mxCell id="nL2MoL1y-vNYPmYflyOT-13" value="dev" style="text;html=1;strokeColor=none;fillColor=none;align=center;verticalAlign=middle;whiteSpace=wrap;rounded=0;" parent="1" vertex="1">
          <mxGeometry x="570" y="260" width="100" height="30" as="geometry" />
        </mxCell>
        <mxCell id="nL2MoL1y-vNYPmYflyOT-14" value="prd" style="text;html=1;strokeColor=none;fillColor=none;align=center;verticalAlign=middle;whiteSpace=wrap;rounded=0;" parent="1" vertex="1">
          <mxGeometry x="810" y="260" width="100" height="30" as="geometry" />
        </mxCell>
        <mxCell id="nL2MoL1y-vNYPmYflyOT-15" value="" style="rounded=1;whiteSpace=wrap;html=1;rotation=90;" parent="1" vertex="1">
          <mxGeometry x="-216.25" y="368.75" width="352.5" height="130" as="geometry" />
        </mxCell>
        <mxCell id="nL2MoL1y-vNYPmYflyOT-16" value="" style="rounded=1;whiteSpace=wrap;html=1;rotation=-180;" parent="1" vertex="1">
          <mxGeometry x="40" y="480" width="460" height="130" as="geometry" />
        </mxCell>
        <mxCell id="nL2MoL1y-vNYPmYflyOT-17" value="" style="rounded=1;whiteSpace=wrap;html=1;rotation=-180;" parent="1" vertex="1">
          <mxGeometry x="600" y="480" width="380" height="130" as="geometry" />
        </mxCell>
        <mxCell id="WmqXlaNKx9UAFNlGCMGP-1" value="" style="shape=image;verticalLabelPosition=bottom;labelBackgroundColor=default;verticalAlign=top;aspect=fixed;imageAspect=0;image=data:image/png,iVBORw0KGgoAAAANSUhEUgAAAFkAAABQCAMAAABF2ilVAAAAAXNSR0IArs4c6QAAAARnQU1BAACxjwv8YQUAAABjUExURQAAAO+ce+6Zd+2Ycu+Ube6QaO2LYuyGXOyDV+t8Tup2RulwPehpM+ZgKeZXHeROEOJDAeRPEeZaIedmMelyQOt+UO2JYO+VcPGhgPKtkPS4oPbEsPjQv/rcz/vn3/3z7/////xrXpIAAAAQdFJOUwAfPFdwh5yvv87b5u/2+/6/gkQkAAAACXBIWXMAABcRAAAXEQHKJvM/AAAD7UlEQVRYR7WZbZuqIBCGdbNS09Rqq+1N//+vPCADAj4OuHud+0sK+kTDMDNQEsFmuy+q+thIjvWhzLMv6vkDaZZXTQs45Bk98hvSrISqmnJHD67kq2BlFcV6u2SHCF3JYZ1Vsorei6Ha0Fth0oLeiaWMtMku0g42e3qXIz3Qw+uog8POfjFgxZYUFsh/Ldy2OWkg0pIeWuBEnwtUJDMnZOJLf6erBZakQ8K3fhhedL1ATVIuMcJBaTjqgI1/pK7g3VEDBkjvqQvTPUh4GD5nasPM1gzvx92TZCU9L+35dXqkdogjLLhQO6RxVyNr5POHFA1X6oE4pt5SI2QuPAw36oNY9khrakOcRm/z4UbdkKwgpybI5BU2PfVCTARJWb8g5Z6G/lYfA+fWZhLZIbffo9D7RP7RqSXzpF5MoYR5jxPLWgi9ulYr63sOsjTrGCMXGT6NMt2zqEokMj1ZymHGoJfSTYhVyq2cQxiKwPtLyvirZGACxuge/fDy4w5WPr/74QHED0IZeIYS+aY7Qnmbt0Iuo5d/6M5CeMeGLi3Oo4YfHE5jm5sJVZ4ZBhBXN8mOriw69bgvc35+3jfnh0vPHgFeuIcLkEwaWGm0GgXosRJ6c/eiV7iEOiUwmBoPCa5nzagXE+qUZ/BKP3qucRVO5PLBK/mkY57h4054kzgR1EyJBUyoKM94vuQqo+eHfp5QlRv7uL4eoTz8UO/EnXpcOGXjRzaoTITS7ghcZbOoJnqcSy/UPdG7q+iYzNJ2JzFT2XvRwzBJ38Y3fNersT+boS8KC/cwPw8WH1WCdmhmxG8uLXXGpZHBCpQFOz0aV/j8eD8djUkaRiSQrLQJ3WWraiX3l+v4AkpIUYK5ziGhMf+4k6IczYv8Kir18zE3aYKmUA66v3uzjbOV/D40zbIgBaFfFEa3WbTAyu3p+o2mWZZ2/68qQCkWsUpZbd+gOWy60TKTsrpnUXVuqGK8C1cRwcYoX8U9KjEspGdI+IMSqnJ1dqK8yu84dWnOzyEp9rTg6Ja197S9YktzGLP53QQV5gLW0qo28uFODbSVJfyujcRs5gnMwtkgs9X5FIk1MCJr3E09v72awuXIQgIjGu/4LqN2zFSOCZg8I5mdVAVO/7SzCWF2P2/5hSGwEdLOxyYwUYJafmEInIWqyB84kqmRML+vF1yFcGCHiYWFdGDUFz+B+SwJCwK25k3cVsvCQQ9hKTjhmE34Ak3w0H8TmMcF6piDc/7kDtLseUtoNoHjxhkrTvqzyHw+UgXOtD22AQc0VOv/C4qxSVPG28GBH3hTRc4bZpvDJd/URfYXWWK7y8vqqLKO/Buv2G+CqknyD19xmc0MIuNpAAAAAElFTkSuQmCC;" parent="1" vertex="1">
          <mxGeometry x="200" y="513.99" width="69" height="62.02" as="geometry" />
        </mxCell>
        <mxCell id="WmqXlaNKx9UAFNlGCMGP-2" value="" style="shape=image;verticalLabelPosition=bottom;labelBackgroundColor=default;verticalAlign=top;aspect=fixed;imageAspect=0;image=data:image/png,iVBORw0KGgoAAAANSUhEUgAAAFkAAABQCAMAAABF2ilVAAAAAXNSR0IArs4c6QAAAARnQU1BAACxjwv8YQUAAABjUExURQAAAO+ce+6Zd+2Ycu+Ube6QaO2LYuyGXOyDV+t8Tup2RulwPehpM+ZgKeZXHeROEOJDAeRPEeZaIedmMelyQOt+UO2JYO+VcPGhgPKtkPS4oPbEsPjQv/rcz/vn3/3z7/////xrXpIAAAAQdFJOUwAfPFdwh5yvv87b5u/2+/6/gkQkAAAACXBIWXMAABcRAAAXEQHKJvM/AAAD7UlEQVRYR7WZbZuqIBCGdbNS09Rqq+1N//+vPCADAj4OuHud+0sK+kTDMDNQEsFmuy+q+thIjvWhzLMv6vkDaZZXTQs45Bk98hvSrISqmnJHD67kq2BlFcV6u2SHCF3JYZ1Vsorei6Ha0Fth0oLeiaWMtMku0g42e3qXIz3Qw+uog8POfjFgxZYUFsh/Ldy2OWkg0pIeWuBEnwtUJDMnZOJLf6erBZakQ8K3fhhedL1ATVIuMcJBaTjqgI1/pK7g3VEDBkjvqQvTPUh4GD5nasPM1gzvx92TZCU9L+35dXqkdogjLLhQO6RxVyNr5POHFA1X6oE4pt5SI2QuPAw36oNY9khrakOcRm/z4UbdkKwgpybI5BU2PfVCTARJWb8g5Z6G/lYfA+fWZhLZIbffo9D7RP7RqSXzpF5MoYR5jxPLWgi9ulYr63sOsjTrGCMXGT6NMt2zqEokMj1ZymHGoJfSTYhVyq2cQxiKwPtLyvirZGACxuge/fDy4w5WPr/74QHED0IZeIYS+aY7Qnmbt0Iuo5d/6M5CeMeGLi3Oo4YfHE5jm5sJVZ4ZBhBXN8mOriw69bgvc35+3jfnh0vPHgFeuIcLkEwaWGm0GgXosRJ6c/eiV7iEOiUwmBoPCa5nzagXE+qUZ/BKP3qucRVO5PLBK/mkY57h4054kzgR1EyJBUyoKM94vuQqo+eHfp5QlRv7uL4eoTz8UO/EnXpcOGXjRzaoTITS7ghcZbOoJnqcSy/UPdG7q+iYzNJ2JzFT2XvRwzBJ38Y3fNersT+boS8KC/cwPw8WH1WCdmhmxG8uLXXGpZHBCpQFOz0aV/j8eD8djUkaRiSQrLQJ3WWraiX3l+v4AkpIUYK5ziGhMf+4k6IczYv8Kir18zE3aYKmUA66v3uzjbOV/D40zbIgBaFfFEa3WbTAyu3p+o2mWZZ2/68qQCkWsUpZbd+gOWy60TKTsrpnUXVuqGK8C1cRwcYoX8U9KjEspGdI+IMSqnJ1dqK8yu84dWnOzyEp9rTg6Ja197S9YktzGLP53QQV5gLW0qo28uFODbSVJfyujcRs5gnMwtkgs9X5FIk1MCJr3E09v72awuXIQgIjGu/4LqN2zFSOCZg8I5mdVAVO/7SzCWF2P2/5hSGwEdLOxyYwUYJafmEInIWqyB84kqmRML+vF1yFcGCHiYWFdGDUFz+B+SwJCwK25k3cVsvCQQ9hKTjhmE34Ak3w0H8TmMcF6piDc/7kDtLseUtoNoHjxhkrTvqzyHw+UgXOtD22AQc0VOv/C4qxSVPG28GBH3hTRc4bZpvDJd/URfYXWWK7y8vqqLKO/Buv2G+CqknyD19xmc0MIuNpAAAAAElFTkSuQmCC;" parent="1" vertex="1">
          <mxGeometry x="240" y="513.99" width="69" height="62.02" as="geometry" />
        </mxCell>
        <mxCell id="WmqXlaNKx9UAFNlGCMGP-3" value="" style="shape=image;verticalLabelPosition=bottom;labelBackgroundColor=default;verticalAlign=top;aspect=fixed;imageAspect=0;image=data:image/png,iVBORw0KGgoAAAANSUhEUgAAAFkAAABQCAMAAABF2ilVAAAAAXNSR0IArs4c6QAAAARnQU1BAACxjwv8YQUAAABjUExURQAAAO+ce+6Zd+2Ycu+Ube6QaO2LYuyGXOyDV+t8Tup2RulwPehpM+ZgKeZXHeROEOJDAeRPEeZaIedmMelyQOt+UO2JYO+VcPGhgPKtkPS4oPbEsPjQv/rcz/vn3/3z7/////xrXpIAAAAQdFJOUwAfPFdwh5yvv87b5u/2+/6/gkQkAAAACXBIWXMAABcRAAAXEQHKJvM/AAAD7UlEQVRYR7WZbZuqIBCGdbNS09Rqq+1N//+vPCADAj4OuHud+0sK+kTDMDNQEsFmuy+q+thIjvWhzLMv6vkDaZZXTQs45Bk98hvSrISqmnJHD67kq2BlFcV6u2SHCF3JYZ1Vsorei6Ha0Fth0oLeiaWMtMku0g42e3qXIz3Qw+uog8POfjFgxZYUFsh/Ldy2OWkg0pIeWuBEnwtUJDMnZOJLf6erBZakQ8K3fhhedL1ATVIuMcJBaTjqgI1/pK7g3VEDBkjvqQvTPUh4GD5nasPM1gzvx92TZCU9L+35dXqkdogjLLhQO6RxVyNr5POHFA1X6oE4pt5SI2QuPAw36oNY9khrakOcRm/z4UbdkKwgpybI5BU2PfVCTARJWb8g5Z6G/lYfA+fWZhLZIbffo9D7RP7RqSXzpF5MoYR5jxPLWgi9ulYr63sOsjTrGCMXGT6NMt2zqEokMj1ZymHGoJfSTYhVyq2cQxiKwPtLyvirZGACxuge/fDy4w5WPr/74QHED0IZeIYS+aY7Qnmbt0Iuo5d/6M5CeMeGLi3Oo4YfHE5jm5sJVZ4ZBhBXN8mOriw69bgvc35+3jfnh0vPHgFeuIcLkEwaWGm0GgXosRJ6c/eiV7iEOiUwmBoPCa5nzagXE+qUZ/BKP3qucRVO5PLBK/mkY57h4054kzgR1EyJBUyoKM94vuQqo+eHfp5QlRv7uL4eoTz8UO/EnXpcOGXjRzaoTITS7ghcZbOoJnqcSy/UPdG7q+iYzNJ2JzFT2XvRwzBJ38Y3fNersT+boS8KC/cwPw8WH1WCdmhmxG8uLXXGpZHBCpQFOz0aV/j8eD8djUkaRiSQrLQJ3WWraiX3l+v4AkpIUYK5ziGhMf+4k6IczYv8Kir18zE3aYKmUA66v3uzjbOV/D40zbIgBaFfFEa3WbTAyu3p+o2mWZZ2/68qQCkWsUpZbd+gOWy60TKTsrpnUXVuqGK8C1cRwcYoX8U9KjEspGdI+IMSqnJ1dqK8yu84dWnOzyEp9rTg6Ja197S9YktzGLP53QQV5gLW0qo28uFODbSVJfyujcRs5gnMwtkgs9X5FIk1MCJr3E09v72awuXIQgIjGu/4LqN2zFSOCZg8I5mdVAVO/7SzCWF2P2/5hSGwEdLOxyYwUYJafmEInIWqyB84kqmRML+vF1yFcGCHiYWFdGDUFz+B+SwJCwK25k3cVsvCQQ9hKTjhmE34Ak3w0H8TmMcF6piDc/7kDtLseUtoNoHjxhkrTvqzyHw+UgXOtD22AQc0VOv/C4qxSVPG28GBH3hTRc4bZpvDJd/URfYXWWK7y8vqqLKO/Buv2G+CqknyD19xmc0MIuNpAAAAAElFTkSuQmCC;" parent="1" vertex="1">
          <mxGeometry x="56" y="365" width="69" height="62.02" as="geometry" />
        </mxCell>
        <mxCell id="WmqXlaNKx9UAFNlGCMGP-32" style="edgeStyle=none;rounded=0;orthogonalLoop=1;jettySize=auto;html=1;exitX=0;exitY=1;exitDx=0;exitDy=0;entryX=0;entryY=0;entryDx=0;entryDy=0;shape=link;" parent="1" source="WmqXlaNKx9UAFNlGCMGP-4" target="WmqXlaNKx9UAFNlGCMGP-1" edge="1">
          <mxGeometry relative="1" as="geometry" />
        </mxCell>
        <mxCell id="WmqXlaNKx9UAFNlGCMGP-33" style="edgeStyle=none;shape=link;rounded=0;orthogonalLoop=1;jettySize=auto;html=1;" parent="1" source="WmqXlaNKx9UAFNlGCMGP-4" target="WmqXlaNKx9UAFNlGCMGP-1" edge="1">
          <mxGeometry relative="1" as="geometry" />
        </mxCell>
        <mxCell id="WmqXlaNKx9UAFNlGCMGP-4" value="" style="shape=image;verticalLabelPosition=bottom;labelBackgroundColor=default;verticalAlign=top;aspect=fixed;imageAspect=0;image=data:image/png,iVBORw0KGgoAAAANSUhEUgAAAFkAAABQCAMAAABF2ilVAAAAAXNSR0IArs4c6QAAAARnQU1BAACxjwv8YQUAAABjUExURQAAAO+ce+6Zd+2Ycu+Ube6QaO2LYuyGXOyDV+t8Tup2RulwPehpM+ZgKeZXHeROEOJDAeRPEeZaIedmMelyQOt+UO2JYO+VcPGhgPKtkPS4oPbEsPjQv/rcz/vn3/3z7/////xrXpIAAAAQdFJOUwAfPFdwh5yvv87b5u/2+/6/gkQkAAAACXBIWXMAABcRAAAXEQHKJvM/AAAD7UlEQVRYR7WZbZuqIBCGdbNS09Rqq+1N//+vPCADAj4OuHud+0sK+kTDMDNQEsFmuy+q+thIjvWhzLMv6vkDaZZXTQs45Bk98hvSrISqmnJHD67kq2BlFcV6u2SHCF3JYZ1Vsorei6Ha0Fth0oLeiaWMtMku0g42e3qXIz3Qw+uog8POfjFgxZYUFsh/Ldy2OWkg0pIeWuBEnwtUJDMnZOJLf6erBZakQ8K3fhhedL1ATVIuMcJBaTjqgI1/pK7g3VEDBkjvqQvTPUh4GD5nasPM1gzvx92TZCU9L+35dXqkdogjLLhQO6RxVyNr5POHFA1X6oE4pt5SI2QuPAw36oNY9khrakOcRm/z4UbdkKwgpybI5BU2PfVCTARJWb8g5Z6G/lYfA+fWZhLZIbffo9D7RP7RqSXzpF5MoYR5jxPLWgi9ulYr63sOsjTrGCMXGT6NMt2zqEokMj1ZymHGoJfSTYhVyq2cQxiKwPtLyvirZGACxuge/fDy4w5WPr/74QHED0IZeIYS+aY7Qnmbt0Iuo5d/6M5CeMeGLi3Oo4YfHE5jm5sJVZ4ZBhBXN8mOriw69bgvc35+3jfnh0vPHgFeuIcLkEwaWGm0GgXosRJ6c/eiV7iEOiUwmBoPCa5nzagXE+qUZ/BKP3qucRVO5PLBK/mkY57h4054kzgR1EyJBUyoKM94vuQqo+eHfp5QlRv7uL4eoTz8UO/EnXpcOGXjRzaoTITS7ghcZbOoJnqcSy/UPdG7q+iYzNJ2JzFT2XvRwzBJ38Y3fNersT+boS8KC/cwPw8WH1WCdmhmxG8uLXXGpZHBCpQFOz0aV/j8eD8djUkaRiSQrLQJ3WWraiX3l+v4AkpIUYK5ziGhMf+4k6IczYv8Kir18zE3aYKmUA66v3uzjbOV/D40zbIgBaFfFEa3WbTAyu3p+o2mWZZ2/68qQCkWsUpZbd+gOWy60TKTsrpnUXVuqGK8C1cRwcYoX8U9KjEspGdI+IMSqnJ1dqK8yu84dWnOzyEp9rTg6Ja197S9YktzGLP53QQV5gLW0qo28uFODbSVJfyujcRs5gnMwtkgs9X5FIk1MCJr3E09v72awuXIQgIjGu/4LqN2zFSOCZg8I5mdVAVO/7SzCWF2P2/5hSGwEdLOxyYwUYJafmEInIWqyB84kqmRML+vF1yFcGCHiYWFdGDUFz+B+SwJCwK25k3cVsvCQQ9hKTjhmE34Ak3w0H8TmMcF6piDc/7kDtLseUtoNoHjxhkrTvqzyHw+UgXOtD22AQc0VOv/C4qxSVPG28GBH3hTRc4bZpvDJd/URfYXWWK7y8vqqLKO/Buv2G+CqknyD19xmc0MIuNpAAAAAElFTkSuQmCC;" parent="1" vertex="1">
          <mxGeometry x="90" y="365" width="69" height="62.02" as="geometry" />
        </mxCell>
        <mxCell id="WmqXlaNKx9UAFNlGCMGP-34" style="edgeStyle=none;shape=link;rounded=0;orthogonalLoop=1;jettySize=auto;html=1;entryX=0.5;entryY=0;entryDx=0;entryDy=0;" parent="1" source="WmqXlaNKx9UAFNlGCMGP-5" target="WmqXlaNKx9UAFNlGCMGP-1" edge="1">
          <mxGeometry relative="1" as="geometry" />
        </mxCell>
        <mxCell id="WmqXlaNKx9UAFNlGCMGP-5" value="" style="shape=image;verticalLabelPosition=bottom;labelBackgroundColor=default;verticalAlign=top;aspect=fixed;imageAspect=0;image=data:image/png,iVBORw0KGgoAAAANSUhEUgAAAFkAAABQCAMAAABF2ilVAAAAAXNSR0IArs4c6QAAAARnQU1BAACxjwv8YQUAAABjUExURQAAAO+ce+6Zd+2Ycu+Ube6QaO2LYuyGXOyDV+t8Tup2RulwPehpM+ZgKeZXHeROEOJDAeRPEeZaIedmMelyQOt+UO2JYO+VcPGhgPKtkPS4oPbEsPjQv/rcz/vn3/3z7/////xrXpIAAAAQdFJOUwAfPFdwh5yvv87b5u/2+/6/gkQkAAAACXBIWXMAABcRAAAXEQHKJvM/AAAD7UlEQVRYR7WZbZuqIBCGdbNS09Rqq+1N//+vPCADAj4OuHud+0sK+kTDMDNQEsFmuy+q+thIjvWhzLMv6vkDaZZXTQs45Bk98hvSrISqmnJHD67kq2BlFcV6u2SHCF3JYZ1Vsorei6Ha0Fth0oLeiaWMtMku0g42e3qXIz3Qw+uog8POfjFgxZYUFsh/Ldy2OWkg0pIeWuBEnwtUJDMnZOJLf6erBZakQ8K3fhhedL1ATVIuMcJBaTjqgI1/pK7g3VEDBkjvqQvTPUh4GD5nasPM1gzvx92TZCU9L+35dXqkdogjLLhQO6RxVyNr5POHFA1X6oE4pt5SI2QuPAw36oNY9khrakOcRm/z4UbdkKwgpybI5BU2PfVCTARJWb8g5Z6G/lYfA+fWZhLZIbffo9D7RP7RqSXzpF5MoYR5jxPLWgi9ulYr63sOsjTrGCMXGT6NMt2zqEokMj1ZymHGoJfSTYhVyq2cQxiKwPtLyvirZGACxuge/fDy4w5WPr/74QHED0IZeIYS+aY7Qnmbt0Iuo5d/6M5CeMeGLi3Oo4YfHE5jm5sJVZ4ZBhBXN8mOriw69bgvc35+3jfnh0vPHgFeuIcLkEwaWGm0GgXosRJ6c/eiV7iEOiUwmBoPCa5nzagXE+qUZ/BKP3qucRVO5PLBK/mkY57h4054kzgR1EyJBUyoKM94vuQqo+eHfp5QlRv7uL4eoTz8UO/EnXpcOGXjRzaoTITS7ghcZbOoJnqcSy/UPdG7q+iYzNJ2JzFT2XvRwzBJ38Y3fNersT+boS8KC/cwPw8WH1WCdmhmxG8uLXXGpZHBCpQFOz0aV/j8eD8djUkaRiSQrLQJ3WWraiX3l+v4AkpIUYK5ziGhMf+4k6IczYv8Kir18zE3aYKmUA66v3uzjbOV/D40zbIgBaFfFEa3WbTAyu3p+o2mWZZ2/68qQCkWsUpZbd+gOWy60TKTsrpnUXVuqGK8C1cRwcYoX8U9KjEspGdI+IMSqnJ1dqK8yu84dWnOzyEp9rTg6Ja197S9YktzGLP53QQV5gLW0qo28uFODbSVJfyujcRs5gnMwtkgs9X5FIk1MCJr3E09v72awuXIQgIjGu/4LqN2zFSOCZg8I5mdVAVO/7SzCWF2P2/5hSGwEdLOxyYwUYJafmEInIWqyB84kqmRML+vF1yFcGCHiYWFdGDUFz+B+SwJCwK25k3cVsvCQQ9hKTjhmE34Ak3w0H8TmMcF6piDc/7kDtLseUtoNoHjxhkrTvqzyHw+UgXOtD22AQc0VOv/C4qxSVPG28GBH3hTRc4bZpvDJd/URfYXWWK7y8vqqLKO/Buv2G+CqknyD19xmc0MIuNpAAAAAElFTkSuQmCC;" parent="1" vertex="1">
          <mxGeometry x="220" y="365" width="69" height="62.02" as="geometry" />
        </mxCell>
        <mxCell id="WmqXlaNKx9UAFNlGCMGP-35" style="edgeStyle=none;shape=link;rounded=0;orthogonalLoop=1;jettySize=auto;html=1;entryX=0.5;entryY=0;entryDx=0;entryDy=0;" parent="1" source="WmqXlaNKx9UAFNlGCMGP-6" target="WmqXlaNKx9UAFNlGCMGP-2" edge="1">
          <mxGeometry relative="1" as="geometry" />
        </mxCell>
        <mxCell id="WmqXlaNKx9UAFNlGCMGP-6" value="" style="shape=image;verticalLabelPosition=bottom;labelBackgroundColor=default;verticalAlign=top;aspect=fixed;imageAspect=0;image=data:image/png,iVBORw0KGgoAAAANSUhEUgAAAFkAAABQCAMAAABF2ilVAAAAAXNSR0IArs4c6QAAAARnQU1BAACxjwv8YQUAAABjUExURQAAAO+ce+6Zd+2Ycu+Ube6QaO2LYuyGXOyDV+t8Tup2RulwPehpM+ZgKeZXHeROEOJDAeRPEeZaIedmMelyQOt+UO2JYO+VcPGhgPKtkPS4oPbEsPjQv/rcz/vn3/3z7/////xrXpIAAAAQdFJOUwAfPFdwh5yvv87b5u/2+/6/gkQkAAAACXBIWXMAABcRAAAXEQHKJvM/AAAD7UlEQVRYR7WZbZuqIBCGdbNS09Rqq+1N//+vPCADAj4OuHud+0sK+kTDMDNQEsFmuy+q+thIjvWhzLMv6vkDaZZXTQs45Bk98hvSrISqmnJHD67kq2BlFcV6u2SHCF3JYZ1Vsorei6Ha0Fth0oLeiaWMtMku0g42e3qXIz3Qw+uog8POfjFgxZYUFsh/Ldy2OWkg0pIeWuBEnwtUJDMnZOJLf6erBZakQ8K3fhhedL1ATVIuMcJBaTjqgI1/pK7g3VEDBkjvqQvTPUh4GD5nasPM1gzvx92TZCU9L+35dXqkdogjLLhQO6RxVyNr5POHFA1X6oE4pt5SI2QuPAw36oNY9khrakOcRm/z4UbdkKwgpybI5BU2PfVCTARJWb8g5Z6G/lYfA+fWZhLZIbffo9D7RP7RqSXzpF5MoYR5jxPLWgi9ulYr63sOsjTrGCMXGT6NMt2zqEokMj1ZymHGoJfSTYhVyq2cQxiKwPtLyvirZGACxuge/fDy4w5WPr/74QHED0IZeIYS+aY7Qnmbt0Iuo5d/6M5CeMeGLi3Oo4YfHE5jm5sJVZ4ZBhBXN8mOriw69bgvc35+3jfnh0vPHgFeuIcLkEwaWGm0GgXosRJ6c/eiV7iEOiUwmBoPCa5nzagXE+qUZ/BKP3qucRVO5PLBK/mkY57h4054kzgR1EyJBUyoKM94vuQqo+eHfp5QlRv7uL4eoTz8UO/EnXpcOGXjRzaoTITS7ghcZbOoJnqcSy/UPdG7q+iYzNJ2JzFT2XvRwzBJ38Y3fNersT+boS8KC/cwPw8WH1WCdmhmxG8uLXXGpZHBCpQFOz0aV/j8eD8djUkaRiSQrLQJ3WWraiX3l+v4AkpIUYK5ziGhMf+4k6IczYv8Kir18zE3aYKmUA66v3uzjbOV/D40zbIgBaFfFEa3WbTAyu3p+o2mWZZ2/68qQCkWsUpZbd+gOWy60TKTsrpnUXVuqGK8C1cRwcYoX8U9KjEspGdI+IMSqnJ1dqK8yu84dWnOzyEp9rTg6Ja197S9YktzGLP53QQV5gLW0qo28uFODbSVJfyujcRs5gnMwtkgs9X5FIk1MCJr3E09v72awuXIQgIjGu/4LqN2zFSOCZg8I5mdVAVO/7SzCWF2P2/5hSGwEdLOxyYwUYJafmEInIWqyB84kqmRML+vF1yFcGCHiYWFdGDUFz+B+SwJCwK25k3cVsvCQQ9hKTjhmE34Ak3w0H8TmMcF6piDc/7kDtLseUtoNoHjxhkrTvqzyHw+UgXOtD22AQc0VOv/C4qxSVPG28GBH3hTRc4bZpvDJd/URfYXWWK7y8vqqLKO/Buv2G+CqknyD19xmc0MIuNpAAAAAElFTkSuQmCC;" parent="1" vertex="1">
          <mxGeometry x="254.5" y="365" width="69" height="62.02" as="geometry" />
        </mxCell>
        <mxCell id="WmqXlaNKx9UAFNlGCMGP-36" style="edgeStyle=none;shape=link;rounded=0;orthogonalLoop=1;jettySize=auto;html=1;entryX=0.75;entryY=0;entryDx=0;entryDy=0;" parent="1" source="WmqXlaNKx9UAFNlGCMGP-7" target="WmqXlaNKx9UAFNlGCMGP-2" edge="1">
          <mxGeometry relative="1" as="geometry" />
        </mxCell>
        <mxCell id="WmqXlaNKx9UAFNlGCMGP-7" value="" style="shape=image;verticalLabelPosition=bottom;labelBackgroundColor=default;verticalAlign=top;aspect=fixed;imageAspect=0;image=data:image/png,iVBORw0KGgoAAAANSUhEUgAAAFkAAABQCAMAAABF2ilVAAAAAXNSR0IArs4c6QAAAARnQU1BAACxjwv8YQUAAABjUExURQAAAO+ce+6Zd+2Ycu+Ube6QaO2LYuyGXOyDV+t8Tup2RulwPehpM+ZgKeZXHeROEOJDAeRPEeZaIedmMelyQOt+UO2JYO+VcPGhgPKtkPS4oPbEsPjQv/rcz/vn3/3z7/////xrXpIAAAAQdFJOUwAfPFdwh5yvv87b5u/2+/6/gkQkAAAACXBIWXMAABcRAAAXEQHKJvM/AAAD7UlEQVRYR7WZbZuqIBCGdbNS09Rqq+1N//+vPCADAj4OuHud+0sK+kTDMDNQEsFmuy+q+thIjvWhzLMv6vkDaZZXTQs45Bk98hvSrISqmnJHD67kq2BlFcV6u2SHCF3JYZ1Vsorei6Ha0Fth0oLeiaWMtMku0g42e3qXIz3Qw+uog8POfjFgxZYUFsh/Ldy2OWkg0pIeWuBEnwtUJDMnZOJLf6erBZakQ8K3fhhedL1ATVIuMcJBaTjqgI1/pK7g3VEDBkjvqQvTPUh4GD5nasPM1gzvx92TZCU9L+35dXqkdogjLLhQO6RxVyNr5POHFA1X6oE4pt5SI2QuPAw36oNY9khrakOcRm/z4UbdkKwgpybI5BU2PfVCTARJWb8g5Z6G/lYfA+fWZhLZIbffo9D7RP7RqSXzpF5MoYR5jxPLWgi9ulYr63sOsjTrGCMXGT6NMt2zqEokMj1ZymHGoJfSTYhVyq2cQxiKwPtLyvirZGACxuge/fDy4w5WPr/74QHED0IZeIYS+aY7Qnmbt0Iuo5d/6M5CeMeGLi3Oo4YfHE5jm5sJVZ4ZBhBXN8mOriw69bgvc35+3jfnh0vPHgFeuIcLkEwaWGm0GgXosRJ6c/eiV7iEOiUwmBoPCa5nzagXE+qUZ/BKP3qucRVO5PLBK/mkY57h4054kzgR1EyJBUyoKM94vuQqo+eHfp5QlRv7uL4eoTz8UO/EnXpcOGXjRzaoTITS7ghcZbOoJnqcSy/UPdG7q+iYzNJ2JzFT2XvRwzBJ38Y3fNersT+boS8KC/cwPw8WH1WCdmhmxG8uLXXGpZHBCpQFOz0aV/j8eD8djUkaRiSQrLQJ3WWraiX3l+v4AkpIUYK5ziGhMf+4k6IczYv8Kir18zE3aYKmUA66v3uzjbOV/D40zbIgBaFfFEa3WbTAyu3p+o2mWZZ2/68qQCkWsUpZbd+gOWy60TKTsrpnUXVuqGK8C1cRwcYoX8U9KjEspGdI+IMSqnJ1dqK8yu84dWnOzyEp9rTg6Ja197S9YktzGLP53QQV5gLW0qo28uFODbSVJfyujcRs5gnMwtkgs9X5FIk1MCJr3E09v72awuXIQgIjGu/4LqN2zFSOCZg8I5mdVAVO/7SzCWF2P2/5hSGwEdLOxyYwUYJafmEInIWqyB84kqmRML+vF1yFcGCHiYWFdGDUFz+B+SwJCwK25k3cVsvCQQ9hKTjhmE34Ak3w0H8TmMcF6piDc/7kDtLseUtoNoHjxhkrTvqzyHw+UgXOtD22AQc0VOv/C4qxSVPG28GBH3hTRc4bZpvDJd/URfYXWWK7y8vqqLKO/Buv2G+CqknyD19xmc0MIuNpAAAAAElFTkSuQmCC;" parent="1" vertex="1">
          <mxGeometry x="379" y="365" width="69" height="62.02" as="geometry" />
        </mxCell>
        <mxCell id="WmqXlaNKx9UAFNlGCMGP-37" style="edgeStyle=none;shape=link;rounded=0;orthogonalLoop=1;jettySize=auto;html=1;" parent="1" source="WmqXlaNKx9UAFNlGCMGP-8" target="WmqXlaNKx9UAFNlGCMGP-2" edge="1">
          <mxGeometry relative="1" as="geometry" />
        </mxCell>
        <mxCell id="WmqXlaNKx9UAFNlGCMGP-8" value="" style="shape=image;verticalLabelPosition=bottom;labelBackgroundColor=default;verticalAlign=top;aspect=fixed;imageAspect=0;image=data:image/png,iVBORw0KGgoAAAANSUhEUgAAAFkAAABQCAMAAABF2ilVAAAAAXNSR0IArs4c6QAAAARnQU1BAACxjwv8YQUAAABjUExURQAAAO+ce+6Zd+2Ycu+Ube6QaO2LYuyGXOyDV+t8Tup2RulwPehpM+ZgKeZXHeROEOJDAeRPEeZaIedmMelyQOt+UO2JYO+VcPGhgPKtkPS4oPbEsPjQv/rcz/vn3/3z7/////xrXpIAAAAQdFJOUwAfPFdwh5yvv87b5u/2+/6/gkQkAAAACXBIWXMAABcRAAAXEQHKJvM/AAAD7UlEQVRYR7WZbZuqIBCGdbNS09Rqq+1N//+vPCADAj4OuHud+0sK+kTDMDNQEsFmuy+q+thIjvWhzLMv6vkDaZZXTQs45Bk98hvSrISqmnJHD67kq2BlFcV6u2SHCF3JYZ1Vsorei6Ha0Fth0oLeiaWMtMku0g42e3qXIz3Qw+uog8POfjFgxZYUFsh/Ldy2OWkg0pIeWuBEnwtUJDMnZOJLf6erBZakQ8K3fhhedL1ATVIuMcJBaTjqgI1/pK7g3VEDBkjvqQvTPUh4GD5nasPM1gzvx92TZCU9L+35dXqkdogjLLhQO6RxVyNr5POHFA1X6oE4pt5SI2QuPAw36oNY9khrakOcRm/z4UbdkKwgpybI5BU2PfVCTARJWb8g5Z6G/lYfA+fWZhLZIbffo9D7RP7RqSXzpF5MoYR5jxPLWgi9ulYr63sOsjTrGCMXGT6NMt2zqEokMj1ZymHGoJfSTYhVyq2cQxiKwPtLyvirZGACxuge/fDy4w5WPr/74QHED0IZeIYS+aY7Qnmbt0Iuo5d/6M5CeMeGLi3Oo4YfHE5jm5sJVZ4ZBhBXN8mOriw69bgvc35+3jfnh0vPHgFeuIcLkEwaWGm0GgXosRJ6c/eiV7iEOiUwmBoPCa5nzagXE+qUZ/BKP3qucRVO5PLBK/mkY57h4054kzgR1EyJBUyoKM94vuQqo+eHfp5QlRv7uL4eoTz8UO/EnXpcOGXjRzaoTITS7ghcZbOoJnqcSy/UPdG7q+iYzNJ2JzFT2XvRwzBJ38Y3fNersT+boS8KC/cwPw8WH1WCdmhmxG8uLXXGpZHBCpQFOz0aV/j8eD8djUkaRiSQrLQJ3WWraiX3l+v4AkpIUYK5ziGhMf+4k6IczYv8Kir18zE3aYKmUA66v3uzjbOV/D40zbIgBaFfFEa3WbTAyu3p+o2mWZZ2/68qQCkWsUpZbd+gOWy60TKTsrpnUXVuqGK8C1cRwcYoX8U9KjEspGdI+IMSqnJ1dqK8yu84dWnOzyEp9rTg6Ja197S9YktzGLP53QQV5gLW0qo28uFODbSVJfyujcRs5gnMwtkgs9X5FIk1MCJr3E09v72awuXIQgIjGu/4LqN2zFSOCZg8I5mdVAVO/7SzCWF2P2/5hSGwEdLOxyYwUYJafmEInIWqyB84kqmRML+vF1yFcGCHiYWFdGDUFz+B+SwJCwK25k3cVsvCQQ9hKTjhmE34Ak3w0H8TmMcF6piDc/7kDtLseUtoNoHjxhkrTvqzyHw+UgXOtD22AQc0VOv/C4qxSVPG28GBH3hTRc4bZpvDJd/URfYXWWK7y8vqqLKO/Buv2G+CqknyD19xmc0MIuNpAAAAAElFTkSuQmCC;" parent="1" vertex="1">
          <mxGeometry x="410" y="365" width="69" height="62.02" as="geometry" />
        </mxCell>
        <mxCell id="WmqXlaNKx9UAFNlGCMGP-38" style="edgeStyle=none;rounded=0;orthogonalLoop=1;jettySize=auto;html=1;entryX=0.5;entryY=0;entryDx=0;entryDy=0;shape=link;" parent="1" source="WmqXlaNKx9UAFNlGCMGP-9" target="WmqXlaNKx9UAFNlGCMGP-14" edge="1">
          <mxGeometry relative="1" as="geometry" />
        </mxCell>
        <mxCell id="WmqXlaNKx9UAFNlGCMGP-9" value="" style="shape=image;verticalLabelPosition=bottom;labelBackgroundColor=default;verticalAlign=top;aspect=fixed;imageAspect=0;image=data:image/png,iVBORw0KGgoAAAANSUhEUgAAAFkAAABQCAMAAABF2ilVAAAAAXNSR0IArs4c6QAAAARnQU1BAACxjwv8YQUAAABjUExURQAAAO+ce+6Zd+2Ycu+Ube6QaO2LYuyGXOyDV+t8Tup2RulwPehpM+ZgKeZXHeROEOJDAeRPEeZaIedmMelyQOt+UO2JYO+VcPGhgPKtkPS4oPbEsPjQv/rcz/vn3/3z7/////xrXpIAAAAQdFJOUwAfPFdwh5yvv87b5u/2+/6/gkQkAAAACXBIWXMAABcRAAAXEQHKJvM/AAAD7UlEQVRYR7WZbZuqIBCGdbNS09Rqq+1N//+vPCADAj4OuHud+0sK+kTDMDNQEsFmuy+q+thIjvWhzLMv6vkDaZZXTQs45Bk98hvSrISqmnJHD67kq2BlFcV6u2SHCF3JYZ1Vsorei6Ha0Fth0oLeiaWMtMku0g42e3qXIz3Qw+uog8POfjFgxZYUFsh/Ldy2OWkg0pIeWuBEnwtUJDMnZOJLf6erBZakQ8K3fhhedL1ATVIuMcJBaTjqgI1/pK7g3VEDBkjvqQvTPUh4GD5nasPM1gzvx92TZCU9L+35dXqkdogjLLhQO6RxVyNr5POHFA1X6oE4pt5SI2QuPAw36oNY9khrakOcRm/z4UbdkKwgpybI5BU2PfVCTARJWb8g5Z6G/lYfA+fWZhLZIbffo9D7RP7RqSXzpF5MoYR5jxPLWgi9ulYr63sOsjTrGCMXGT6NMt2zqEokMj1ZymHGoJfSTYhVyq2cQxiKwPtLyvirZGACxuge/fDy4w5WPr/74QHED0IZeIYS+aY7Qnmbt0Iuo5d/6M5CeMeGLi3Oo4YfHE5jm5sJVZ4ZBhBXN8mOriw69bgvc35+3jfnh0vPHgFeuIcLkEwaWGm0GgXosRJ6c/eiV7iEOiUwmBoPCa5nzagXE+qUZ/BKP3qucRVO5PLBK/mkY57h4054kzgR1EyJBUyoKM94vuQqo+eHfp5QlRv7uL4eoTz8UO/EnXpcOGXjRzaoTITS7ghcZbOoJnqcSy/UPdG7q+iYzNJ2JzFT2XvRwzBJ38Y3fNersT+boS8KC/cwPw8WH1WCdmhmxG8uLXXGpZHBCpQFOz0aV/j8eD8djUkaRiSQrLQJ3WWraiX3l+v4AkpIUYK5ziGhMf+4k6IczYv8Kir18zE3aYKmUA66v3uzjbOV/D40zbIgBaFfFEa3WbTAyu3p+o2mWZZ2/68qQCkWsUpZbd+gOWy60TKTsrpnUXVuqGK8C1cRwcYoX8U9KjEspGdI+IMSqnJ1dqK8yu84dWnOzyEp9rTg6Ja197S9YktzGLP53QQV5gLW0qo28uFODbSVJfyujcRs5gnMwtkgs9X5FIk1MCJr3E09v72awuXIQgIjGu/4LqN2zFSOCZg8I5mdVAVO/7SzCWF2P2/5hSGwEdLOxyYwUYJafmEInIWqyB84kqmRML+vF1yFcGCHiYWFdGDUFz+B+SwJCwK25k3cVsvCQQ9hKTjhmE34Ak3w0H8TmMcF6piDc/7kDtLseUtoNoHjxhkrTvqzyHw+UgXOtD22AQc0VOv/C4qxSVPG28GBH3hTRc4bZpvDJd/URfYXWWK7y8vqqLKO/Buv2G+CqknyD19xmc0MIuNpAAAAAElFTkSuQmCC;" parent="1" vertex="1">
          <mxGeometry x="635.5" y="360" width="69" height="62.02" as="geometry" />
        </mxCell>
        <mxCell id="WmqXlaNKx9UAFNlGCMGP-39" style="edgeStyle=none;rounded=0;orthogonalLoop=1;jettySize=auto;html=1;entryX=0.25;entryY=0;entryDx=0;entryDy=0;shape=link;" parent="1" source="WmqXlaNKx9UAFNlGCMGP-10" target="WmqXlaNKx9UAFNlGCMGP-15" edge="1">
          <mxGeometry relative="1" as="geometry" />
        </mxCell>
        <mxCell id="WmqXlaNKx9UAFNlGCMGP-10" value="" style="shape=image;verticalLabelPosition=bottom;labelBackgroundColor=default;verticalAlign=top;aspect=fixed;imageAspect=0;image=data:image/png,iVBORw0KGgoAAAANSUhEUgAAAFkAAABQCAMAAABF2ilVAAAAAXNSR0IArs4c6QAAAARnQU1BAACxjwv8YQUAAABjUExURQAAAO+ce+6Zd+2Ycu+Ube6QaO2LYuyGXOyDV+t8Tup2RulwPehpM+ZgKeZXHeROEOJDAeRPEeZaIedmMelyQOt+UO2JYO+VcPGhgPKtkPS4oPbEsPjQv/rcz/vn3/3z7/////xrXpIAAAAQdFJOUwAfPFdwh5yvv87b5u/2+/6/gkQkAAAACXBIWXMAABcRAAAXEQHKJvM/AAAD7UlEQVRYR7WZbZuqIBCGdbNS09Rqq+1N//+vPCADAj4OuHud+0sK+kTDMDNQEsFmuy+q+thIjvWhzLMv6vkDaZZXTQs45Bk98hvSrISqmnJHD67kq2BlFcV6u2SHCF3JYZ1Vsorei6Ha0Fth0oLeiaWMtMku0g42e3qXIz3Qw+uog8POfjFgxZYUFsh/Ldy2OWkg0pIeWuBEnwtUJDMnZOJLf6erBZakQ8K3fhhedL1ATVIuMcJBaTjqgI1/pK7g3VEDBkjvqQvTPUh4GD5nasPM1gzvx92TZCU9L+35dXqkdogjLLhQO6RxVyNr5POHFA1X6oE4pt5SI2QuPAw36oNY9khrakOcRm/z4UbdkKwgpybI5BU2PfVCTARJWb8g5Z6G/lYfA+fWZhLZIbffo9D7RP7RqSXzpF5MoYR5jxPLWgi9ulYr63sOsjTrGCMXGT6NMt2zqEokMj1ZymHGoJfSTYhVyq2cQxiKwPtLyvirZGACxuge/fDy4w5WPr/74QHED0IZeIYS+aY7Qnmbt0Iuo5d/6M5CeMeGLi3Oo4YfHE5jm5sJVZ4ZBhBXN8mOriw69bgvc35+3jfnh0vPHgFeuIcLkEwaWGm0GgXosRJ6c/eiV7iEOiUwmBoPCa5nzagXE+qUZ/BKP3qucRVO5PLBK/mkY57h4054kzgR1EyJBUyoKM94vuQqo+eHfp5QlRv7uL4eoTz8UO/EnXpcOGXjRzaoTITS7ghcZbOoJnqcSy/UPdG7q+iYzNJ2JzFT2XvRwzBJ38Y3fNersT+boS8KC/cwPw8WH1WCdmhmxG8uLXXGpZHBCpQFOz0aV/j8eD8djUkaRiSQrLQJ3WWraiX3l+v4AkpIUYK5ziGhMf+4k6IczYv8Kir18zE3aYKmUA66v3uzjbOV/D40zbIgBaFfFEa3WbTAyu3p+o2mWZZ2/68qQCkWsUpZbd+gOWy60TKTsrpnUXVuqGK8C1cRwcYoX8U9KjEspGdI+IMSqnJ1dqK8yu84dWnOzyEp9rTg6Ja197S9YktzGLP53QQV5gLW0qo28uFODbSVJfyujcRs5gnMwtkgs9X5FIk1MCJr3E09v72awuXIQgIjGu/4LqN2zFSOCZg8I5mdVAVO/7SzCWF2P2/5hSGwEdLOxyYwUYJafmEInIWqyB84kqmRML+vF1yFcGCHiYWFdGDUFz+B+SwJCwK25k3cVsvCQQ9hKTjhmE34Ak3w0H8TmMcF6piDc/7kDtLseUtoNoHjxhkrTvqzyHw+UgXOtD22AQc0VOv/C4qxSVPG28GBH3hTRc4bZpvDJd/URfYXWWK7y8vqqLKO/Buv2G+CqknyD19xmc0MIuNpAAAAAElFTkSuQmCC;" parent="1" vertex="1">
          <mxGeometry x="855.5" y="360" width="69" height="62.02" as="geometry" />
        </mxCell>
        <mxCell id="WmqXlaNKx9UAFNlGCMGP-40" style="edgeStyle=none;rounded=0;orthogonalLoop=1;jettySize=auto;html=1;entryX=0.5;entryY=0;entryDx=0;entryDy=0;shape=link;" parent="1" source="WmqXlaNKx9UAFNlGCMGP-11" target="WmqXlaNKx9UAFNlGCMGP-15" edge="1">
          <mxGeometry relative="1" as="geometry" />
        </mxCell>
        <mxCell id="WmqXlaNKx9UAFNlGCMGP-11" value="" style="shape=image;verticalLabelPosition=bottom;labelBackgroundColor=default;verticalAlign=top;aspect=fixed;imageAspect=0;image=data:image/png,iVBORw0KGgoAAAANSUhEUgAAAFkAAABQCAMAAABF2ilVAAAAAXNSR0IArs4c6QAAAARnQU1BAACxjwv8YQUAAABjUExURQAAAO+ce+6Zd+2Ycu+Ube6QaO2LYuyGXOyDV+t8Tup2RulwPehpM+ZgKeZXHeROEOJDAeRPEeZaIedmMelyQOt+UO2JYO+VcPGhgPKtkPS4oPbEsPjQv/rcz/vn3/3z7/////xrXpIAAAAQdFJOUwAfPFdwh5yvv87b5u/2+/6/gkQkAAAACXBIWXMAABcRAAAXEQHKJvM/AAAD7UlEQVRYR7WZbZuqIBCGdbNS09Rqq+1N//+vPCADAj4OuHud+0sK+kTDMDNQEsFmuy+q+thIjvWhzLMv6vkDaZZXTQs45Bk98hvSrISqmnJHD67kq2BlFcV6u2SHCF3JYZ1Vsorei6Ha0Fth0oLeiaWMtMku0g42e3qXIz3Qw+uog8POfjFgxZYUFsh/Ldy2OWkg0pIeWuBEnwtUJDMnZOJLf6erBZakQ8K3fhhedL1ATVIuMcJBaTjqgI1/pK7g3VEDBkjvqQvTPUh4GD5nasPM1gzvx92TZCU9L+35dXqkdogjLLhQO6RxVyNr5POHFA1X6oE4pt5SI2QuPAw36oNY9khrakOcRm/z4UbdkKwgpybI5BU2PfVCTARJWb8g5Z6G/lYfA+fWZhLZIbffo9D7RP7RqSXzpF5MoYR5jxPLWgi9ulYr63sOsjTrGCMXGT6NMt2zqEokMj1ZymHGoJfSTYhVyq2cQxiKwPtLyvirZGACxuge/fDy4w5WPr/74QHED0IZeIYS+aY7Qnmbt0Iuo5d/6M5CeMeGLi3Oo4YfHE5jm5sJVZ4ZBhBXN8mOriw69bgvc35+3jfnh0vPHgFeuIcLkEwaWGm0GgXosRJ6c/eiV7iEOiUwmBoPCa5nzagXE+qUZ/BKP3qucRVO5PLBK/mkY57h4054kzgR1EyJBUyoKM94vuQqo+eHfp5QlRv7uL4eoTz8UO/EnXpcOGXjRzaoTITS7ghcZbOoJnqcSy/UPdG7q+iYzNJ2JzFT2XvRwzBJ38Y3fNersT+boS8KC/cwPw8WH1WCdmhmxG8uLXXGpZHBCpQFOz0aV/j8eD8djUkaRiSQrLQJ3WWraiX3l+v4AkpIUYK5ziGhMf+4k6IczYv8Kir18zE3aYKmUA66v3uzjbOV/D40zbIgBaFfFEa3WbTAyu3p+o2mWZZ2/68qQCkWsUpZbd+gOWy60TKTsrpnUXVuqGK8C1cRwcYoX8U9KjEspGdI+IMSqnJ1dqK8yu84dWnOzyEp9rTg6Ja197S9YktzGLP53QQV5gLW0qo28uFODbSVJfyujcRs5gnMwtkgs9X5FIk1MCJr3E09v72awuXIQgIjGu/4LqN2zFSOCZg8I5mdVAVO/7SzCWF2P2/5hSGwEdLOxyYwUYJafmEInIWqyB84kqmRML+vF1yFcGCHiYWFdGDUFz+B+SwJCwK25k3cVsvCQQ9hKTjhmE34Ak3w0H8TmMcF6piDc/7kDtLseUtoNoHjxhkrTvqzyHw+UgXOtD22AQc0VOv/C4qxSVPG28GBH3hTRc4bZpvDJd/URfYXWWK7y8vqqLKO/Buv2G+CqknyD19xmc0MIuNpAAAAAElFTkSuQmCC;" parent="1" vertex="1">
          <mxGeometry x="890" y="360" width="69" height="62.02" as="geometry" />
        </mxCell>
        <mxCell id="WmqXlaNKx9UAFNlGCMGP-12" value="transit-region-1" style="text;html=1;strokeColor=none;fillColor=none;align=center;verticalAlign=middle;whiteSpace=wrap;rounded=0;" parent="1" vertex="1">
          <mxGeometry x="29.75" y="480" width="121.5" height="30" as="geometry" />
        </mxCell>
        <mxCell id="WmqXlaNKx9UAFNlGCMGP-13" value="transit-region-2" style="text;html=1;strokeColor=none;fillColor=none;align=center;verticalAlign=middle;whiteSpace=wrap;rounded=0;" parent="1" vertex="1">
          <mxGeometry x="589.25" y="480" width="121.5" height="30" as="geometry" />
        </mxCell>
        <mxCell id="WmqXlaNKx9UAFNlGCMGP-14" value="" style="shape=image;verticalLabelPosition=bottom;labelBackgroundColor=default;verticalAlign=top;aspect=fixed;imageAspect=0;image=data:image/png,iVBORw0KGgoAAAANSUhEUgAAAFkAAABQCAMAAABF2ilVAAAAAXNSR0IArs4c6QAAAARnQU1BAACxjwv8YQUAAABjUExURQAAAO+ce+6Zd+2Ycu+Ube6QaO2LYuyGXOyDV+t8Tup2RulwPehpM+ZgKeZXHeROEOJDAeRPEeZaIedmMelyQOt+UO2JYO+VcPGhgPKtkPS4oPbEsPjQv/rcz/vn3/3z7/////xrXpIAAAAQdFJOUwAfPFdwh5yvv87b5u/2+/6/gkQkAAAACXBIWXMAABcRAAAXEQHKJvM/AAAD7UlEQVRYR7WZbZuqIBCGdbNS09Rqq+1N//+vPCADAj4OuHud+0sK+kTDMDNQEsFmuy+q+thIjvWhzLMv6vkDaZZXTQs45Bk98hvSrISqmnJHD67kq2BlFcV6u2SHCF3JYZ1Vsorei6Ha0Fth0oLeiaWMtMku0g42e3qXIz3Qw+uog8POfjFgxZYUFsh/Ldy2OWkg0pIeWuBEnwtUJDMnZOJLf6erBZakQ8K3fhhedL1ATVIuMcJBaTjqgI1/pK7g3VEDBkjvqQvTPUh4GD5nasPM1gzvx92TZCU9L+35dXqkdogjLLhQO6RxVyNr5POHFA1X6oE4pt5SI2QuPAw36oNY9khrakOcRm/z4UbdkKwgpybI5BU2PfVCTARJWb8g5Z6G/lYfA+fWZhLZIbffo9D7RP7RqSXzpF5MoYR5jxPLWgi9ulYr63sOsjTrGCMXGT6NMt2zqEokMj1ZymHGoJfSTYhVyq2cQxiKwPtLyvirZGACxuge/fDy4w5WPr/74QHED0IZeIYS+aY7Qnmbt0Iuo5d/6M5CeMeGLi3Oo4YfHE5jm5sJVZ4ZBhBXN8mOriw69bgvc35+3jfnh0vPHgFeuIcLkEwaWGm0GgXosRJ6c/eiV7iEOiUwmBoPCa5nzagXE+qUZ/BKP3qucRVO5PLBK/mkY57h4054kzgR1EyJBUyoKM94vuQqo+eHfp5QlRv7uL4eoTz8UO/EnXpcOGXjRzaoTITS7ghcZbOoJnqcSy/UPdG7q+iYzNJ2JzFT2XvRwzBJ38Y3fNersT+boS8KC/cwPw8WH1WCdmhmxG8uLXXGpZHBCpQFOz0aV/j8eD8djUkaRiSQrLQJ3WWraiX3l+v4AkpIUYK5ziGhMf+4k6IczYv8Kir18zE3aYKmUA66v3uzjbOV/D40zbIgBaFfFEa3WbTAyu3p+o2mWZZ2/68qQCkWsUpZbd+gOWy60TKTsrpnUXVuqGK8C1cRwcYoX8U9KjEspGdI+IMSqnJ1dqK8yu84dWnOzyEp9rTg6Ja197S9YktzGLP53QQV5gLW0qo28uFODbSVJfyujcRs5gnMwtkgs9X5FIk1MCJr3E09v72awuXIQgIjGu/4LqN2zFSOCZg8I5mdVAVO/7SzCWF2P2/5hSGwEdLOxyYwUYJafmEInIWqyB84kqmRML+vF1yFcGCHiYWFdGDUFz+B+SwJCwK25k3cVsvCQQ9hKTjhmE34Ak3w0H8TmMcF6piDc/7kDtLseUtoNoHjxhkrTvqzyHw+UgXOtD22AQc0VOv/C4qxSVPG28GBH3hTRc4bZpvDJd/URfYXWWK7y8vqqLKO/Buv2G+CqknyD19xmc0MIuNpAAAAAElFTkSuQmCC;" parent="1" vertex="1">
          <mxGeometry x="710.75" y="513.99" width="69" height="62.02" as="geometry" />
        </mxCell>
        <mxCell id="WmqXlaNKx9UAFNlGCMGP-15" value="" style="shape=image;verticalLabelPosition=bottom;labelBackgroundColor=default;verticalAlign=top;aspect=fixed;imageAspect=0;image=data:image/png,iVBORw0KGgoAAAANSUhEUgAAAFkAAABQCAMAAABF2ilVAAAAAXNSR0IArs4c6QAAAARnQU1BAACxjwv8YQUAAABjUExURQAAAO+ce+6Zd+2Ycu+Ube6QaO2LYuyGXOyDV+t8Tup2RulwPehpM+ZgKeZXHeROEOJDAeRPEeZaIedmMelyQOt+UO2JYO+VcPGhgPKtkPS4oPbEsPjQv/rcz/vn3/3z7/////xrXpIAAAAQdFJOUwAfPFdwh5yvv87b5u/2+/6/gkQkAAAACXBIWXMAABcRAAAXEQHKJvM/AAAD7UlEQVRYR7WZbZuqIBCGdbNS09Rqq+1N//+vPCADAj4OuHud+0sK+kTDMDNQEsFmuy+q+thIjvWhzLMv6vkDaZZXTQs45Bk98hvSrISqmnJHD67kq2BlFcV6u2SHCF3JYZ1Vsorei6Ha0Fth0oLeiaWMtMku0g42e3qXIz3Qw+uog8POfjFgxZYUFsh/Ldy2OWkg0pIeWuBEnwtUJDMnZOJLf6erBZakQ8K3fhhedL1ATVIuMcJBaTjqgI1/pK7g3VEDBkjvqQvTPUh4GD5nasPM1gzvx92TZCU9L+35dXqkdogjLLhQO6RxVyNr5POHFA1X6oE4pt5SI2QuPAw36oNY9khrakOcRm/z4UbdkKwgpybI5BU2PfVCTARJWb8g5Z6G/lYfA+fWZhLZIbffo9D7RP7RqSXzpF5MoYR5jxPLWgi9ulYr63sOsjTrGCMXGT6NMt2zqEokMj1ZymHGoJfSTYhVyq2cQxiKwPtLyvirZGACxuge/fDy4w5WPr/74QHED0IZeIYS+aY7Qnmbt0Iuo5d/6M5CeMeGLi3Oo4YfHE5jm5sJVZ4ZBhBXN8mOriw69bgvc35+3jfnh0vPHgFeuIcLkEwaWGm0GgXosRJ6c/eiV7iEOiUwmBoPCa5nzagXE+qUZ/BKP3qucRVO5PLBK/mkY57h4054kzgR1EyJBUyoKM94vuQqo+eHfp5QlRv7uL4eoTz8UO/EnXpcOGXjRzaoTITS7ghcZbOoJnqcSy/UPdG7q+iYzNJ2JzFT2XvRwzBJ38Y3fNersT+boS8KC/cwPw8WH1WCdmhmxG8uLXXGpZHBCpQFOz0aV/j8eD8djUkaRiSQrLQJ3WWraiX3l+v4AkpIUYK5ziGhMf+4k6IczYv8Kir18zE3aYKmUA66v3uzjbOV/D40zbIgBaFfFEa3WbTAyu3p+o2mWZZ2/68qQCkWsUpZbd+gOWy60TKTsrpnUXVuqGK8C1cRwcYoX8U9KjEspGdI+IMSqnJ1dqK8yu84dWnOzyEp9rTg6Ja197S9YktzGLP53QQV5gLW0qo28uFODbSVJfyujcRs5gnMwtkgs9X5FIk1MCJr3E09v72awuXIQgIjGu/4LqN2zFSOCZg8I5mdVAVO/7SzCWF2P2/5hSGwEdLOxyYwUYJafmEInIWqyB84kqmRML+vF1yFcGCHiYWFdGDUFz+B+SwJCwK25k3cVsvCQQ9hKTjhmE34Ak3w0H8TmMcF6piDc/7kDtLseUtoNoHjxhkrTvqzyHw+UgXOtD22AQc0VOv/C4qxSVPG28GBH3hTRc4bZpvDJd/URfYXWWK7y8vqqLKO/Buv2G+CqknyD19xmc0MIuNpAAAAAElFTkSuQmCC;" parent="1" vertex="1">
          <mxGeometry x="758" y="513.99" width="69" height="62.02" as="geometry" />
        </mxCell>
        <mxCell id="WmqXlaNKx9UAFNlGCMGP-16" value="" style="verticalLabelPosition=bottom;sketch=0;html=1;fillColor=#282828;strokeColor=none;verticalAlign=top;pointerEvents=1;align=center;shape=mxgraph.cisco_safe.security_icons.ngfw;" parent="1" vertex="1">
          <mxGeometry x="377.5" y="502.5" width="52.5" height="46" as="geometry" />
        </mxCell>
        <mxCell id="WmqXlaNKx9UAFNlGCMGP-17" value="" style="verticalLabelPosition=bottom;sketch=0;html=1;fillColor=#282828;strokeColor=none;verticalAlign=top;pointerEvents=1;align=center;shape=mxgraph.cisco_safe.security_icons.ngfw;" parent="1" vertex="1">
          <mxGeometry x="379" y="548.5" width="52.5" height="46" as="geometry" />
        </mxCell>
        <mxCell id="WmqXlaNKx9UAFNlGCMGP-18" value="" style="verticalLabelPosition=bottom;sketch=0;html=1;fillColor=#282828;strokeColor=none;verticalAlign=top;pointerEvents=1;align=center;shape=mxgraph.cisco_safe.security_icons.ngfw;" parent="1" vertex="1">
          <mxGeometry x="898.25" y="502.5" width="52.5" height="46" as="geometry" />
        </mxCell>
        <mxCell id="WmqXlaNKx9UAFNlGCMGP-19" value="" style="verticalLabelPosition=bottom;sketch=0;html=1;fillColor=#282828;strokeColor=none;verticalAlign=top;pointerEvents=1;align=center;shape=mxgraph.cisco_safe.security_icons.ngfw;" parent="1" vertex="1">
          <mxGeometry x="898.25" y="548.5" width="52.5" height="46" as="geometry" />
        </mxCell>
        <mxCell id="WmqXlaNKx9UAFNlGCMGP-20" value="" style="shape=image;verticalLabelPosition=bottom;labelBackgroundColor=default;verticalAlign=top;aspect=fixed;imageAspect=0;image=data:image/png,iVBORw0KGgoAAAANSUhEUgAAAJ4AAAB7CAYAAACFDDlKAAAAAXNSR0IArs4c6QAAAARnQU1BAACxjwv8YQUAAAAJcEhZcwAAFxEAABcRAcom8z8AABQhSURBVHhe7Z0NeBXVmccHyJ25kRakunbrVruPtbZav0VUCvmYmQuhq9hVcSmsotD6hW4tj67d1Ypbd/3o01pbv6BWrbpqta5tWeuqK7ZVKyioaFHMx7039ys3hJCEJIRAPs6+/7lvsgEHktzMnLlJzu953gcIMHPmnHfe//l4zxlNoVAoFAqFQqFQKBQKhUKh8InsXONvE5Z+bq2p35y29dVxS38MlrD1h2ot4/aUHb4oZYZOFJo2gf+LQpEfiVlTp6Vt44qMra9N2UZb41xD7KiAhUUL/QrD71vJmujvkpbRm7GN9+ptfWWNrX+JL6NQDI3Vp2mhlK1/p87W43A0OBU5lEhYhqDotl8j5xTb5hiibV5YkMN2kMOuqiot/jxfVqHYP1UloVPqIsa6tnmG2EpO5OZgQzE4Kq6RjRj1USu0mC+vUHySWiu8uM42dkBC3ZxpuBYng/Nup4hJEfCuzcdpOt9KoaAoV6EZ5Bg/3T43LOojOYdxc6R8DRLcRs5M0v3alnL9y3xbxXgmRo5ADvEGZBEO4uY4XhkiKfX7muJWaBHfXjEeiduhb5K0NnklrYPZXtIbMe5+Rknv+GIjjVqp839XIzkBHMFraT2Q4V6O9FKEpej3549L9a9wsRRjmc2lxtHkdH9qZ2mV6XT7GiItjXobMajh4inGIvFy/bxsRK9vqQi7OoJs20t6bf1nL9Agh4uqGAs8s0CblLSM2xuokWFBRjk36x/1Row3K239WC62YjRTaRlH1UX0V3g1oeCcbqA50mvr25X0jnJi5fr8OlvPYtnLraELzQZKb8LU73vzTK2YH0UxGlipaRPTlvEfhSqtgxmkt50iNEXqddXloa/yYykKmfdLiz+fjugvYrqi0KV1MGuhyEej3qaokt7CJm7q8+psIzlapHUww0uDJTxIb8rS7994mnYQP6qiUEia+s0UHXqRljSao5ybJTHqpQhOL9X6mtLQ8fzIiiCpNIv/hvpzz7dSlEMq0lhzuoHWjGeMGC21dugifnxFEMRsY242otdCWgdL0vTEykMi/jVNxM4gO51sOv96libipRPc/4+Htpf0RvQHlPQGQMLWb6yTIa0URWvLJjkOBufKLDleNNyyUGy/d4VoWv090fijy0X2O+UiefahIjaD/g05put1PLS+td50xNhQUxI6gatE4Sfx0oP+mhzud7KkNXYmOVK5IRrvXCZ2ffC66O3aLdzobkiL1t88IDIXn+A4KZzVcVqXa3plkF4krqat0BKuHoUfxMrCpXURPQqn819adceBMstOE52b17F7DU7vrp2i6ec3OpEvPpvk10fn65Pe3J4Q/T4lvT6QtPTr6e3uRiqTjAEEnG7rDfNFz84d7FLDo33tryjqUVlLJrpe30sbMOrdGI+ETuYqU4yEjaXaoWnb+DUGECSx/jsdNSL6atmrZone3bvYjfKj7cVHWaqL3O/lsTVjwpmklxzxUq4+RT7EysMlJCHVcqSVDH1GksjkOZ8VXdk4u8/I2H7PtSJ6mv8DDthA6SWFWLXxbCW9wyYR0VdkI8ZubKKWIa2weFmRiM3URMebz7PbjJzerj0ie3VJbsDh82Cjz/qkNxvRN1RZB53CVao4EB9Z2iEpy3hamrT2my6i0zXR/PDN7DLe0VVf60RRGVMtA82R3ojRSnW4lKtX4UZteXhmvW1swdsqRVr7jCJEFIOJ67/OruI9Het+T9F0ghNVXcvgg+GlJccTzRXIRdRXb4pok7mqFX0kLeMqqqRdmJWXF+XIMJggeU1d8AXR3VTPbuIPzY+s5P6e/sly+GiO9Obm/DZWm6FTucrHN1F72tS0pT+GfRBypTVn8dJJIj67SOx674/sHn7SK+r/+evOUpus/t5Ag/RmbKM9aRrf4uofn3xsFZ1OzvYB3kaKeK6V5auZuX7djqd/zI7hP4iqiK5Y35XtfP3SO5ek1wo/uLlU+xQ3xfiBKuFKqoQODP1lR7k+g+w13PIP7BLy2LXpjyJeEiKb5Fouv61v1Jux9XfHjfTiLUvZ+i85uzYYp0O/7kxNpBcfK3pam9gd5IIo60guRV3XMkowvPRZ29iZsozLuHnGJjXlodPSFkkrvW2BSCubs4xlFovOjzewGwRDw8oLA+vvwfqll7o6FP0eGpPSSx3aZfXUscVb5lYJ0qw85Ezmtq5Zzc0fHIi26cVfyS2r2cFtMh+w1vseggM32ejmpRO1yWlbX+WE9aCkdYChX9d451Ju+uDp3LKBou9BUpIJBjO0EYJDwjSu4OYbnUTN0InZiP62I60ByUm/oV93Ri7NCalLhUTrmlW5JTUz5F52SdYnvdhYnrL0Rzba2lRuytFDzAovIadrwdyR20PKtvisCSIx92Cxp/Yjbu7CYtudy0RMUjLBYIb+N0vvphq7aDo3aWGD3e/Yitfk0+maeRn6dRTt2v/3CW7mwqN3VztF41OdcgY12BhoaDdILzlfO5Xn29y8hUlliX5sxjbW423BvgC3BwrC0K9DelKhsyf+IUXlqbnMZZfnkG37jHofjRai9CbN0EJ6O7YXirQ6hn7dDE3ULZ+1370SB6ZX9O7p5N/Lof2VJ3NRj6K06zMFYH3SS074/pZCGvXGTeNWLO7LPl1zMEMaUuKcw0RXXZSbdfjsrt4kujI1/Cc5yEweHaqhXRFUKLi0Vpn6Odz0wUFO90O8DQV3TklZkYg7SZ1ruDnzo6etRTT/4ibR09HGP/Gf3j27RXb5bCdaF0J/r8/QvjgEifruXdVlxlx2AflEy/QVOHeukPpzOdOdEWLzQ9/nphwZrWt+Lhp/spz/JIeuTNSJ1k7yaAE6H0W+5vicAM5vjtvFZ5LmdyOVya2AgRn6ddM1UX9dBYWrHm7GkYF+XnrxMaLtpcf5J3LY+ec1Tq4gorfrswZkcD5kiJPavY2DzNkl/EeUakW1pvEuNL+g5BVyj6TO848U3Y113Hze0PrbB5y8va50Nf9EDs0P3SSip6K/F1wywf4MahcrN65ht/CfhBVeIm3n1zDMSeosKRK73lnLzeYd2LST/MbhInPxyaK3s4N/KoHeHid6y9wsNFRzBpOmnqmq0Kawa/iHWKlNjJnGRoxi3QoTmHFSZ8tTP+QW857W39wnqo/WxLbbLuafyAHRG1Ec0TzIZAI3w2dTSf2WsXv4R9QsmoF+XeBrr/sYBhMNN1/ATeUPPTtbReqCI0XNCZrY4aODu4EoDqlHVHd7/qAs193SX2L38A/qa3wfHwZ2K0QgRhHASepcdIyUpM6WJ+8Q0ZNwKtQEZ+eYTBDNg04e3dcQhGKW0Zy2tEPYRfyBRjL/HXhO3QDrT+r86C1uHn/padkmUguOdPpcyXM/5+yZlUnDTecFmjy6r2FVA86XMMOz2UW8RyzQJtHNNmMeZ98CBGImJ3X+bhU3ixwa717uTO7i3tl/KqNOWBf/jf/0tG53onsuedSlTgIw7BCMWeGL2U28p2qGNoWkNomsE7cCyDYsK2277RJuEjnsSWwRyfOO6N+ogzI03X8d/60cOre85UT5QkgehcHx4uX6d9lNvCcxS5uG4TMyFtwKIM3oTXeSOi892UknkgWmUeouO33vpSykXFH0aX/1af5XckCUL4TkUZjjeGX6CnYT78FmEIp4tUFHPKQNJeZMFbtjf+FmkEPjjy5zXbx3kkwrDnaioUy23X5JQSQTYErF13R5oWkT6UabcO7wvjeXZv1Jnf/J1S+Htt8/tP8IwxG47rIZUieXkbiAqB9k8igWEXBYZtTvjBUa1T4bZM4d3vDtP72Gq14OuyvfoXtPpkh74D4VyoaoKJM98c1OSn9QyaOcINIVtfRj2EX8IWHpKwKZx+uLKld9TWpyZk97i0hfdNzQtiBilE39v7YXHub/LYc2iv5O1AsgeZRP3d+MGQ92EX/AR91SltEtOxUKM/aJOVPEnlQlV7ccGm5dPKx5Mycq2p8Su6ve4SvIAf09pyvgUiY/DYkCyMlk9/AXGmC8ijx8t4L4ZWj8pl/cyNUshx3P3j38lQJEZoqOmYu+6kRLWXQ1pERi3jR6QeVNsSD5lwJQV1zWx53xHVgkCcjKTkFlJuZNFd1bk1zN/tP5/mt0Xz3vtVH09xp+sIivJofGu66UFvWQDodTvmKm8QS7hRxilv4yUqNk5OOh/7L1X8/l6vWf7uatInXhUSI+kqPEKEoiWiJqymLXu6+K+CwsIfrf18OUGkW8tkS58UV2CTlUzzGOphu3ytjgg7e45Ul52SBbvzffm/XQkklO1Oz84HW+sr8gSSL5958T8RJ/R7jITEIGciyoU6Zipr4Ap7Jjkdg350PkoMiz87XnuHr9peXRW3lHvwcZIDQKRtRE9OxubuA7+Evd5TNyeXtu5fHA0L3a6WQe6/eyGwRDjWVcCeer9yvykeNhw0vH2y9x1fpHx9sv0r0m5t2vczUMNih6bv2X+XwXf8l+186dNupWlhEY2hYzGXA6eikf4eYPlppy49JsxNiFdCnPnQ+Oh22Kb73IVesPXTRwSZ57OGf57lOGkRqiNkXR5kd/wHfzj+y1pueOhzZFlwoBhv58Ozd7YRArKzqjzjY2Y17H09EuGg2L8K88xVXrA93duQbDiNBrp2PDZwYQTRFVfaOnR2QuPSm3JdKlDPkaTo/CKRGJ8tCF3NyFxQeztGk04HjcKaiH/T44RPODN3Htek/Tqht4sd3fzF44BKIqoqsfdG9NONNOXs3lQVqdU6Mixuu+L4l5ARX6Ghpud3j1zQrsLc0un8nV6y07//RsbtpExt5V9PfoJcKHlUVPN5fAO9rXPpVbOhvhC+RIKwUOtF/aMn7yzHGazk1b+FSWFUN6/+KJ9JZjk0uR2P3xRq5ib8DyW2LeZ0R8lrfSdGDTnejatPoGLoV3YACTczy3+w7d+APMTXEztJCbc3TxXql2cNIyHvNCehEpGv5tIVfxyEGiAdKYgjifxPlYH0XZdoq2XtH54XpnT/FIPlGaOws5TE6nr6+UtQzmJ0nTWD7iUS/y8Kixdr7xW67qkdH44yu4X+dyLwnmJI9StN2TquISjQAaHNVdeVYug8blXoMZ2gQrEWgfHKo5pr70XW0VnUVRL/cVnzwjDBoLX0FEDtpIwMbsoNKI+g39PSpDZumpzgaekbD97mtyKy159u2QX0mBoSVuGpdwc40t3pipfTpjG7+E9GLfxrCjHxqLol7q/C+Izjz7e63/dY8zuiyIjdH0PPhqZN0VM/M866VXbP/ZtbnuQh7rszlpNUQmYmyoLA+dxM00dqF+n/Olxrz257Lz4cjW1ufuFb1D3FrYvTUltt2+1JEjx+noOq7XD8DgOKkLv0gj7KEvC+6ueV/Ur4jkIt0wIzdeeLz4iHT4nOiYktbBiPZ9QI/eOGwKdqug/Ro5DRbC0WCZb00n6bw/d2pnby83Sw7sSej8cJ1ouv96kZx/WG6CuAB2ZX3C8DyIwpg2ujYi2l9+wnWur2dHo+jY8LJovGOpSEQm5z2CxQtPdd9GDjg+P6C8foY2JRPRH8bwPS/ppT4N5vjggImKKSKz7BSKAnNE/fXznI3W6W8eTSPISY7DxUvyaySphtR5ishwqOTZh5IEnyHqr5tLz1MhslfPFqkLjnCmfvC88bLhTxLjBXcmhG1jU2w8SOtgJEzjcnoDR/QlRzQEoobTcDCSY2d+bgTTC8EZElApouOlGvg8s/OL2P3SWhHG6e2j88MpfhEtcaT3fUd6C6j/NRaMpbUjYY/yT0X5BSacIb2oqPykV9lAw4qR80l46ktHzeIZXM2K/UGd7W9TPyT4Lz2OUsMLS84m8E3gtGU8hheaq1YxGDV28fQMdYKxhKOkd+gGp8PiPilGR61pXM3VqRgO62d8ZkrCUtI7VIO0YgMWRbvNcbvoTK5GRb7gI8tUmW1BHp1RyNYnrdiAk7KNX30wa+o0rjrFSKk2Q6eS9L6nRr17G5wOKemkCHtwvAhXl8JLNkW0yfh2Pi9qj3vpdaQVE8IRoyrq51GwihxJK7R0PEsvXrgMvXjoz5EK/LpqlvZXXDUKv8GST51tvDPepLdPWunZu5O2fh1Xh0ImkN50RH8Qa71IZBzr0psbtYapm6FXV5tGOVeDIiiSlrGUIkCr7BOsZJkjrRTVIa00an0uak7+LD+6ImiiZuhEGnBsGGvSC6fD4Yf0bL1JS7+JH1dRSDjSa+urx4r0/v+EsJ6glym4DxMrhgY53FKKEC2jddTbL60UvTOW8fyWmcWH86MpCp0aK3QC9fveGsnmoiCsT1oRsZN2eCU/jmI0gb0E1C96AGu9o0V6Ia1ZW0/WmPo8fgzFaCVhGpfUFbD04oXAecKIzhlb/5/q2eEjuOiK0Q6kl/pN6wtt1Aunw0cJYUnL+HcurmIsUVWhGSlbvw/5aoUivfgcE41as3Gz+BtcTMVYJWaFl9DAY0dQ0tsvrRi12uG1lZZxFBdNMdapKQ0dT/0p6dK7l7RGjDto2DqRi6QYL/yhVAunLf0eZ9RLjiBDevl0za21ln4+F0MxXqk1w/+IUS+cws1ZvDCcrulMCNv6H6pkfxtCUbhAerMRY53X0osoioEMUplwuiZF2SK+pUKRA9KLUS/WetEHc3Ok4RjWWrEPImsbzXErvIhvo1C4E7dCi7K2Xovoh2P23ZzqQIaIiX4jLGMbL0j7yJxi9POR9elDUlboFuqTxeFAmG+DE2LxHoffIJr1GRwNu7wgp7lETQwg9NeyEX0BX06hGB5VFdqUtBlemLT0xxOmUUmO1g7HwufQ4WhY0MfAIWnrjfTrm3V26LZ6tadV4SWCBgbkeEfVlhfNTFn63+FbbuSMkYRdND0bmXwY/zOFQqFQKBQKhUKhUCgUCoXCOzTt/wB1w1+fRKy5RAAAAABJRU5ErkJggg==;" parent="1" vertex="1">
          <mxGeometry x="-80" y="360" width="78" height="60.72" as="geometry" />
        </mxCell>
        <mxCell id="WmqXlaNKx9UAFNlGCMGP-21" value="management" style="text;html=1;strokeColor=none;fillColor=none;align=center;verticalAlign=middle;whiteSpace=wrap;rounded=0;" parent="1" vertex="1">
          <mxGeometry x="-110" y="260" width="100" height="30" as="geometry" />
        </mxCell>
        <mxCell id="WmqXlaNKx9UAFNlGCMGP-22" value="" style="shape=image;verticalLabelPosition=bottom;labelBackgroundColor=default;verticalAlign=top;aspect=fixed;imageAspect=0;image=data:image/png,iVBORw0KGgoAAAANSUhEUgAAAIkAAABvCAYAAADYOeNWAAAAAXNSR0IArs4c6QAAAARnQU1BAACxjwv8YQUAAAAJcEhZcwAAFxEAABcRAcom8z8AABZxSURBVHhe7V0HeFTVts6916vPXnhISUimnDNAnqAovWSSTKaEIja4IteCz4ZXVLwfKlfvhXtFhYcdRaQ8FfFDVLiKNJH6JISahJJC2rTUSSEkpJC23lp7dqTkkDI5M5lMzv99/zca5pw5Z+911r/W3mvvE6RAgQIFChQoUKDAP7BuZMjV8fowVZZFN8xq0loyLeL4DJN29L4oQftteM/r+NcUdDcsHdzr1sRI9fQUg7A6wyikZprESrtFB3nj+zM68L/xbzVZZiE91aBdf8Kgnvnp7b1U/HAFgYyVQ3r0PWnQLLCaRVvRhAFwetJAcOFnLhqGMxaNI1bH6ETS3wrZdwZAycQBZDSulBjtsj0RYQP56RQEGg5FaWbYLaK9/O6BrPPJc9jaSPpuARrNGTzWadGdTjFq5+Ip/+A+s4Iuj3nhQdelGzXLi9EbFCGljKA9JGMhQ0szCpt3juodxn9GQVfFzjHBt2eZhP1nUFZITqQ63ROSZynDc5Js/TI2dCL/OQVdDQkG1aM2s1hEnSnV0XKQvFNOrK4hMUo9H3/y9+5fVuD3WD2417XpZmGJa4I78LRKdK5cpHNTgFuGwW2mSdi0cUyfUH4ZCvwVP48OuyPTKMSV3z1AVnlpjRfIj33bqJB7+OUo8DccjlI9YrOIxZTWtidzkZMUGGP205CEaTZekpL9+AtoVDTTR/LSGpvkh8ZWss3i9nXDQ9X8MhV0FlYP7XVbllmIY+MXPpSX1kiejDKqbJPoPBCpmswvV4GvcThKMw2f1gJ6ajtLXlojyY/DomtMNmoXhgcFXckvXYG3YQkKuirFqP0gH906Da1LdY6/8Hz2w7zK7t0jQwR+Gwq8hU0jwgamxQh7yZXnoLx0ZvzRHjZlPw6LmHsoMvR+fjsK5EacXjMNU8wCamx/lZfWSJOJNMOcYtQsDgkKuprfmoKOYpYQdFWSQf0+TeH7u7y0xgvlBzOyvbv1YQP4bSrwFDvGhoZnmsQ9NKHWleSlNTZlP/hZmByjmspvV0F7sXNMv6lWs67Qn7OXjpAMnuSHPOSJGM27ivy0A/P0QVckGbSLcsa7G1GqgQOFZCjkIWnuJ90o/F+cPuQ23gwKLoefRgSL2WZxFw2OkXYHiry0Rpb9uAuaik8a1NN5cyi4FLvGhd5vtYh5nTn30pmkB4KmFQon9IfEaM1H8+4KuoY3jQIaiUw1ahc6YnWNXT176SjPy89AyDAJv/48SpGfoO+ZvAi7KNLPDaDspaMkT0oeNSdWV3IkWvMYb67uh0NRmvusZjG3Kw+OeZNN8kOz28ejNZ/M6d/jet503QJXnozRLqJZ2+4uL20hyQ8NA2SZhAPfDe07hLdh4GK3PkyVbtL+wuSlM7MXswg2kwBWoxasMRqwGlRgjQ4Da1Qokj6R9LcYNfsOfZcdI3UuH7BJfhwW3en4KM0M3pyBh2NRqrttFtHBRxolG0N2UseSIVCH60Mge1yf32g1hIJtvAj2ewaD44Fh4Hx4LOQ8HunmDD04po4Ax713gJ2WYRjVkK3ve/74iL5uQ0IDYwYk9dsy0y0/VFjVH1KNmuWf337jTbxpAwJ/TDBoFjgpe5Fh3UuLJO+AHoE6MXtsL7BGBoMN3bXzoRGQ98J94HrzL1C66k0o3/w1VMZthZrkeKh1pkN9iQsaykuhobLMzbOnof50EdTl2aDmVAJUHd4JFb98D2VrPoCi9/4K+S9PR0OKBPvk29DY8Pfwt5jhRfZjRuktr0OGQjJNcVy2WTyycVTIMN7GXReJKC+njMI2GlH0iryY0EugRGSP7c1oNWnQI4yBgr89jMbwNlTs+A7OpSdBfWkBQEMdyImGilKozcmEyv1boWzdUnC99SzkPm0BGz4IzEjHoJGi92LexgtGU4ptig/e6cQY1ZO8ubsejqK8OGJ1TlnlBRvbakDXT50wrjf+v4BPdBR6iGfhzL9XQE3KYdZ5nYXGuhqotadBxa71UPLx65A3a5Lb25BUkRGjRMkpTwUoPcUT+0OGSbvy3fAbbuFN3yVwRUK09g0mL3JkL2Z0s2QY5M71wRg/DGGeomztRygXh6Chqpx3kR8CvVet4xRU/PwNFC16AXIejUDPQvJEBoMxkQwehha3k/xkmYXEH8cEj+R94L/4eVyoOtMsbKWUrcPygtqePc79BDqm3AWufz0NFdvXQW1eNu+BrgfyclWHd0HJ0n9Azn9HY/zUzy1L+BBItkE7WIoyZ7eI5ckG9UzeHf6Hg3r1RKdFl9NRebFGq9AweuF/i5A/509Qvmk11Bfl8mYOHDTWnIWqg9uhaOHz4Lh/iNu7RIZ47F3ogST5oW0y0o3Cl28PuvFm3jV+gd8fN2j+jjl8PWUvnnoPlpWgcZDXKF7yGtSkHuHNGfioK3BA2XefssA3GzMyCng9NRbaX4Vm0dGjJ+4aGzqG91HnYc2Q3mGZZvEnsl4qnvHEQCj6zx5zKzinjYDTq9/BBrPzput+aKypxFT7W8h7bhIbl2EptUSbtYVcfs4ei9a8wLvL9zhqCLPYzaKN5IWsV+pCWyPFHLZYEUqWzYc6l5M3lYLG2hoW7NIAH8UsbOxFov1aYpP8kLGkGbVfbxsZ4tPs5w8pxvPyInWBrRLTQNLgvNn3s7RVgTTqzxRD8cevsYyI5JgGBiXbswXSA0w1wpkm4fh+X8gPyQvm5BvJOj2VF5a1oCst+eR1aDxXxZtDQUs4u3sD2O+h8RaMVTwwFCKFBJhQVMVHqF/i3Sk/Uowqk9UiZndEXpgH0feB02ve5bevoK2oPhkP9vsGu+MUDwyFHmha9UgPeIpBWBc3SnMr71pZ8LuEKM2rObG6WtrZR+oC2kSM1mmUtGTFG/y2FbQXVUm/gm08drhBJd3GbWCT/KBXSdk5LiSC97HnGBkUdPUJg/Zrmqb2WF44s8f2gYK501Foa/ktK/AENP1A0xIdHa0l+cG4svKAPvQB3t3tx7fhQVeeNGg3kNV1dFsHGiCzTx4EtY50fqv+h8b6c3AuOxlq0o5BfZmL/9UP0dgABa89wh46qbZuK+mBpyUrqBDVidGae3m3tw+njJoVFWggtHZV6kfaQ0rjTq95j9+l/KDxhapDv7h5eEe7WH10F1RsWwu5T5lQDntB9uj/ZEFi6eeL3N85srPZMS2xGlkZtxnqCh386uRHTXoidjKmxR6kxheSDIVtjxErVsRFhLWv6u1gpOpRckc0eSR18vaQUjfn9FGsXsNboEm+3KeNkHnnNdjJPfApu7VtRKOwGVWQNaoHqzkp+/p9KP/pC8h/ZTpkjbyF1Yq4Z3Aljm1GNLAxPSFr+I2QHdUbqk/E86vzDlyLXsDf7C3Z5u0lzbWdMmkTFg/udS03gZbxP+E9e2eYhFy5CoToRko+836wSlJWuvJNTK1fg5JPX4eSZX9vkaXL50PxklfANqE/G7Sqc1385Be9PweyRt8KhfMeg9JVb0ie4yLSby7F38bUvnLfFn4W74GM0GqUpzKO5tooaz0Y2cb0+FCkZh5NPUudrN2kSjGTmkXlvkLDGRfkvzwF8mbfB/lzpl6eLz/IvkOTamVrP+ZHn8c5exqmmjrIeTwK8l+dJn2OC0ierHL/Zn6099FYW80kkpUcSLV9O0lO4ZRRsC4dFNryxOBXw2+5IR2/6JLJi1DA6pw2EupLC/mteR9U+FO0eDZYYzBYRi/hmDr0MhwGjgfuZGl5+Y9f8qPPg2IKik1sk8LB+Sf8rsQ56O8UkJNk0dR/rTODH+0bFC16UTbJIW9CQxzx+rCWC61PRKsn0Xi/x4Nll5DqJXIei8bAsobflu9Qm5MB1Ul7UAJICuZD6bJ/Xszlb0DxR3NZyWP+nAfxiEb3gRxn1n+GctMTM4lHWSlks+ORxR++ikHvGqi1pUBDdQU/0ncoWTYPjbxjWc6FpNiEXt3CzUEaaUbtB2V3y+NFiCxofWgMNFSU8dvyLRqqKiBnZizzFmx5xKUkTTdrWZDqemMmpr9H4Jw1GcrWfYz/TvMl/VAyadmFxLGsskwLVUd381/zPYremyObJyFSJX66SbD/MLqFhWAoNbsoq5E6gUekmAQb++y+Tfy2fI/6MyVQffIAm0hsxtQjzDBK0CtkR2IWE0FVYsGQNeImyP/rFKhK3Muq5aWOpXNSIXRnoeFsmbsckib+pNreA9JCMJtFrMswa+/kJnExTk4JvzLbLCbLvSeINQolZ0Yk1Jfk89vzT5zLOMZGM8mLVB3YzmIbf0bxh3PdI68Sbe4pKczIx/7PNuuk9549PiH0ZqtFdOSjy5E6QUdIupk3626oK8njt6igIyj937fdBiJD+nshyUgK0EisZvE+bhYXwzo57Cb8R68YCZG0M+eJGDZaqMAzNFSWQ9E7L7EYi2IlqXbuCMlI2NbrlzOSLRbhKqtZJ7vcXEhrRDBLK8s3NU85FbQMioNYWSMVicvsQZpII+w57szWwM2iOTKMwg5ZA9dm7M8CLXKVhf94nA1YKWgZjZhan179rntlIJV7SrarPKRlMFlmoSLJ2MKLE9KNmsVypsCXpUlk8mO/ZxBbZEXrbxU0R2X8Nsh9xsIKxeVYm9MaadQ1zahN0AcFXcFNojkSDeoJVL0k12Baa6TiGZohznnSyBZe0XQ9Q0MD1JcWdx+WuNBjnC/lJGkpnP8Eet1Q9LrBkm3nDdJ0zIkY7XvcHKSxcnSP608ZxUxfby5D8ye0A0Dei/dC1aEdUHNyP+Q+HQO5T0RD7lP46Q98xuwdzrSAc4YeyreuZuuIKTClOSM2SOal2EOKLBYx6+p3jVWN4OZweRyIVM2jGUGpE3mVVN7IF4K7FjwJ56yJcC4LmZngF6x1pkJt7imozZGZjjT8TIeydR+gcdAqgl7AdiKQaiMvkepKaEHX8RhhK5rA79yW0ALeFHr3pKHZDtWzdoC08t45fSQULX4RXAuf9x++PQv5HP+UiW89BwV/mwEFc2egtzIyeZFqE2+TSlPRk9TtHBc6mptB64jTh00jyeHpkG9p1oH93kFsPiVzyLWQeed1gc27rofMoTeADZ9k23jfe3BWS4K/nWRQL+Td33akGTVLWPmijw3FGhkKebMmYmyyG6oOIA82Z+WBXYFFvKeid2azKQypNvEWyUCoj1E5tk0J9+DNXvMwDUqK0m7w9fvtqAYl90kDnPlhJZuuP/P9subcsAL/fVXAsHzjF1A4b4ask3WtkR5+MpAMs7B3w7C+PXi3tx/05oRj0ZpVtPVSR5dUtJXWGC1bhFT+4wqo3P1vOLvz+4u541uojNsGVQn7oOrorwHB6hMHIe+lKbJVmbVE6kPqS6odSTNq168Il2mN8Emj9iVnrK6GjEXqh2UlZjmUEpeueouPGgQ+aHUejajaqL5Fqk1kJCUkTouuPjVG+xp2rbyvzk82qiKyTeJJkh+Ht+XHpGX7dJRv+Yo3Y+CCdlNwPjyaPRiSbSETSV7cu2+L2fv1YRberfLjwzt690QXtYYyHxqZ9ab80DC01aiGs3t/5M0ZeGgoL4G85yeDe6GVdx486iOak6E1wBigbvksvE8o707vItmged5uFiu9OhmI3ooFcrEiVGz/hjdr4KD+dCHQdl9ylh9KkR5o2uTwaJT6n9h1vn01/v5IzRirWUym0Vk5FnFJkhsK7d5c9k3zZQ9dFbQjo3vijvaGk7hvGdi0lsYeq3PG6dUTebf5HiQ/GSbtV1SoQlX23pEfPC9tmRXRB1xvzoS6ohze1F0TZ3dtAMcUWsohX5X7hfwte5k4ELMXYfO64b0uP+3vSxyJVD9rNQvllFZJXbgsNAnsyaMdnyt2rudN3nVAe8Gx9UDoFb2Z6pK8UJB6uDPkpTXQ7CHKzwn3LgRui5a6iY6SNnGhGWPa8LcGU0d/B+1TX7buE7f3oKqyDi7yvhybhtcxVnQejVZP4t3if1g66Mab02K0nze9TcFr2Q/NGFPAFyuAa8EzUHV0DzT62b4n5Dmo8j7nMb17ZtdLo6kse8HYjbx4skHYRq+L4d3h34jXq2eiZZd5VX6Q9C4atp24UcVqUc6sX86Cws4C7fhcGb+dyQrtR8sWhXl5FJVqkslznzBoaYKu/fMvnYnto/sNtVvEoz6Z+6FFYPpgZjD2yf8FBa88BGVrl0B18kG2iMlboEXbtOKvfNtacC16nu1OwKrJ0Mt1ZMuqtpDkhQbHHLFi7nFPN6HxB3w4/JYbUk3alV6XnwvIMiHakx6DXPerTcZCwdw/Q+nyBVC++UuUpr1Qa0tjW000lBe3uAMkbe1NA1703XN4THXir1C+dQ2UfrEYXP96ii0Roa0ryDiZYcj8ForLkQbHaIuyDJOw48eRIQJv7q6NuAjVU3az7kwppmVSN+01kodh1fnoZdBo2C7LMWqw004BDw7DeCES8p4ZD/kvTr2Ys5EvPMC28abVh/RdG3YKjQDTdAE7FxoikxIvBaKXI9/CCuVFvRCt4yrexIGBHeNC78Q0+UDTHmy+8CrNSJvRkeEY6b17tOg7jGVL2SRVEmSZFH2HTRHwDWM6uKGdp/xNXixi7sHosK4rL61ht77ndSkx2mX0NNAAnFRjKGxOyl5o9DTbLO7YExEs8uYMbByKUj9ujxVLqPSAnhCphlHoTm+5vDQmxwhveVQ91pWxJyJsSIZJjCf5cW95IN1Q3ZVN8mI16wr3R6mm8mbrfvjsrj7XpBuFJZT5eHMNclcieY8czF7o4bFZhL1H9GEDeHN1byRFqR62mkUXpXXdWX7Oy0t/zF4073Q7eWkNeyJCBqWbhH0UoFEjdUr204n8TV4sYuEhfdiDvFkUXIqnUH4yTMKHBehuaTazOxgKkxeevWB6vSdOkZe2IR6fJEz38lnRzCWNGmhskpfkGM27ATc45m2sG947/JRRuydQ5YeM3x2DiQWHohV58Rj6sKD/SMUnjCqtaO+MQDCUJnmh7CXLLOzdOVrVn9+ugo7gaLTmQQzo8lhRzSWN3tVI8kKlnqmY+s8OCbma36ICOfDV0L79MfvZQZOEHX57eSeRrt0eq3PF69V/5relwAu4MtmoXZg73l3L2VUMpUle0o1i3E+jQm7j96LAm0jQqx9wWHT57hVp0h3jDyQjpolMF8pLGsrLRkzx+S0o8AW+HxEs0pYJtDLNX+WHshdM5Yv2KfLSqfhjkkGzgNy5P2U/VC/D9/3Yt2VE8GB+rQo6EwmR2sk5sTonkx9vrSZsA8/LywA4FSN8TBOY/BIV+AM2jO6nPWUUtpGLJ/mR6kRvk8+9lByIUj/OL0uBv4E2qT0eLcxzxuoaKPuR6ki5Sd6D5I7GcDJNwoEto9r5VkwFnYNkoybWbhFt3h58u1Be0kzCsmfDe17HL0FBVwCtZEs3CptIAry1lRctPnNYxNKjirx0aVxxPEYzz2HR1cn1ClsiZS9s3YtROPjNyD7Sb5lS0LVwLFoTazOLNkpLKX6Q6vi2kKSL9hwjnozRrpol3HID/wkFgYC94/r2yzIJn2OqXE/lB7SdV1vjFfIcZBhsbbNZTE+MFpTBsUDG3nEhEUnRmjVZZqGYMqAy7HiSDjfdhuDm+b/Rfh+ZJjHhcJR69l/6Xu/5nqcKuhbWjuilSopSPZIco/nMZtZtsJp1G9FLbLFZxK0Y5G7Czx9SjcK6Ewb1/IRIld6iVI0pUKBAgUcICvp/0neD4cMmMCMAAAAASUVORK5CYII=;" parent="1" vertex="1">
          <mxGeometry x="-74.5" y="427.02" width="67" height="54.28" as="geometry" />
        </mxCell>
        <mxCell id="WmqXlaNKx9UAFNlGCMGP-23" value="" style="shape=image;verticalLabelPosition=bottom;labelBackgroundColor=default;verticalAlign=top;aspect=fixed;imageAspect=0;image=https://www.vectorlogo.zone/logos/terraformio/terraformio-ar21.png;" parent="1" vertex="1">
          <mxGeometry x="-80" y="498.75" width="79.75" height="39.88" as="geometry" />
        </mxCell>
        <mxCell id="WmqXlaNKx9UAFNlGCMGP-26" style="rounded=0;orthogonalLoop=1;jettySize=auto;html=1;shape=link;entryX=-0.045;entryY=0.788;entryDx=0;entryDy=0;entryPerimeter=0;" parent="1" source="WmqXlaNKx9UAFNlGCMGP-24" target="WmqXlaNKx9UAFNlGCMGP-74" edge="1">
          <mxGeometry relative="1" as="geometry">
            <mxPoint x="250" y="590" as="targetPoint" />
          </mxGeometry>
        </mxCell>
        <mxCell id="WmqXlaNKx9UAFNlGCMGP-27" style="edgeStyle=none;rounded=0;orthogonalLoop=1;jettySize=auto;html=1;shape=link;" parent="1" source="WmqXlaNKx9UAFNlGCMGP-24" target="WmqXlaNKx9UAFNlGCMGP-25" edge="1">
          <mxGeometry relative="1" as="geometry" />
        </mxCell>
        <mxCell id="WmqXlaNKx9UAFNlGCMGP-28" style="edgeStyle=none;rounded=0;orthogonalLoop=1;jettySize=auto;html=1;shape=link;" parent="1" source="WmqXlaNKx9UAFNlGCMGP-24" target="WmqXlaNKx9UAFNlGCMGP-78" edge="1">
          <mxGeometry relative="1" as="geometry" />
        </mxCell>
        <mxCell id="WmqXlaNKx9UAFNlGCMGP-24" value="" style="sketch=0;aspect=fixed;html=1;points=[];align=center;image;fontSize=12;image=img/lib/mscae/Express_Route.svg;" parent="1" vertex="1">
          <mxGeometry x="214.61" y="650" width="80" height="48" as="geometry" />
        </mxCell>
        <mxCell id="WmqXlaNKx9UAFNlGCMGP-25" value="On-prem" style="sketch=0;outlineConnect=0;fontColor=#232F3E;gradientColor=none;fillColor=#232F3D;strokeColor=none;dashed=0;verticalLabelPosition=bottom;verticalAlign=top;align=center;html=1;fontSize=12;fontStyle=0;aspect=fixed;pointerEvents=1;shape=mxgraph.aws4.office_building;" parent="1" vertex="1">
          <mxGeometry x="220" y="780" width="69.23" height="108" as="geometry" />
        </mxCell>
        <mxCell id="WmqXlaNKx9UAFNlGCMGP-30" style="edgeStyle=none;rounded=0;orthogonalLoop=1;jettySize=auto;html=1;entryX=1.01;entryY=0.359;entryDx=0;entryDy=0;entryPerimeter=0;shape=link;" parent="1" source="WmqXlaNKx9UAFNlGCMGP-29" target="WmqXlaNKx9UAFNlGCMGP-17" edge="1">
          <mxGeometry relative="1" as="geometry" />
        </mxCell>
        <mxCell id="WmqXlaNKx9UAFNlGCMGP-31" style="edgeStyle=none;rounded=0;orthogonalLoop=1;jettySize=auto;html=1;entryX=0.052;entryY=0.38;entryDx=0;entryDy=0;entryPerimeter=0;shape=link;" parent="1" source="WmqXlaNKx9UAFNlGCMGP-29" target="WmqXlaNKx9UAFNlGCMGP-19" edge="1">
          <mxGeometry relative="1" as="geometry" />
        </mxCell>
        <mxCell id="WmqXlaNKx9UAFNlGCMGP-29" value="Internet" style="sketch=0;pointerEvents=1;shadow=0;dashed=0;html=1;strokeColor=none;fillColor=#505050;labelPosition=center;verticalLabelPosition=bottom;outlineConnect=0;verticalAlign=top;align=center;shape=mxgraph.office.clouds.cloud;" parent="1" vertex="1">
          <mxGeometry x="460" y="680" width="140" height="73" as="geometry" />
        </mxCell>
        <mxCell id="WmqXlaNKx9UAFNlGCMGP-41" value="" style="ellipse;whiteSpace=wrap;html=1;aspect=fixed;fillColor=#3399FF;" parent="1" vertex="1">
          <mxGeometry x="50" y="290" width="20" height="20" as="geometry" />
        </mxCell>
        <mxCell id="WmqXlaNKx9UAFNlGCMGP-46" value="" style="ellipse;whiteSpace=wrap;html=1;aspect=fixed;fillColor=#FFFF00;" parent="1" vertex="1">
          <mxGeometry x="234.5" y="290" width="20" height="20" as="geometry" />
        </mxCell>
        <mxCell id="WmqXlaNKx9UAFNlGCMGP-47" value="" style="ellipse;whiteSpace=wrap;html=1;aspect=fixed;fillColor=#00FF00;" parent="1" vertex="1">
          <mxGeometry x="395.25" y="290" width="20" height="20" as="geometry" />
        </mxCell>
        <mxCell id="WmqXlaNKx9UAFNlGCMGP-48" value="" style="ellipse;whiteSpace=wrap;html=1;aspect=fixed;fillColor=#3399FF;" parent="1" vertex="1">
          <mxGeometry x="210" y="290" width="20" height="20" as="geometry" />
        </mxCell>
        <mxCell id="WmqXlaNKx9UAFNlGCMGP-50" value="" style="ellipse;whiteSpace=wrap;html=1;aspect=fixed;fillColor=#3399FF;" parent="1" vertex="1">
          <mxGeometry x="370" y="290" width="20" height="20" as="geometry" />
        </mxCell>
        <mxCell id="WmqXlaNKx9UAFNlGCMGP-51" value="" style="ellipse;whiteSpace=wrap;html=1;aspect=fixed;fillColor=#3399FF;" parent="1" vertex="1">
          <mxGeometry x="610" y="290" width="20" height="20" as="geometry" />
        </mxCell>
        <mxCell id="WmqXlaNKx9UAFNlGCMGP-52" value="" style="ellipse;whiteSpace=wrap;html=1;aspect=fixed;fillColor=#FF8000;" parent="1" vertex="1">
          <mxGeometry x="635.5" y="290" width="20" height="20" as="geometry" />
        </mxCell>
        <mxCell id="WmqXlaNKx9UAFNlGCMGP-53" value="" style="ellipse;whiteSpace=wrap;html=1;aspect=fixed;fillColor=#3399FF;" parent="1" vertex="1">
          <mxGeometry x="850" y="290" width="20" height="20" as="geometry" />
        </mxCell>
        <mxCell id="WmqXlaNKx9UAFNlGCMGP-54" value="" style="ellipse;whiteSpace=wrap;html=1;aspect=fixed;fillColor=#00FF00;" parent="1" vertex="1">
          <mxGeometry x="878.25" y="290" width="20" height="20" as="geometry" />
        </mxCell>
        <mxCell id="WmqXlaNKx9UAFNlGCMGP-55" value="" style="ellipse;whiteSpace=wrap;html=1;aspect=fixed;fillColor=#3399FF;" parent="1" vertex="1">
          <mxGeometry x="-100" y="630" width="20" height="20" as="geometry" />
        </mxCell>
        <mxCell id="WmqXlaNKx9UAFNlGCMGP-56" value="sharedservices-domain" style="text;html=1;strokeColor=none;fillColor=none;align=center;verticalAlign=middle;whiteSpace=wrap;rounded=0;" parent="1" vertex="1">
          <mxGeometry x="-91.75" y="625" width="161.75" height="30" as="geometry" />
        </mxCell>
        <mxCell id="WmqXlaNKx9UAFNlGCMGP-58" value="dev-domain" style="text;html=1;strokeColor=none;fillColor=none;align=center;verticalAlign=middle;whiteSpace=wrap;rounded=0;" parent="1" vertex="1">
          <mxGeometry x="-91.75" y="655" width="161.75" height="30" as="geometry" />
        </mxCell>
        <mxCell id="WmqXlaNKx9UAFNlGCMGP-59" value="" style="ellipse;whiteSpace=wrap;html=1;aspect=fixed;fillColor=#FFFF00;" parent="1" vertex="1">
          <mxGeometry x="-100" y="690" width="20" height="20" as="geometry" />
        </mxCell>
        <mxCell id="WmqXlaNKx9UAFNlGCMGP-60" value="stg-domain" style="text;html=1;strokeColor=none;fillColor=none;align=center;verticalAlign=middle;whiteSpace=wrap;rounded=0;" parent="1" vertex="1">
          <mxGeometry x="-80.87" y="685" width="140" height="30" as="geometry" />
        </mxCell>
        <mxCell id="WmqXlaNKx9UAFNlGCMGP-61" value="" style="ellipse;whiteSpace=wrap;html=1;aspect=fixed;fillColor=#00FF00;" parent="1" vertex="1">
          <mxGeometry x="-100" y="720" width="20" height="20" as="geometry" />
        </mxCell>
        <mxCell id="WmqXlaNKx9UAFNlGCMGP-62" value="prd-domain" style="text;html=1;strokeColor=none;fillColor=none;align=center;verticalAlign=middle;whiteSpace=wrap;rounded=0;" parent="1" vertex="1">
          <mxGeometry x="-70" y="715" width="120" height="30" as="geometry" />
        </mxCell>
        <mxCell id="WmqXlaNKx9UAFNlGCMGP-63" value="" style="ellipse;whiteSpace=wrap;html=1;aspect=fixed;fillColor=#FF8000;" parent="1" vertex="1">
          <mxGeometry x="-100" y="660" width="20" height="20" as="geometry" />
        </mxCell>
        <mxCell id="WmqXlaNKx9UAFNlGCMGP-67" value="" style="ellipse;whiteSpace=wrap;html=1;aspect=fixed;fillColor=#FF0000;" parent="1" vertex="1">
          <mxGeometry x="-100" y="753" width="20" height="20" as="geometry" />
        </mxCell>
        <mxCell id="WmqXlaNKx9UAFNlGCMGP-68" value="" style="ellipse;whiteSpace=wrap;html=1;aspect=fixed;fillColor=#FF0000;" parent="1" vertex="1">
          <mxGeometry x="80" y="290" width="20" height="20" as="geometry" />
        </mxCell>
        <mxCell id="WmqXlaNKx9UAFNlGCMGP-69" value="" style="ellipse;whiteSpace=wrap;html=1;aspect=fixed;fillColor=#FF0000;" parent="1" vertex="1">
          <mxGeometry x="260" y="290" width="20" height="20" as="geometry" />
        </mxCell>
        <mxCell id="WmqXlaNKx9UAFNlGCMGP-70" value="" style="ellipse;whiteSpace=wrap;html=1;aspect=fixed;fillColor=#FF0000;" parent="1" vertex="1">
          <mxGeometry x="420" y="290" width="20" height="20" as="geometry" />
        </mxCell>
        <mxCell id="WmqXlaNKx9UAFNlGCMGP-71" value="" style="ellipse;whiteSpace=wrap;html=1;aspect=fixed;fillColor=#FF0000;" parent="1" vertex="1">
          <mxGeometry x="660" y="290" width="20" height="20" as="geometry" />
        </mxCell>
        <mxCell id="WmqXlaNKx9UAFNlGCMGP-72" value="" style="ellipse;whiteSpace=wrap;html=1;aspect=fixed;fillColor=#FF0000;" parent="1" vertex="1">
          <mxGeometry x="904.5" y="290" width="20" height="20" as="geometry" />
        </mxCell>
        <mxCell id="WmqXlaNKx9UAFNlGCMGP-73" value="on-prem" style="text;html=1;strokeColor=none;fillColor=none;align=center;verticalAlign=middle;whiteSpace=wrap;rounded=0;" parent="1" vertex="1">
          <mxGeometry x="-74.5" y="745" width="120" height="30" as="geometry" />
        </mxCell>
        <mxCell id="WmqXlaNKx9UAFNlGCMGP-74" value="" style="aspect=fixed;html=1;points=[];align=center;image;fontSize=12;image=img/lib/azure2/networking/Virtual_Network_Gateways.svg;fillColor=#FF0000;" parent="1" vertex="1">
          <mxGeometry x="68" y="570" width="22" height="29.19" as="geometry" />
        </mxCell>
        <mxCell id="WmqXlaNKx9UAFNlGCMGP-76" value="" style="ellipse;whiteSpace=wrap;html=1;aspect=fixed;fillColor=#FF0000;" parent="1" vertex="1">
          <mxGeometry x="100" y="579.19" width="20" height="20" as="geometry" />
        </mxCell>
        <mxCell id="WmqXlaNKx9UAFNlGCMGP-77" value="" style="ellipse;whiteSpace=wrap;html=1;aspect=fixed;fillColor=#FF0000;" parent="1" vertex="1">
          <mxGeometry x="655.5" y="579.19" width="20" height="20" as="geometry" />
        </mxCell>
        <mxCell id="WmqXlaNKx9UAFNlGCMGP-78" value="" style="aspect=fixed;html=1;points=[];align=center;image;fontSize=12;image=img/lib/azure2/networking/Virtual_Network_Gateways.svg;fillColor=#FF0000;" parent="1" vertex="1">
          <mxGeometry x="630" y="574.6" width="22" height="29.19" as="geometry" />
        </mxCell>
        <mxCell id="6XMChzlS-RQ_-6M1F3tV-1" value="" style="shape=image;verticalLabelPosition=middle;labelBackgroundColor=default;verticalAlign=middle;aspect=fixed;imageAspect=0;image=https://cdn-icons-png.flaticon.com/512/873/873107.png;labelPosition=right;align=left;fontStyle=1;fontSize=23;" parent="1" vertex="1">
          <mxGeometry x="40" y="224" width="36" height="36" as="geometry" />
        </mxCell>
        <mxCell id="6XMChzlS-RQ_-6M1F3tV-2" value="" style="shape=image;verticalLabelPosition=middle;labelBackgroundColor=default;verticalAlign=middle;aspect=fixed;imageAspect=0;image=https://cdn-icons-png.flaticon.com/512/873/873107.png;labelPosition=right;align=left;fontStyle=1;fontSize=23;" parent="1" vertex="1">
          <mxGeometry x="599.5" y="224" width="36" height="36" as="geometry" />
        </mxCell>
        <mxCell id="6XMChzlS-RQ_-6M1F3tV-3" value="" style="shape=image;verticalLabelPosition=bottom;labelBackgroundColor=default;verticalAlign=top;aspect=fixed;imageAspect=0;image=https://static-00.iconduck.com/assets.00/aws-icon-512x512-hniukvcn.png;" parent="1" vertex="1">
          <mxGeometry x="840" y="227" width="30" height="30" as="geometry" />
        </mxCell>
      </root>
    </mxGraphModel>
  </diagram>
  <diagram id="QzlY79lfDh-qoJYpq0bX" name="Overall Architecture Overview">
    <mxGraphModel dx="3174" dy="2251" grid="1" gridSize="10" guides="1" tooltips="1" connect="1" arrows="1" fold="1" page="1" pageScale="1" pageWidth="850" pageHeight="1100" math="0" shadow="0">
      <root>
        <mxCell id="0" />
        <mxCell id="1" parent="0" />
        <mxCell id="b9mpuUr4YG4pDa8_JKQ_-25" value="" style="rounded=1;whiteSpace=wrap;html=1;absoluteArcSize=1;arcSize=14;strokeWidth=2;fillColor=none;" parent="1" vertex="1">
          <mxGeometry x="680" y="-125" width="640" height="705" as="geometry" />
        </mxCell>
        <mxCell id="b9mpuUr4YG4pDa8_JKQ_-15" value="" style="rounded=1;whiteSpace=wrap;html=1;absoluteArcSize=1;arcSize=14;strokeWidth=2;fillColor=none;" parent="1" vertex="1">
          <mxGeometry x="-380" y="-125" width="1030" height="705" as="geometry" />
        </mxCell>
        <mxCell id="b9mpuUr4YG4pDa8_JKQ_-16" value="" style="rounded=1;whiteSpace=wrap;html=1;absoluteArcSize=1;arcSize=14;strokeWidth=2;fillColor=none;verticalAlign=top;labelPosition=center;verticalLabelPosition=bottom;align=center;rotation=90;" parent="1" vertex="1">
          <mxGeometry x="-577.5" y="112.5" width="550" height="105" as="geometry" />
        </mxCell>
        <mxCell id="b9mpuUr4YG4pDa8_JKQ_-1" value="" style="shape=image;verticalLabelPosition=bottom;labelBackgroundColor=default;verticalAlign=top;aspect=fixed;imageAspect=0;image=data:image/png,iVBORw0KGgoAAAANSUhEUgAAAJ4AAAB7CAYAAACFDDlKAAAAAXNSR0IArs4c6QAAAARnQU1BAACxjwv8YQUAAAAJcEhZcwAAFxEAABcRAcom8z8AABQhSURBVHhe7Z0NeBXVmccHyJ25kRakunbrVruPtbZav0VUCvmYmQuhq9hVcSmsotD6hW4tj67d1Ypbd/3o01pbv6BWrbpqta5tWeuqK7ZVKyioaFHMx7039ys3hJCEJIRAPs6+/7lvsgEHktzMnLlJzu953gcIMHPmnHfe//l4zxlNoVAoFAqFQqFQKBQKhUKh8InsXONvE5Z+bq2p35y29dVxS38MlrD1h2ot4/aUHb4oZYZOFJo2gf+LQpEfiVlTp6Vt44qMra9N2UZb41xD7KiAhUUL/QrD71vJmujvkpbRm7GN9+ptfWWNrX+JL6NQDI3Vp2mhlK1/p87W43A0OBU5lEhYhqDotl8j5xTb5hiibV5YkMN2kMOuqiot/jxfVqHYP1UloVPqIsa6tnmG2EpO5OZgQzE4Kq6RjRj1USu0mC+vUHySWiu8uM42dkBC3ZxpuBYng/Nup4hJEfCuzcdpOt9KoaAoV6EZ5Bg/3T43LOojOYdxc6R8DRLcRs5M0v3alnL9y3xbxXgmRo5ADvEGZBEO4uY4XhkiKfX7muJWaBHfXjEeiduhb5K0NnklrYPZXtIbMe5+Rknv+GIjjVqp839XIzkBHMFraT2Q4V6O9FKEpej3549L9a9wsRRjmc2lxtHkdH9qZ2mV6XT7GiItjXobMajh4inGIvFy/bxsRK9vqQi7OoJs20t6bf1nL9Agh4uqGAs8s0CblLSM2xuokWFBRjk36x/1Row3K239WC62YjRTaRlH1UX0V3g1oeCcbqA50mvr25X0jnJi5fr8OlvPYtnLraELzQZKb8LU73vzTK2YH0UxGlipaRPTlvEfhSqtgxmkt50iNEXqddXloa/yYykKmfdLiz+fjugvYrqi0KV1MGuhyEej3qaokt7CJm7q8+psIzlapHUww0uDJTxIb8rS7994mnYQP6qiUEia+s0UHXqRljSao5ybJTHqpQhOL9X6mtLQ8fzIiiCpNIv/hvpzz7dSlEMq0lhzuoHWjGeMGC21dugifnxFEMRsY242otdCWgdL0vTEykMi/jVNxM4gO51sOv96libipRPc/4+Htpf0RvQHlPQGQMLWb6yTIa0URWvLJjkOBufKLDleNNyyUGy/d4VoWv090fijy0X2O+UiefahIjaD/g05put1PLS+td50xNhQUxI6gatE4Sfx0oP+mhzud7KkNXYmOVK5IRrvXCZ2ffC66O3aLdzobkiL1t88IDIXn+A4KZzVcVqXa3plkF4krqat0BKuHoUfxMrCpXURPQqn819adceBMstOE52b17F7DU7vrp2i6ec3OpEvPpvk10fn65Pe3J4Q/T4lvT6QtPTr6e3uRiqTjAEEnG7rDfNFz84d7FLDo33tryjqUVlLJrpe30sbMOrdGI+ETuYqU4yEjaXaoWnb+DUGECSx/jsdNSL6atmrZone3bvYjfKj7cVHWaqL3O/lsTVjwpmklxzxUq4+RT7EysMlJCHVcqSVDH1GksjkOZ8VXdk4u8/I2H7PtSJ6mv8DDthA6SWFWLXxbCW9wyYR0VdkI8ZubKKWIa2weFmRiM3URMebz7PbjJzerj0ie3VJbsDh82Cjz/qkNxvRN1RZB53CVao4EB9Z2iEpy3hamrT2my6i0zXR/PDN7DLe0VVf60RRGVMtA82R3ojRSnW4lKtX4UZteXhmvW1swdsqRVr7jCJEFIOJ67/OruI9Het+T9F0ghNVXcvgg+GlJccTzRXIRdRXb4pok7mqFX0kLeMqqqRdmJWXF+XIMJggeU1d8AXR3VTPbuIPzY+s5P6e/sly+GiO9Obm/DZWm6FTucrHN1F72tS0pT+GfRBypTVn8dJJIj67SOx674/sHn7SK+r/+evOUpus/t5Ag/RmbKM9aRrf4uofn3xsFZ1OzvYB3kaKeK6V5auZuX7djqd/zI7hP4iqiK5Y35XtfP3SO5ek1wo/uLlU+xQ3xfiBKuFKqoQODP1lR7k+g+w13PIP7BLy2LXpjyJeEiKb5Fouv61v1Jux9XfHjfTiLUvZ+i85uzYYp0O/7kxNpBcfK3pam9gd5IIo60guRV3XMkowvPRZ29iZsozLuHnGJjXlodPSFkkrvW2BSCubs4xlFovOjzewGwRDw8oLA+vvwfqll7o6FP0eGpPSSx3aZfXUscVb5lYJ0qw85Ezmtq5Zzc0fHIi26cVfyS2r2cFtMh+w1vseggM32ejmpRO1yWlbX+WE9aCkdYChX9d451Ju+uDp3LKBou9BUpIJBjO0EYJDwjSu4OYbnUTN0InZiP62I60ByUm/oV93Ri7NCalLhUTrmlW5JTUz5F52SdYnvdhYnrL0Rzba2lRuytFDzAovIadrwdyR20PKtvisCSIx92Cxp/Yjbu7CYtudy0RMUjLBYIb+N0vvphq7aDo3aWGD3e/Yitfk0+maeRn6dRTt2v/3CW7mwqN3VztF41OdcgY12BhoaDdILzlfO5Xn29y8hUlliX5sxjbW423BvgC3BwrC0K9DelKhsyf+IUXlqbnMZZfnkG37jHofjRai9CbN0EJ6O7YXirQ6hn7dDE3ULZ+1370SB6ZX9O7p5N/Lof2VJ3NRj6K06zMFYH3SS074/pZCGvXGTeNWLO7LPl1zMEMaUuKcw0RXXZSbdfjsrt4kujI1/Cc5yEweHaqhXRFUKLi0Vpn6Odz0wUFO90O8DQV3TklZkYg7SZ1ruDnzo6etRTT/4ibR09HGP/Gf3j27RXb5bCdaF0J/r8/QvjgEifruXdVlxlx2AflEy/QVOHeukPpzOdOdEWLzQ9/nphwZrWt+Lhp/spz/JIeuTNSJ1k7yaAE6H0W+5vicAM5vjtvFZ5LmdyOVya2AgRn6ddM1UX9dBYWrHm7GkYF+XnrxMaLtpcf5J3LY+ec1Tq4gorfrswZkcD5kiJPavY2DzNkl/EeUakW1pvEuNL+g5BVyj6TO848U3Y113Hze0PrbB5y8va50Nf9EDs0P3SSip6K/F1wywf4MahcrN65ht/CfhBVeIm3n1zDMSeosKRK73lnLzeYd2LST/MbhInPxyaK3s4N/KoHeHid6y9wsNFRzBpOmnqmq0Kawa/iHWKlNjJnGRoxi3QoTmHFSZ8tTP+QW857W39wnqo/WxLbbLuafyAHRG1Ec0TzIZAI3w2dTSf2WsXv4R9QsmoF+XeBrr/sYBhMNN1/ATeUPPTtbReqCI0XNCZrY4aODu4EoDqlHVHd7/qAs193SX2L38A/qa3wfHwZ2K0QgRhHASepcdIyUpM6WJ+8Q0ZNwKtQEZ+eYTBDNg04e3dcQhGKW0Zy2tEPYRfyBRjL/HXhO3QDrT+r86C1uHn/padkmUguOdPpcyXM/5+yZlUnDTecFmjy6r2FVA86XMMOz2UW8RyzQJtHNNmMeZ98CBGImJ3X+bhU3ixwa717uTO7i3tl/KqNOWBf/jf/0tG53onsuedSlTgIw7BCMWeGL2U28p2qGNoWkNomsE7cCyDYsK2277RJuEjnsSWwRyfOO6N+ogzI03X8d/60cOre85UT5QkgehcHx4uX6d9lNvCcxS5uG4TMyFtwKIM3oTXeSOi892UknkgWmUeouO33vpSykXFH0aX/1af5XckCUL4TkUZjjeGX6CnYT78FmEIp4tUFHPKQNJeZMFbtjf+FmkEPjjy5zXbx3kkwrDnaioUy23X5JQSQTYErF13R5oWkT6UabcO7wvjeXZv1Jnf/J1S+Htt8/tP8IwxG47rIZUieXkbiAqB9k8igWEXBYZtTvjBUa1T4bZM4d3vDtP72Gq14OuyvfoXtPpkh74D4VyoaoKJM98c1OSn9QyaOcINIVtfRj2EX8IWHpKwKZx+uLKld9TWpyZk97i0hfdNzQtiBilE39v7YXHub/LYc2iv5O1AsgeZRP3d+MGQ92EX/AR91SltEtOxUKM/aJOVPEnlQlV7ccGm5dPKx5Mycq2p8Su6ve4SvIAf09pyvgUiY/DYkCyMlk9/AXGmC8ijx8t4L4ZWj8pl/cyNUshx3P3j38lQJEZoqOmYu+6kRLWXQ1pERi3jR6QeVNsSD5lwJQV1zWx53xHVgkCcjKTkFlJuZNFd1bk1zN/tP5/mt0Xz3vtVH09xp+sIivJofGu66UFvWQDodTvmKm8QS7hRxilv4yUqNk5OOh/7L1X8/l6vWf7uatInXhUSI+kqPEKEoiWiJqymLXu6+K+CwsIfrf18OUGkW8tkS58UV2CTlUzzGOphu3ytjgg7e45Ul52SBbvzffm/XQkklO1Oz84HW+sr8gSSL5958T8RJ/R7jITEIGciyoU6Zipr4Ap7Jjkdg350PkoMiz87XnuHr9peXRW3lHvwcZIDQKRtRE9OxubuA7+Evd5TNyeXtu5fHA0L3a6WQe6/eyGwRDjWVcCeer9yvykeNhw0vH2y9x1fpHx9sv0r0m5t2vczUMNih6bv2X+XwXf8l+186dNupWlhEY2hYzGXA6eikf4eYPlppy49JsxNiFdCnPnQ+Oh22Kb73IVesPXTRwSZ57OGf57lOGkRqiNkXR5kd/wHfzj+y1pueOhzZFlwoBhv58Ozd7YRArKzqjzjY2Y17H09EuGg2L8K88xVXrA93duQbDiNBrp2PDZwYQTRFVfaOnR2QuPSm3JdKlDPkaTo/CKRGJ8tCF3NyFxQeztGk04HjcKaiH/T44RPODN3Htek/Tqht4sd3fzF44BKIqoqsfdG9NONNOXs3lQVqdU6Mixuu+L4l5ARX6Ghpud3j1zQrsLc0un8nV6y07//RsbtpExt5V9PfoJcKHlUVPN5fAO9rXPpVbOhvhC+RIKwUOtF/aMn7yzHGazk1b+FSWFUN6/+KJ9JZjk0uR2P3xRq5ib8DyW2LeZ0R8lrfSdGDTnejatPoGLoV3YACTczy3+w7d+APMTXEztJCbc3TxXql2cNIyHvNCehEpGv5tIVfxyEGiAdKYgjifxPlYH0XZdoq2XtH54XpnT/FIPlGaOws5TE6nr6+UtQzmJ0nTWD7iUS/y8Kixdr7xW67qkdH44yu4X+dyLwnmJI9StN2TquISjQAaHNVdeVYug8blXoMZ2gQrEWgfHKo5pr70XW0VnUVRL/cVnzwjDBoLX0FEDtpIwMbsoNKI+g39PSpDZumpzgaekbD97mtyKy159u2QX0mBoSVuGpdwc40t3pipfTpjG7+E9GLfxrCjHxqLol7q/C+Izjz7e63/dY8zuiyIjdH0PPhqZN0VM/M866VXbP/ZtbnuQh7rszlpNUQmYmyoLA+dxM00dqF+n/Olxrz257Lz4cjW1ufuFb1D3FrYvTUltt2+1JEjx+noOq7XD8DgOKkLv0gj7KEvC+6ueV/Ur4jkIt0wIzdeeLz4iHT4nOiYktbBiPZ9QI/eOGwKdqug/Ro5DRbC0WCZb00n6bw/d2pnby83Sw7sSej8cJ1ouv96kZx/WG6CuAB2ZX3C8DyIwpg2ujYi2l9+wnWur2dHo+jY8LJovGOpSEQm5z2CxQtPdd9GDjg+P6C8foY2JRPRH8bwPS/ppT4N5vjggImKKSKz7BSKAnNE/fXznI3W6W8eTSPISY7DxUvyaySphtR5ishwqOTZh5IEnyHqr5tLz1MhslfPFqkLjnCmfvC88bLhTxLjBXcmhG1jU2w8SOtgJEzjcnoDR/QlRzQEoobTcDCSY2d+bgTTC8EZElApouOlGvg8s/OL2P3SWhHG6e2j88MpfhEtcaT3fUd6C6j/NRaMpbUjYY/yT0X5BSacIb2oqPykV9lAw4qR80l46ktHzeIZXM2K/UGd7W9TPyT4Lz2OUsMLS84m8E3gtGU8hheaq1YxGDV28fQMdYKxhKOkd+gGp8PiPilGR61pXM3VqRgO62d8ZkrCUtI7VIO0YgMWRbvNcbvoTK5GRb7gI8tUmW1BHp1RyNYnrdiAk7KNX30wa+o0rjrFSKk2Q6eS9L6nRr17G5wOKemkCHtwvAhXl8JLNkW0yfh2Pi9qj3vpdaQVE8IRoyrq51GwihxJK7R0PEsvXrgMvXjoz5EK/LpqlvZXXDUKv8GST51tvDPepLdPWunZu5O2fh1Xh0ImkN50RH8Qa71IZBzr0psbtYapm6FXV5tGOVeDIiiSlrGUIkCr7BOsZJkjrRTVIa00an0uak7+LD+6ImiiZuhEGnBsGGvSC6fD4Yf0bL1JS7+JH1dRSDjSa+urx4r0/v+EsJ6glym4DxMrhgY53FKKEC2jddTbL60UvTOW8fyWmcWH86MpCp0aK3QC9fveGsnmoiCsT1oRsZN2eCU/jmI0gb0E1C96AGu9o0V6Ia1ZW0/WmPo8fgzFaCVhGpfUFbD04oXAecKIzhlb/5/q2eEjuOiK0Q6kl/pN6wtt1Aunw0cJYUnL+HcurmIsUVWhGSlbvw/5aoUivfgcE41as3Gz+BtcTMVYJWaFl9DAY0dQ0tsvrRi12uG1lZZxFBdNMdapKQ0dT/0p6dK7l7RGjDto2DqRi6QYL/yhVAunLf0eZ9RLjiBDevl0za21ln4+F0MxXqk1w/+IUS+cws1ZvDCcrulMCNv6H6pkfxtCUbhAerMRY53X0osoioEMUplwuiZF2SK+pUKRA9KLUS/WetEHc3Ok4RjWWrEPImsbzXErvIhvo1C4E7dCi7K2Xovoh2P23ZzqQIaIiX4jLGMbL0j7yJxi9POR9elDUlboFuqTxeFAmG+DE2LxHoffIJr1GRwNu7wgp7lETQwg9NeyEX0BX06hGB5VFdqUtBlemLT0xxOmUUmO1g7HwufQ4WhY0MfAIWnrjfTrm3V26LZ6tadV4SWCBgbkeEfVlhfNTFn63+FbbuSMkYRdND0bmXwY/zOFQqFQKBQKhUKhUCgUCoXCOzTt/wB1w1+fRKy5RAAAAABJRU5ErkJggg==;" parent="1" vertex="1">
          <mxGeometry x="-339.99999999999994" width="77.06" height="60" as="geometry" />
        </mxCell>
        <mxCell id="b9mpuUr4YG4pDa8_JKQ_-2" value="" style="shape=image;verticalLabelPosition=bottom;labelBackgroundColor=default;verticalAlign=top;aspect=fixed;imageAspect=0;image=data:image/png,iVBORw0KGgoAAAANSUhEUgAAAIkAAABvCAYAAADYOeNWAAAAAXNSR0IArs4c6QAAAARnQU1BAACxjwv8YQUAAAAJcEhZcwAAFxEAABcRAcom8z8AABZxSURBVHhe7V0HeFTVts6916vPXnhISUimnDNAnqAovWSSTKaEIja4IteCz4ZXVLwfKlfvhXtFhYcdRaQ8FfFDVLiKNJH6JISahJJC2rTUSSEkpJC23lp7dqTkkDI5M5lMzv99/zca5pw5Z+911r/W3mvvE6RAgQIFChQoUKDAP7BuZMjV8fowVZZFN8xq0loyLeL4DJN29L4oQftteM/r+NcUdDcsHdzr1sRI9fQUg7A6wyikZprESrtFB3nj+zM68L/xbzVZZiE91aBdf8Kgnvnp7b1U/HAFgYyVQ3r0PWnQLLCaRVvRhAFwetJAcOFnLhqGMxaNI1bH6ETS3wrZdwZAycQBZDSulBjtsj0RYQP56RQEGg5FaWbYLaK9/O6BrPPJc9jaSPpuARrNGTzWadGdTjFq5+Ip/+A+s4Iuj3nhQdelGzXLi9EbFCGljKA9JGMhQ0szCpt3juodxn9GQVfFzjHBt2eZhP1nUFZITqQ63ROSZynDc5Js/TI2dCL/OQVdDQkG1aM2s1hEnSnV0XKQvFNOrK4hMUo9H3/y9+5fVuD3WD2417XpZmGJa4I78LRKdK5cpHNTgFuGwW2mSdi0cUyfUH4ZCvwVP48OuyPTKMSV3z1AVnlpjRfIj33bqJB7+OUo8DccjlI9YrOIxZTWtidzkZMUGGP205CEaTZekpL9+AtoVDTTR/LSGpvkh8ZWss3i9nXDQ9X8MhV0FlYP7XVbllmIY+MXPpSX1kiejDKqbJPoPBCpmswvV4GvcThKMw2f1gJ6ajtLXlojyY/DomtMNmoXhgcFXckvXYG3YQkKuirFqP0gH906Da1LdY6/8Hz2w7zK7t0jQwR+Gwq8hU0jwgamxQh7yZXnoLx0ZvzRHjZlPw6LmHsoMvR+fjsK5EacXjMNU8wCamx/lZfWSJOJNMOcYtQsDgkKuprfmoKOYpYQdFWSQf0+TeH7u7y0xgvlBzOyvbv1YQP4bSrwFDvGhoZnmsQ9NKHWleSlNTZlP/hZmByjmspvV0F7sXNMv6lWs67Qn7OXjpAMnuSHPOSJGM27ivy0A/P0QVckGbSLcsa7G1GqgQOFZCjkIWnuJ90o/F+cPuQ23gwKLoefRgSL2WZxFw2OkXYHiry0Rpb9uAuaik8a1NN5cyi4FLvGhd5vtYh5nTn30pmkB4KmFQon9IfEaM1H8+4KuoY3jQIaiUw1ahc6YnWNXT176SjPy89AyDAJv/48SpGfoO+ZvAi7KNLPDaDspaMkT0oeNSdWV3IkWvMYb67uh0NRmvusZjG3Kw+OeZNN8kOz28ejNZ/M6d/jet503QJXnozRLqJZ2+4uL20hyQ8NA2SZhAPfDe07hLdh4GK3PkyVbtL+wuSlM7MXswg2kwBWoxasMRqwGlRgjQ4Da1Qokj6R9LcYNfsOfZcdI3UuH7BJfhwW3en4KM0M3pyBh2NRqrttFtHBRxolG0N2UseSIVCH60Mge1yf32g1hIJtvAj2ewaD44Fh4Hx4LOQ8HunmDD04po4Ax713gJ2WYRjVkK3ve/74iL5uQ0IDYwYk9dsy0y0/VFjVH1KNmuWf337jTbxpAwJ/TDBoFjgpe5Fh3UuLJO+AHoE6MXtsL7BGBoMN3bXzoRGQ98J94HrzL1C66k0o3/w1VMZthZrkeKh1pkN9iQsaykuhobLMzbOnof50EdTl2aDmVAJUHd4JFb98D2VrPoCi9/4K+S9PR0OKBPvk29DY8Pfwt5jhRfZjRuktr0OGQjJNcVy2WTyycVTIMN7GXReJKC+njMI2GlH0iryY0EugRGSP7c1oNWnQI4yBgr89jMbwNlTs+A7OpSdBfWkBQEMdyImGilKozcmEyv1boWzdUnC99SzkPm0BGz4IzEjHoJGi92LexgtGU4ptig/e6cQY1ZO8ubsejqK8OGJ1TlnlBRvbakDXT50wrjf+v4BPdBR6iGfhzL9XQE3KYdZ5nYXGuhqotadBxa71UPLx65A3a5Lb25BUkRGjRMkpTwUoPcUT+0OGSbvy3fAbbuFN3yVwRUK09g0mL3JkL2Z0s2QY5M71wRg/DGGeomztRygXh6Chqpx3kR8CvVet4xRU/PwNFC16AXIejUDPQvJEBoMxkQwehha3k/xkmYXEH8cEj+R94L/4eVyoOtMsbKWUrcPygtqePc79BDqm3AWufz0NFdvXQW1eNu+BrgfyclWHd0HJ0n9Azn9HY/zUzy1L+BBItkE7WIoyZ7eI5ckG9UzeHf6Hg3r1RKdFl9NRebFGq9AweuF/i5A/509Qvmk11Bfl8mYOHDTWnIWqg9uhaOHz4Lh/iNu7RIZ47F3ogST5oW0y0o3Cl28PuvFm3jV+gd8fN2j+jjl8PWUvnnoPlpWgcZDXKF7yGtSkHuHNGfioK3BA2XefssA3GzMyCng9NRbaX4Vm0dGjJ+4aGzqG91HnYc2Q3mGZZvEnsl4qnvHEQCj6zx5zKzinjYDTq9/BBrPzput+aKypxFT7W8h7bhIbl2EptUSbtYVcfs4ei9a8wLvL9zhqCLPYzaKN5IWsV+pCWyPFHLZYEUqWzYc6l5M3lYLG2hoW7NIAH8UsbOxFov1aYpP8kLGkGbVfbxsZ4tPs5w8pxvPyInWBrRLTQNLgvNn3s7RVgTTqzxRD8cevsYyI5JgGBiXbswXSA0w1wpkm4fh+X8gPyQvm5BvJOj2VF5a1oCst+eR1aDxXxZtDQUs4u3sD2O+h8RaMVTwwFCKFBJhQVMVHqF/i3Sk/Uowqk9UiZndEXpgH0feB02ve5bevoK2oPhkP9vsGu+MUDwyFHmha9UgPeIpBWBc3SnMr71pZ8LuEKM2rObG6WtrZR+oC2kSM1mmUtGTFG/y2FbQXVUm/gm08drhBJd3GbWCT/KBXSdk5LiSC97HnGBkUdPUJg/Zrmqb2WF44s8f2gYK501Foa/ktK/AENP1A0xIdHa0l+cG4svKAPvQB3t3tx7fhQVeeNGg3kNV1dFsHGiCzTx4EtY50fqv+h8b6c3AuOxlq0o5BfZmL/9UP0dgABa89wh46qbZuK+mBpyUrqBDVidGae3m3tw+njJoVFWggtHZV6kfaQ0rjTq95j9+l/KDxhapDv7h5eEe7WH10F1RsWwu5T5lQDntB9uj/ZEFi6eeL3N85srPZMS2xGlkZtxnqCh386uRHTXoidjKmxR6kxheSDIVtjxErVsRFhLWv6u1gpOpRckc0eSR18vaQUjfn9FGsXsNboEm+3KeNkHnnNdjJPfApu7VtRKOwGVWQNaoHqzkp+/p9KP/pC8h/ZTpkjbyF1Yq4Z3Aljm1GNLAxPSFr+I2QHdUbqk/E86vzDlyLXsDf7C3Z5u0lzbWdMmkTFg/udS03gZbxP+E9e2eYhFy5CoToRko+836wSlJWuvJNTK1fg5JPX4eSZX9vkaXL50PxklfANqE/G7Sqc1385Be9PweyRt8KhfMeg9JVb0ie4yLSby7F38bUvnLfFn4W74GM0GqUpzKO5tooaz0Y2cb0+FCkZh5NPUudrN2kSjGTmkXlvkLDGRfkvzwF8mbfB/lzpl6eLz/IvkOTamVrP+ZHn8c5exqmmjrIeTwK8l+dJn2OC0ierHL/Zn6099FYW80kkpUcSLV9O0lO4ZRRsC4dFNryxOBXw2+5IR2/6JLJi1DA6pw2EupLC/mteR9U+FO0eDZYYzBYRi/hmDr0MhwGjgfuZGl5+Y9f8qPPg2IKik1sk8LB+Sf8rsQ56O8UkJNk0dR/rTODH+0bFC16UTbJIW9CQxzx+rCWC61PRKsn0Xi/x4Nll5DqJXIei8bAsobflu9Qm5MB1Ul7UAJICuZD6bJ/Xszlb0DxR3NZyWP+nAfxiEb3gRxn1n+GctMTM4lHWSlks+ORxR++ikHvGqi1pUBDdQU/0ncoWTYPjbxjWc6FpNiEXt3CzUEaaUbtB2V3y+NFiCxofWgMNFSU8dvyLRqqKiBnZizzFmx5xKUkTTdrWZDqemMmpr9H4Jw1GcrWfYz/TvMl/VAyadmFxLGsskwLVUd381/zPYremyObJyFSJX66SbD/MLqFhWAoNbsoq5E6gUekmAQb++y+Tfy2fI/6MyVQffIAm0hsxtQjzDBK0CtkR2IWE0FVYsGQNeImyP/rFKhK3Muq5aWOpXNSIXRnoeFsmbsckib+pNreA9JCMJtFrMswa+/kJnExTk4JvzLbLCbLvSeINQolZ0Yk1Jfk89vzT5zLOMZGM8mLVB3YzmIbf0bxh3PdI68Sbe4pKczIx/7PNuuk9549PiH0ZqtFdOSjy5E6QUdIupk3626oK8njt6igIyj937fdBiJD+nshyUgK0EisZvE+bhYXwzo57Cb8R68YCZG0M+eJGDZaqMAzNFSWQ9E7L7EYi2IlqXbuCMlI2NbrlzOSLRbhKqtZJ7vcXEhrRDBLK8s3NU85FbQMioNYWSMVicvsQZpII+w57szWwM2iOTKMwg5ZA9dm7M8CLXKVhf94nA1YKWgZjZhan179rntlIJV7SrarPKRlMFlmoSLJ2MKLE9KNmsVypsCXpUlk8mO/ZxBbZEXrbxU0R2X8Nsh9xsIKxeVYm9MaadQ1zahN0AcFXcFNojkSDeoJVL0k12Baa6TiGZohznnSyBZe0XQ9Q0MD1JcWdx+WuNBjnC/lJGkpnP8Eet1Q9LrBkm3nDdJ0zIkY7XvcHKSxcnSP608ZxUxfby5D8ye0A0Dei/dC1aEdUHNyP+Q+HQO5T0RD7lP46Q98xuwdzrSAc4YeyreuZuuIKTClOSM2SOal2EOKLBYx6+p3jVWN4OZweRyIVM2jGUGpE3mVVN7IF4K7FjwJ56yJcC4LmZngF6x1pkJt7imozZGZjjT8TIeydR+gcdAqgl7AdiKQaiMvkepKaEHX8RhhK5rA79yW0ALeFHr3pKHZDtWzdoC08t45fSQULX4RXAuf9x++PQv5HP+UiW89BwV/mwEFc2egtzIyeZFqE2+TSlPRk9TtHBc6mptB64jTh00jyeHpkG9p1oH93kFsPiVzyLWQeed1gc27rofMoTeADZ9k23jfe3BWS4K/nWRQL+Td33akGTVLWPmijw3FGhkKebMmYmyyG6oOIA82Z+WBXYFFvKeid2azKQypNvEWyUCoj1E5tk0J9+DNXvMwDUqK0m7w9fvtqAYl90kDnPlhJZuuP/P9subcsAL/fVXAsHzjF1A4b4ask3WtkR5+MpAMs7B3w7C+PXi3tx/05oRj0ZpVtPVSR5dUtJXWGC1bhFT+4wqo3P1vOLvz+4u541uojNsGVQn7oOrorwHB6hMHIe+lKbJVmbVE6kPqS6odSTNq168Il2mN8Emj9iVnrK6GjEXqh2UlZjmUEpeueouPGgQ+aHUejajaqL5Fqk1kJCUkTouuPjVG+xp2rbyvzk82qiKyTeJJkh+Ht+XHpGX7dJRv+Yo3Y+CCdlNwPjyaPRiSbSETSV7cu2+L2fv1YRberfLjwzt690QXtYYyHxqZ9ab80DC01aiGs3t/5M0ZeGgoL4G85yeDe6GVdx486iOak6E1wBigbvksvE8o707vItmged5uFiu9OhmI3ooFcrEiVGz/hjdr4KD+dCHQdl9ylh9KkR5o2uTwaJT6n9h1vn01/v5IzRirWUym0Vk5FnFJkhsK7d5c9k3zZQ9dFbQjo3vijvaGk7hvGdi0lsYeq3PG6dUTebf5HiQ/GSbtV1SoQlX23pEfPC9tmRXRB1xvzoS6ohze1F0TZ3dtAMcUWsohX5X7hfwte5k4ELMXYfO64b0uP+3vSxyJVD9rNQvllFZJXbgsNAnsyaMdnyt2rudN3nVAe8Gx9UDoFb2Z6pK8UJB6uDPkpTXQ7CHKzwn3LgRui5a6iY6SNnGhGWPa8LcGU0d/B+1TX7buE7f3oKqyDi7yvhybhtcxVnQejVZP4t3if1g66Mab02K0nze9TcFr2Q/NGFPAFyuAa8EzUHV0DzT62b4n5Dmo8j7nMb17ZtdLo6kse8HYjbx4skHYRq+L4d3h34jXq2eiZZd5VX6Q9C4atp24UcVqUc6sX86Cws4C7fhcGb+dyQrtR8sWhXl5FJVqkslznzBoaYKu/fMvnYnto/sNtVvEoz6Z+6FFYPpgZjD2yf8FBa88BGVrl0B18kG2iMlboEXbtOKvfNtacC16nu1OwKrJ0Mt1ZMuqtpDkhQbHHLFi7nFPN6HxB3w4/JYbUk3alV6XnwvIMiHakx6DXPerTcZCwdw/Q+nyBVC++UuUpr1Qa0tjW000lBe3uAMkbe1NA1703XN4THXir1C+dQ2UfrEYXP96ii0Roa0ryDiZYcj8ForLkQbHaIuyDJOw48eRIQJv7q6NuAjVU3az7kwppmVSN+01kodh1fnoZdBo2C7LMWqw004BDw7DeCES8p4ZD/kvTr2Ys5EvPMC28abVh/RdG3YKjQDTdAE7FxoikxIvBaKXI9/CCuVFvRCt4yrexIGBHeNC78Q0+UDTHmy+8CrNSJvRkeEY6b17tOg7jGVL2SRVEmSZFH2HTRHwDWM6uKGdp/xNXixi7sHosK4rL61ht77ndSkx2mX0NNAAnFRjKGxOyl5o9DTbLO7YExEs8uYMbByKUj9ujxVLqPSAnhCphlHoTm+5vDQmxwhveVQ91pWxJyJsSIZJjCf5cW95IN1Q3ZVN8mI16wr3R6mm8mbrfvjsrj7XpBuFJZT5eHMNclcieY8czF7o4bFZhL1H9GEDeHN1byRFqR62mkUXpXXdWX7Oy0t/zF4073Q7eWkNeyJCBqWbhH0UoFEjdUr204n8TV4sYuEhfdiDvFkUXIqnUH4yTMKHBehuaTazOxgKkxeevWB6vSdOkZe2IR6fJEz38lnRzCWNGmhskpfkGM27ATc45m2sG947/JRRuydQ5YeM3x2DiQWHohV58Rj6sKD/SMUnjCqtaO+MQDCUJnmh7CXLLOzdOVrVn9+ugo7gaLTmQQzo8lhRzSWN3tVI8kKlnqmY+s8OCbma36ICOfDV0L79MfvZQZOEHX57eSeRrt0eq3PF69V/5relwAu4MtmoXZg73l3L2VUMpUle0o1i3E+jQm7j96LAm0jQqx9wWHT57hVp0h3jDyQjpolMF8pLGsrLRkzx+S0o8AW+HxEs0pYJtDLNX+WHshdM5Yv2KfLSqfhjkkGzgNy5P2U/VC/D9/3Yt2VE8GB+rQo6EwmR2sk5sTonkx9vrSZsA8/LywA4FSN8TBOY/BIV+AM2jO6nPWUUtpGLJ/mR6kRvk8+9lByIUj/OL0uBv4E2qT0eLcxzxuoaKPuR6ki5Sd6D5I7GcDJNwoEto9r5VkwFnYNkoybWbhFt3h58u1Be0kzCsmfDe17HL0FBVwCtZEs3CptIAry1lRctPnNYxNKjirx0aVxxPEYzz2HR1cn1ClsiZS9s3YtROPjNyD7Sb5lS0LVwLFoTazOLNkpLKX6Q6vi2kKSL9hwjnozRrpol3HID/wkFgYC94/r2yzIJn2OqXE/lB7SdV1vjFfIcZBhsbbNZTE+MFpTBsUDG3nEhEUnRmjVZZqGYMqAy7HiSDjfdhuDm+b/Rfh+ZJjHhcJR69l/6Xu/5nqcKuhbWjuilSopSPZIco/nMZtZtsJp1G9FLbLFZxK0Y5G7Czx9SjcK6Ewb1/IRIld6iVI0pUKBAgUcICvp/0neD4cMmMCMAAAAASUVORK5CYII=;" parent="1" vertex="1">
          <mxGeometry x="-336.93" y="80" width="73.99" height="60" as="geometry" />
        </mxCell>
        <mxCell id="b9mpuUr4YG4pDa8_JKQ_-3" value="" style="shape=image;verticalLabelPosition=bottom;labelBackgroundColor=default;verticalAlign=top;aspect=fixed;imageAspect=0;image=data:image/png,iVBORw0KGgoAAAANSUhEUgAAAFkAAABQCAMAAABF2ilVAAAAAXNSR0IArs4c6QAAAARnQU1BAACxjwv8YQUAAABjUExURQAAAO+ce+6Zd+2Ycu+Ube6QaO2LYuyGXOyDV+t8Tup2RulwPehpM+ZgKeZXHeROEOJDAeRPEeZaIedmMelyQOt+UO2JYO+VcPGhgPKtkPS4oPbEsPjQv/rcz/vn3/3z7/////xrXpIAAAAQdFJOUwAfPFdwh5yvv87b5u/2+/6/gkQkAAAACXBIWXMAABcRAAAXEQHKJvM/AAAD7UlEQVRYR7WZbZuqIBCGdbNS09Rqq+1N//+vPCADAj4OuHud+0sK+kTDMDNQEsFmuy+q+thIjvWhzLMv6vkDaZZXTQs45Bk98hvSrISqmnJHD67kq2BlFcV6u2SHCF3JYZ1Vsorei6Ha0Fth0oLeiaWMtMku0g42e3qXIz3Qw+uog8POfjFgxZYUFsh/Ldy2OWkg0pIeWuBEnwtUJDMnZOJLf6erBZakQ8K3fhhedL1ATVIuMcJBaTjqgI1/pK7g3VEDBkjvqQvTPUh4GD5nasPM1gzvx92TZCU9L+35dXqkdogjLLhQO6RxVyNr5POHFA1X6oE4pt5SI2QuPAw36oNY9khrakOcRm/z4UbdkKwgpybI5BU2PfVCTARJWb8g5Z6G/lYfA+fWZhLZIbffo9D7RP7RqSXzpF5MoYR5jxPLWgi9ulYr63sOsjTrGCMXGT6NMt2zqEokMj1ZymHGoJfSTYhVyq2cQxiKwPtLyvirZGACxuge/fDy4w5WPr/74QHED0IZeIYS+aY7Qnmbt0Iuo5d/6M5CeMeGLi3Oo4YfHE5jm5sJVZ4ZBhBXN8mOriw69bgvc35+3jfnh0vPHgFeuIcLkEwaWGm0GgXosRJ6c/eiV7iEOiUwmBoPCa5nzagXE+qUZ/BKP3qucRVO5PLBK/mkY57h4054kzgR1EyJBUyoKM94vuQqo+eHfp5QlRv7uL4eoTz8UO/EnXpcOGXjRzaoTITS7ghcZbOoJnqcSy/UPdG7q+iYzNJ2JzFT2XvRwzBJ38Y3fNersT+boS8KC/cwPw8WH1WCdmhmxG8uLXXGpZHBCpQFOz0aV/j8eD8djUkaRiSQrLQJ3WWraiX3l+v4AkpIUYK5ziGhMf+4k6IczYv8Kir18zE3aYKmUA66v3uzjbOV/D40zbIgBaFfFEa3WbTAyu3p+o2mWZZ2/68qQCkWsUpZbd+gOWy60TKTsrpnUXVuqGK8C1cRwcYoX8U9KjEspGdI+IMSqnJ1dqK8yu84dWnOzyEp9rTg6Ja197S9YktzGLP53QQV5gLW0qo28uFODbSVJfyujcRs5gnMwtkgs9X5FIk1MCJr3E09v72awuXIQgIjGu/4LqN2zFSOCZg8I5mdVAVO/7SzCWF2P2/5hSGwEdLOxyYwUYJafmEInIWqyB84kqmRML+vF1yFcGCHiYWFdGDUFz+B+SwJCwK25k3cVsvCQQ9hKTjhmE34Ak3w0H8TmMcF6piDc/7kDtLseUtoNoHjxhkrTvqzyHw+UgXOtD22AQc0VOv/C4qxSVPG28GBH3hTRc4bZpvDJd/URfYXWWK7y8vqqLKO/Buv2G+CqknyD19xmc0MIuNpAAAAAElFTkSuQmCC;" parent="1" vertex="1">
          <mxGeometry x="10" y="320.00000000000006" width="66.75" height="60" as="geometry" />
        </mxCell>
        <mxCell id="b9mpuUr4YG4pDa8_JKQ_-17" value="azure - brazil south" style="shape=image;verticalLabelPosition=middle;labelBackgroundColor=default;verticalAlign=middle;aspect=fixed;imageAspect=0;image=https://cdn-icons-png.flaticon.com/512/873/873107.png;labelPosition=right;align=left;fontStyle=1;fontSize=23;" parent="1" vertex="1">
          <mxGeometry x="-380" y="-200" width="72" height="72" as="geometry" />
        </mxCell>
        <mxCell id="b9mpuUr4YG4pDa8_JKQ_-18" value="&lt;font style=&quot;font-size: 14px;&quot;&gt;management&lt;/font&gt;" style="sketch=0;aspect=fixed;html=1;points=[];align=center;image;fontSize=12;image=img/lib/mscae/Key.svg;fillColor=none;" parent="1" vertex="1">
          <mxGeometry x="-311.03" y="-98.75999999999999" width="17.06" height="27.52" as="geometry" />
        </mxCell>
        <mxCell id="sEhYkQHigQ03g9oe6o_F-7" style="edgeStyle=orthogonalEdgeStyle;rounded=0;orthogonalLoop=1;jettySize=auto;html=1;fontSize=14;" edge="1" parent="1" source="b9mpuUr4YG4pDa8_JKQ_-21" target="Y3XiVPChW9wHcSamb1J7-10">
          <mxGeometry relative="1" as="geometry" />
        </mxCell>
        <mxCell id="b9mpuUr4YG4pDa8_JKQ_-21" value="" style="shape=image;verticalLabelPosition=bottom;labelBackgroundColor=default;verticalAlign=top;aspect=fixed;imageAspect=0;image=data:image/png,iVBORw0KGgoAAAANSUhEUgAAAFkAAABQCAMAAABF2ilVAAAAAXNSR0IArs4c6QAAAARnQU1BAACxjwv8YQUAAABjUExURQAAAO+ce+6Zd+2Ycu+Ube6QaO2LYuyGXOyDV+t8Tup2RulwPehpM+ZgKeZXHeROEOJDAeRPEeZaIedmMelyQOt+UO2JYO+VcPGhgPKtkPS4oPbEsPjQv/rcz/vn3/3z7/////xrXpIAAAAQdFJOUwAfPFdwh5yvv87b5u/2+/6/gkQkAAAACXBIWXMAABcRAAAXEQHKJvM/AAAD7UlEQVRYR7WZbZuqIBCGdbNS09Rqq+1N//+vPCADAj4OuHud+0sK+kTDMDNQEsFmuy+q+thIjvWhzLMv6vkDaZZXTQs45Bk98hvSrISqmnJHD67kq2BlFcV6u2SHCF3JYZ1Vsorei6Ha0Fth0oLeiaWMtMku0g42e3qXIz3Qw+uog8POfjFgxZYUFsh/Ldy2OWkg0pIeWuBEnwtUJDMnZOJLf6erBZakQ8K3fhhedL1ATVIuMcJBaTjqgI1/pK7g3VEDBkjvqQvTPUh4GD5nasPM1gzvx92TZCU9L+35dXqkdogjLLhQO6RxVyNr5POHFA1X6oE4pt5SI2QuPAw36oNY9khrakOcRm/z4UbdkKwgpybI5BU2PfVCTARJWb8g5Z6G/lYfA+fWZhLZIbffo9D7RP7RqSXzpF5MoYR5jxPLWgi9ulYr63sOsjTrGCMXGT6NMt2zqEokMj1ZymHGoJfSTYhVyq2cQxiKwPtLyvirZGACxuge/fDy4w5WPr/74QHED0IZeIYS+aY7Qnmbt0Iuo5d/6M5CeMeGLi3Oo4YfHE5jm5sJVZ4ZBhBXN8mOriw69bgvc35+3jfnh0vPHgFeuIcLkEwaWGm0GgXosRJ6c/eiV7iEOiUwmBoPCa5nzagXE+qUZ/BKP3qucRVO5PLBK/mkY57h4054kzgR1EyJBUyoKM94vuQqo+eHfp5QlRv7uL4eoTz8UO/EnXpcOGXjRzaoTITS7ghcZbOoJnqcSy/UPdG7q+iYzNJ2JzFT2XvRwzBJ38Y3fNersT+boS8KC/cwPw8WH1WCdmhmxG8uLXXGpZHBCpQFOz0aV/j8eD8djUkaRiSQrLQJ3WWraiX3l+v4AkpIUYK5ziGhMf+4k6IczYv8Kir18zE3aYKmUA66v3uzjbOV/D40zbIgBaFfFEa3WbTAyu3p+o2mWZZ2/68qQCkWsUpZbd+gOWy60TKTsrpnUXVuqGK8C1cRwcYoX8U9KjEspGdI+IMSqnJ1dqK8yu84dWnOzyEp9rTg6Ja197S9YktzGLP53QQV5gLW0qo28uFODbSVJfyujcRs5gnMwtkgs9X5FIk1MCJr3E09v72awuXIQgIjGu/4LqN2zFSOCZg8I5mdVAVO/7SzCWF2P2/5hSGwEdLOxyYwUYJafmEInIWqyB84kqmRML+vF1yFcGCHiYWFdGDUFz+B+SwJCwK25k3cVsvCQQ9hKTjhmE34Ak3w0H8TmMcF6piDc/7kDtLseUtoNoHjxhkrTvqzyHw+UgXOtD22AQc0VOv/C4qxSVPG28GBH3hTRc4bZpvDJd/URfYXWWK7y8vqqLKO/Buv2G+CqknyD19xmc0MIuNpAAAAAElFTkSuQmCC;" parent="1" vertex="1">
          <mxGeometry x="60" y="320.00000000000006" width="66.75" height="60" as="geometry" />
        </mxCell>
        <mxCell id="FS_-1WMOX697l7iB9RfQ-2" style="edgeStyle=none;shape=link;rounded=0;orthogonalLoop=1;jettySize=auto;html=1;" parent="1" source="b9mpuUr4YG4pDa8_JKQ_-23" target="FS_-1WMOX697l7iB9RfQ-1" edge="1">
          <mxGeometry relative="1" as="geometry" />
        </mxCell>
        <mxCell id="Y3XiVPChW9wHcSamb1J7-2" style="edgeStyle=orthogonalEdgeStyle;shape=link;rounded=0;orthogonalLoop=1;jettySize=auto;html=1;fontSize=14;" edge="1" parent="1" source="b9mpuUr4YG4pDa8_JKQ_-23" target="Y3XiVPChW9wHcSamb1J7-1">
          <mxGeometry relative="1" as="geometry" />
        </mxCell>
        <mxCell id="Y3XiVPChW9wHcSamb1J7-16" style="edgeStyle=orthogonalEdgeStyle;shape=link;rounded=0;orthogonalLoop=1;jettySize=auto;html=1;fontSize=14;" edge="1" parent="1" source="b9mpuUr4YG4pDa8_JKQ_-23" target="Y3XiVPChW9wHcSamb1J7-15">
          <mxGeometry relative="1" as="geometry" />
        </mxCell>
        <mxCell id="b9mpuUr4YG4pDa8_JKQ_-23" value="" style="sketch=0;aspect=fixed;html=1;points=[];align=center;image;fontSize=12;image=img/lib/mscae/Express_Route.svg;dashed=1;fillColor=none;" parent="1" vertex="1">
          <mxGeometry x="330" y="510" width="60" height="36" as="geometry" />
        </mxCell>
        <mxCell id="Y3XiVPChW9wHcSamb1J7-6" value="Peering" style="edgeStyle=orthogonalEdgeStyle;shape=link;rounded=0;orthogonalLoop=1;jettySize=auto;html=1;entryX=0;entryY=0.5;entryDx=0;entryDy=0;fontSize=14;" edge="1" parent="1" source="b9mpuUr4YG4pDa8_JKQ_-24" target="Y3XiVPChW9wHcSamb1J7-3">
          <mxGeometry relative="1" as="geometry">
            <Array as="points">
              <mxPoint x="1120" y="370" />
            </Array>
          </mxGeometry>
        </mxCell>
        <mxCell id="b9mpuUr4YG4pDa8_JKQ_-29" value="" style="shape=image;verticalLabelPosition=bottom;labelBackgroundColor=default;verticalAlign=top;aspect=fixed;imageAspect=0;image=data:image/png,iVBORw0KGgoAAAANSUhEUgAAAFkAAABQCAMAAABF2ilVAAAAAXNSR0IArs4c6QAAAARnQU1BAACxjwv8YQUAAABjUExURQAAAO+ce+6Zd+2Ycu+Ube6QaO2LYuyGXOyDV+t8Tup2RulwPehpM+ZgKeZXHeROEOJDAeRPEeZaIedmMelyQOt+UO2JYO+VcPGhgPKtkPS4oPbEsPjQv/rcz/vn3/3z7/////xrXpIAAAAQdFJOUwAfPFdwh5yvv87b5u/2+/6/gkQkAAAACXBIWXMAABcRAAAXEQHKJvM/AAAD7UlEQVRYR7WZbZuqIBCGdbNS09Rqq+1N//+vPCADAj4OuHud+0sK+kTDMDNQEsFmuy+q+thIjvWhzLMv6vkDaZZXTQs45Bk98hvSrISqmnJHD67kq2BlFcV6u2SHCF3JYZ1Vsorei6Ha0Fth0oLeiaWMtMku0g42e3qXIz3Qw+uog8POfjFgxZYUFsh/Ldy2OWkg0pIeWuBEnwtUJDMnZOJLf6erBZakQ8K3fhhedL1ATVIuMcJBaTjqgI1/pK7g3VEDBkjvqQvTPUh4GD5nasPM1gzvx92TZCU9L+35dXqkdogjLLhQO6RxVyNr5POHFA1X6oE4pt5SI2QuPAw36oNY9khrakOcRm/z4UbdkKwgpybI5BU2PfVCTARJWb8g5Z6G/lYfA+fWZhLZIbffo9D7RP7RqSXzpF5MoYR5jxPLWgi9ulYr63sOsjTrGCMXGT6NMt2zqEokMj1ZymHGoJfSTYhVyq2cQxiKwPtLyvirZGACxuge/fDy4w5WPr/74QHED0IZeIYS+aY7Qnmbt0Iuo5d/6M5CeMeGLi3Oo4YfHE5jm5sJVZ4ZBhBXN8mOriw69bgvc35+3jfnh0vPHgFeuIcLkEwaWGm0GgXosRJ6c/eiV7iEOiUwmBoPCa5nzagXE+qUZ/BKP3qucRVO5PLBK/mkY57h4054kzgR1EyJBUyoKM94vuQqo+eHfp5QlRv7uL4eoTz8UO/EnXpcOGXjRzaoTITS7ghcZbOoJnqcSy/UPdG7q+iYzNJ2JzFT2XvRwzBJ38Y3fNersT+boS8KC/cwPw8WH1WCdmhmxG8uLXXGpZHBCpQFOz0aV/j8eD8djUkaRiSQrLQJ3WWraiX3l+v4AkpIUYK5ziGhMf+4k6IczYv8Kir18zE3aYKmUA66v3uzjbOV/D40zbIgBaFfFEa3WbTAyu3p+o2mWZZ2/68qQCkWsUpZbd+gOWy60TKTsrpnUXVuqGK8C1cRwcYoX8U9KjEspGdI+IMSqnJ1dqK8yu84dWnOzyEp9rTg6Ja197S9YktzGLP53QQV5gLW0qo28uFODbSVJfyujcRs5gnMwtkgs9X5FIk1MCJr3E09v72awuXIQgIjGu/4LqN2zFSOCZg8I5mdVAVO/7SzCWF2P2/5hSGwEdLOxyYwUYJafmEInIWqyB84kqmRML+vF1yFcGCHiYWFdGDUFz+B+SwJCwK25k3cVsvCQQ9hKTjhmE34Ak3w0H8TmMcF6piDc/7kDtLseUtoNoHjxhkrTvqzyHw+UgXOtD22AQc0VOv/C4qxSVPG28GBH3hTRc4bZpvDJd/URfYXWWK7y8vqqLKO/Buv2G+CqknyD19xmc0MIuNpAAAAAElFTkSuQmCC;" parent="1" vertex="1">
          <mxGeometry x="860" y="320" width="66.75" height="60" as="geometry" />
        </mxCell>
        <mxCell id="b9mpuUr4YG4pDa8_JKQ_-30" value="azure - south central us" style="shape=image;verticalLabelPosition=middle;labelBackgroundColor=default;verticalAlign=middle;aspect=fixed;imageAspect=0;image=https://cdn-icons-png.flaticon.com/512/873/873107.png;labelPosition=right;align=left;horizontal=1;fontSize=23;fontStyle=1" parent="1" vertex="1">
          <mxGeometry x="650" y="-200" width="72" height="72" as="geometry" />
        </mxCell>
        <mxCell id="sEhYkQHigQ03g9oe6o_F-14" style="edgeStyle=orthogonalEdgeStyle;rounded=0;orthogonalLoop=1;jettySize=auto;html=1;entryX=0;entryY=0.5;entryDx=0;entryDy=0;fontSize=14;" edge="1" parent="1" source="b9mpuUr4YG4pDa8_JKQ_-33" target="Y3XiVPChW9wHcSamb1J7-12">
          <mxGeometry relative="1" as="geometry">
            <Array as="points">
              <mxPoint x="843" y="400" />
              <mxPoint x="945" y="400" />
            </Array>
          </mxGeometry>
        </mxCell>
        <mxCell id="sEhYkQHigQ03g9oe6o_F-66" style="edgeStyle=orthogonalEdgeStyle;shape=link;rounded=0;orthogonalLoop=1;jettySize=auto;html=1;entryX=0.75;entryY=1;entryDx=0;entryDy=0;fontSize=14;" edge="1" parent="1" source="b9mpuUr4YG4pDa8_JKQ_-33" target="b9mpuUr4YG4pDa8_JKQ_-3">
          <mxGeometry relative="1" as="geometry">
            <Array as="points">
              <mxPoint x="843" y="490" />
              <mxPoint x="60" y="490" />
            </Array>
          </mxGeometry>
        </mxCell>
        <mxCell id="b9mpuUr4YG4pDa8_JKQ_-33" value="" style="shape=image;verticalLabelPosition=bottom;labelBackgroundColor=default;verticalAlign=top;aspect=fixed;imageAspect=0;image=data:image/png,iVBORw0KGgoAAAANSUhEUgAAAFkAAABQCAMAAABF2ilVAAAAAXNSR0IArs4c6QAAAARnQU1BAACxjwv8YQUAAABjUExURQAAAO+ce+6Zd+2Ycu+Ube6QaO2LYuyGXOyDV+t8Tup2RulwPehpM+ZgKeZXHeROEOJDAeRPEeZaIedmMelyQOt+UO2JYO+VcPGhgPKtkPS4oPbEsPjQv/rcz/vn3/3z7/////xrXpIAAAAQdFJOUwAfPFdwh5yvv87b5u/2+/6/gkQkAAAACXBIWXMAABcRAAAXEQHKJvM/AAAD7UlEQVRYR7WZbZuqIBCGdbNS09Rqq+1N//+vPCADAj4OuHud+0sK+kTDMDNQEsFmuy+q+thIjvWhzLMv6vkDaZZXTQs45Bk98hvSrISqmnJHD67kq2BlFcV6u2SHCF3JYZ1Vsorei6Ha0Fth0oLeiaWMtMku0g42e3qXIz3Qw+uog8POfjFgxZYUFsh/Ldy2OWkg0pIeWuBEnwtUJDMnZOJLf6erBZakQ8K3fhhedL1ATVIuMcJBaTjqgI1/pK7g3VEDBkjvqQvTPUh4GD5nasPM1gzvx92TZCU9L+35dXqkdogjLLhQO6RxVyNr5POHFA1X6oE4pt5SI2QuPAw36oNY9khrakOcRm/z4UbdkKwgpybI5BU2PfVCTARJWb8g5Z6G/lYfA+fWZhLZIbffo9D7RP7RqSXzpF5MoYR5jxPLWgi9ulYr63sOsjTrGCMXGT6NMt2zqEokMj1ZymHGoJfSTYhVyq2cQxiKwPtLyvirZGACxuge/fDy4w5WPr/74QHED0IZeIYS+aY7Qnmbt0Iuo5d/6M5CeMeGLi3Oo4YfHE5jm5sJVZ4ZBhBXN8mOriw69bgvc35+3jfnh0vPHgFeuIcLkEwaWGm0GgXosRJ6c/eiV7iEOiUwmBoPCa5nzagXE+qUZ/BKP3qucRVO5PLBK/mkY57h4054kzgR1EyJBUyoKM94vuQqo+eHfp5QlRv7uL4eoTz8UO/EnXpcOGXjRzaoTITS7ghcZbOoJnqcSy/UPdG7q+iYzNJ2JzFT2XvRwzBJ38Y3fNersT+boS8KC/cwPw8WH1WCdmhmxG8uLXXGpZHBCpQFOz0aV/j8eD8djUkaRiSQrLQJ3WWraiX3l+v4AkpIUYK5ziGhMf+4k6IczYv8Kir18zE3aYKmUA66v3uzjbOV/D40zbIgBaFfFEa3WbTAyu3p+o2mWZZ2/68qQCkWsUpZbd+gOWy60TKTsrpnUXVuqGK8C1cRwcYoX8U9KjEspGdI+IMSqnJ1dqK8yu84dWnOzyEp9rTg6Ja197S9YktzGLP53QQV5gLW0qo28uFODbSVJfyujcRs5gnMwtkgs9X5FIk1MCJr3E09v72awuXIQgIjGu/4LqN2zFSOCZg8I5mdVAVO/7SzCWF2P2/5hSGwEdLOxyYwUYJafmEInIWqyB84kqmRML+vF1yFcGCHiYWFdGDUFz+B+SwJCwK25k3cVsvCQQ9hKTjhmE34Ak3w0H8TmMcF6piDc/7kDtLseUtoNoHjxhkrTvqzyHw+UgXOtD22AQc0VOv/C4qxSVPG28GBH3hTRc4bZpvDJd/URfYXWWK7y8vqqLKO/Buv2G+CqknyD19xmc0MIuNpAAAAAElFTkSuQmCC;" parent="1" vertex="1">
          <mxGeometry x="809.62" y="320" width="66.75" height="60" as="geometry" />
        </mxCell>
        <mxCell id="4UvA96HoZH6xj2zGipEI-1" value="" style="rounded=1;whiteSpace=wrap;html=1;absoluteArcSize=1;arcSize=14;strokeWidth=2;fillColor=none;" parent="1" vertex="1">
          <mxGeometry x="1330" y="-128" width="300" height="428" as="geometry" />
        </mxCell>
        <mxCell id="b9mpuUr4YG4pDa8_JKQ_-36" value="&lt;font style=&quot;font-size: 14px;&quot;&gt;sharedservices&lt;/font&gt;" style="rounded=1;whiteSpace=wrap;html=1;absoluteArcSize=1;arcSize=14;strokeWidth=2;fillColor=none;verticalAlign=top;labelPosition=center;verticalLabelPosition=bottom;align=center;dashed=1;fontSize=18;" parent="1" vertex="1">
          <mxGeometry x="350" y="-110" width="270" height="340" as="geometry" />
        </mxCell>
        <mxCell id="b9mpuUr4YG4pDa8_JKQ_-37" value="100.65.0.0/16" style="aspect=fixed;html=1;points=[];align=center;image;fontSize=16;image=img/lib/azure2/networking/Virtual_Networks.svg;dashed=1;fillColor=none;" parent="1" vertex="1">
          <mxGeometry x="-200" y="-93.76" width="67" height="40" as="geometry" />
        </mxCell>
        <mxCell id="b9mpuUr4YG4pDa8_JKQ_-38" value="&lt;font style=&quot;font-size: 14px;&quot;&gt;100.64.0.0/16&lt;/font&gt;" style="aspect=fixed;html=1;points=[];align=center;image;fontSize=16;image=img/lib/azure2/networking/Virtual_Networks.svg;dashed=1;fillColor=none;" parent="1" vertex="1">
          <mxGeometry x="730" y="-93.76" width="67" height="40" as="geometry" />
        </mxCell>
        <mxCell id="FS_-1WMOX697l7iB9RfQ-1" value="&lt;font style=&quot;font-size: 14px;&quot;&gt;&lt;span style=&quot;background-color: rgb(255, 255, 255);&quot;&gt;On-premises&lt;br&gt;RFC&lt;br&gt;10.0.0.0/8&lt;br&gt;172.16.0.0/12&lt;br&gt;192.168.0.0/16&lt;/span&gt;&lt;br&gt;&lt;/font&gt;" style="sketch=0;outlineConnect=0;fontColor=#232F3E;gradientColor=none;fillColor=#232F3D;strokeColor=none;dashed=0;verticalLabelPosition=bottom;verticalAlign=top;align=center;html=1;fontSize=12;fontStyle=0;aspect=fixed;pointerEvents=1;shape=mxgraph.aws4.office_building;" parent="1" vertex="1">
          <mxGeometry x="325.39" y="610" width="69.23" height="108" as="geometry" />
        </mxCell>
        <mxCell id="9LsAEqxE2V8G5aKE_dZt-1" value="" style="shape=image;verticalLabelPosition=bottom;labelBackgroundColor=default;verticalAlign=top;aspect=fixed;imageAspect=0;image=https://www.vectorlogo.zone/logos/terraformio/terraformio-ar21.png;" parent="1" vertex="1">
          <mxGeometry x="-341.54" y="172.37" width="79.75" height="39.88" as="geometry" />
        </mxCell>
        <mxCell id="4UvA96HoZH6xj2zGipEI-2" value="&lt;font style=&quot;font-size: 14px;&quot;&gt;brewzone 2 -&amp;nbsp; prd&lt;/font&gt;" style="rounded=1;whiteSpace=wrap;html=1;absoluteArcSize=1;arcSize=14;strokeWidth=2;fillColor=none;verticalAlign=top;labelPosition=center;verticalLabelPosition=bottom;align=center;dashed=1;" parent="1" vertex="1">
          <mxGeometry x="1345" y="-110" width="270" height="340" as="geometry" />
        </mxCell>
        <mxCell id="4UvA96HoZH6xj2zGipEI-3" value="&lt;span style=&quot;background-color: rgb(255, 255, 255);&quot;&gt;&lt;font style=&quot;font-size: 14px;&quot;&gt;100.65.0.0/16&lt;/font&gt;&lt;/span&gt;" style="outlineConnect=0;dashed=0;verticalLabelPosition=bottom;verticalAlign=top;align=center;html=1;shape=mxgraph.aws3.vpc_peering;fillColor=#F58534;gradientColor=none;" parent="1" vertex="1">
          <mxGeometry x="1380" y="-98.76" width="50" height="50" as="geometry" />
        </mxCell>
        <mxCell id="4UvA96HoZH6xj2zGipEI-4" value="100.66.0.0/16" style="aspect=fixed;html=1;points=[];align=center;image;fontSize=16;image=img/lib/azure2/networking/Virtual_Networks.svg;dashed=1;fillColor=none;" parent="1" vertex="1">
          <mxGeometry x="90" y="-93.76" width="67" height="40" as="geometry" />
        </mxCell>
        <mxCell id="4UvA96HoZH6xj2zGipEI-5" value="100.64.0.0/16" style="aspect=fixed;html=1;points=[];align=center;image;fontSize=16;image=img/lib/azure2/networking/Virtual_Networks.svg;dashed=1;fillColor=none;" parent="1" vertex="1">
          <mxGeometry x="380" y="-93.76" width="67" height="40" as="geometry" />
        </mxCell>
        <mxCell id="pJVExOcaXSI0J4Hgegi3-3" style="edgeStyle=orthogonalEdgeStyle;rounded=0;orthogonalLoop=1;jettySize=auto;html=1;" edge="1" parent="1" source="ZjZ7cMIAm1SvYH2-eqid-1" target="pJVExOcaXSI0J4Hgegi3-1">
          <mxGeometry relative="1" as="geometry" />
        </mxCell>
        <mxCell id="sEhYkQHigQ03g9oe6o_F-52" style="edgeStyle=none;shape=link;rounded=0;orthogonalLoop=1;jettySize=auto;html=1;fontSize=14;" edge="1" parent="1" source="ZjZ7cMIAm1SvYH2-eqid-1" target="b9mpuUr4YG4pDa8_JKQ_-3">
          <mxGeometry relative="1" as="geometry" />
        </mxCell>
        <mxCell id="sEhYkQHigQ03g9oe6o_F-54" style="edgeStyle=none;shape=link;rounded=0;orthogonalLoop=1;jettySize=auto;html=1;fontSize=14;" edge="1" parent="1" source="ZjZ7cMIAm1SvYH2-eqid-1" target="b9mpuUr4YG4pDa8_JKQ_-21">
          <mxGeometry relative="1" as="geometry" />
        </mxCell>
        <mxCell id="ZjZ7cMIAm1SvYH2-eqid-1" value="" style="shape=image;verticalLabelPosition=bottom;labelBackgroundColor=default;verticalAlign=top;aspect=fixed;imageAspect=0;image=data:image/png,iVBORw0KGgoAAAANSUhEUgAAAFkAAABQCAMAAABF2ilVAAAAAXNSR0IArs4c6QAAAARnQU1BAACxjwv8YQUAAABjUExURQAAAO+ce+6Zd+2Ycu+Ube6QaO2LYuyGXOyDV+t8Tup2RulwPehpM+ZgKeZXHeROEOJDAeRPEeZaIedmMelyQOt+UO2JYO+VcPGhgPKtkPS4oPbEsPjQv/rcz/vn3/3z7/////xrXpIAAAAQdFJOUwAfPFdwh5yvv87b5u/2+/6/gkQkAAAACXBIWXMAABcRAAAXEQHKJvM/AAAD7UlEQVRYR7WZbZuqIBCGdbNS09Rqq+1N//+vPCADAj4OuHud+0sK+kTDMDNQEsFmuy+q+thIjvWhzLMv6vkDaZZXTQs45Bk98hvSrISqmnJHD67kq2BlFcV6u2SHCF3JYZ1Vsorei6Ha0Fth0oLeiaWMtMku0g42e3qXIz3Qw+uog8POfjFgxZYUFsh/Ldy2OWkg0pIeWuBEnwtUJDMnZOJLf6erBZakQ8K3fhhedL1ATVIuMcJBaTjqgI1/pK7g3VEDBkjvqQvTPUh4GD5nasPM1gzvx92TZCU9L+35dXqkdogjLLhQO6RxVyNr5POHFA1X6oE4pt5SI2QuPAw36oNY9khrakOcRm/z4UbdkKwgpybI5BU2PfVCTARJWb8g5Z6G/lYfA+fWZhLZIbffo9D7RP7RqSXzpF5MoYR5jxPLWgi9ulYr63sOsjTrGCMXGT6NMt2zqEokMj1ZymHGoJfSTYhVyq2cQxiKwPtLyvirZGACxuge/fDy4w5WPr/74QHED0IZeIYS+aY7Qnmbt0Iuo5d/6M5CeMeGLi3Oo4YfHE5jm5sJVZ4ZBhBXN8mOriw69bgvc35+3jfnh0vPHgFeuIcLkEwaWGm0GgXosRJ6c/eiV7iEOiUwmBoPCa5nzagXE+qUZ/BKP3qucRVO5PLBK/mkY57h4054kzgR1EyJBUyoKM94vuQqo+eHfp5QlRv7uL4eoTz8UO/EnXpcOGXjRzaoTITS7ghcZbOoJnqcSy/UPdG7q+iYzNJ2JzFT2XvRwzBJ38Y3fNersT+boS8KC/cwPw8WH1WCdmhmxG8uLXXGpZHBCpQFOz0aV/j8eD8djUkaRiSQrLQJ3WWraiX3l+v4AkpIUYK5ziGhMf+4k6IczYv8Kir18zE3aYKmUA66v3uzjbOV/D40zbIgBaFfFEa3WbTAyu3p+o2mWZZ2/68qQCkWsUpZbd+gOWy60TKTsrpnUXVuqGK8C1cRwcYoX8U9KjEspGdI+IMSqnJ1dqK8yu84dWnOzyEp9rTg6Ja197S9YktzGLP53QQV5gLW0qo28uFODbSVJfyujcRs5gnMwtkgs9X5FIk1MCJr3E09v72awuXIQgIjGu/4LqN2zFSOCZg8I5mdVAVO/7SzCWF2P2/5hSGwEdLOxyYwUYJafmEInIWqyB84kqmRML+vF1yFcGCHiYWFdGDUFz+B+SwJCwK25k3cVsvCQQ9hKTjhmE34Ak3w0H8TmMcF6piDc/7kDtLseUtoNoHjxhkrTvqzyHw+UgXOtD22AQc0VOv/C4qxSVPG28GBH3hTRc4bZpvDJd/URfYXWWK7y8vqqLKO/Buv2G+CqknyD19xmc0MIuNpAAAAAElFTkSuQmCC;" vertex="1" parent="1">
          <mxGeometry x="-160" y="130" width="66.75" height="60" as="geometry" />
        </mxCell>
        <mxCell id="pJVExOcaXSI0J4Hgegi3-2" style="edgeStyle=orthogonalEdgeStyle;rounded=0;orthogonalLoop=1;jettySize=auto;html=1;" edge="1" parent="1" source="ZjZ7cMIAm1SvYH2-eqid-2" target="pJVExOcaXSI0J4Hgegi3-1">
          <mxGeometry relative="1" as="geometry" />
        </mxCell>
        <mxCell id="Y3XiVPChW9wHcSamb1J7-18" style="edgeStyle=orthogonalEdgeStyle;rounded=0;orthogonalLoop=1;jettySize=auto;html=1;fontSize=14;" edge="1" parent="1" source="ZjZ7cMIAm1SvYH2-eqid-2" target="Y3XiVPChW9wHcSamb1J7-17">
          <mxGeometry relative="1" as="geometry" />
        </mxCell>
        <mxCell id="sEhYkQHigQ03g9oe6o_F-53" style="edgeStyle=none;shape=link;rounded=0;orthogonalLoop=1;jettySize=auto;html=1;fontSize=14;" edge="1" parent="1" source="ZjZ7cMIAm1SvYH2-eqid-2" target="b9mpuUr4YG4pDa8_JKQ_-3">
          <mxGeometry relative="1" as="geometry" />
        </mxCell>
        <mxCell id="sEhYkQHigQ03g9oe6o_F-55" style="edgeStyle=none;shape=link;rounded=0;orthogonalLoop=1;jettySize=auto;html=1;fontSize=14;" edge="1" parent="1" source="ZjZ7cMIAm1SvYH2-eqid-2" target="b9mpuUr4YG4pDa8_JKQ_-21">
          <mxGeometry relative="1" as="geometry" />
        </mxCell>
        <mxCell id="ZjZ7cMIAm1SvYH2-eqid-2" value="" style="shape=image;verticalLabelPosition=bottom;labelBackgroundColor=default;verticalAlign=top;aspect=fixed;imageAspect=0;image=data:image/png,iVBORw0KGgoAAAANSUhEUgAAAFkAAABQCAMAAABF2ilVAAAAAXNSR0IArs4c6QAAAARnQU1BAACxjwv8YQUAAABjUExURQAAAO+ce+6Zd+2Ycu+Ube6QaO2LYuyGXOyDV+t8Tup2RulwPehpM+ZgKeZXHeROEOJDAeRPEeZaIedmMelyQOt+UO2JYO+VcPGhgPKtkPS4oPbEsPjQv/rcz/vn3/3z7/////xrXpIAAAAQdFJOUwAfPFdwh5yvv87b5u/2+/6/gkQkAAAACXBIWXMAABcRAAAXEQHKJvM/AAAD7UlEQVRYR7WZbZuqIBCGdbNS09Rqq+1N//+vPCADAj4OuHud+0sK+kTDMDNQEsFmuy+q+thIjvWhzLMv6vkDaZZXTQs45Bk98hvSrISqmnJHD67kq2BlFcV6u2SHCF3JYZ1Vsorei6Ha0Fth0oLeiaWMtMku0g42e3qXIz3Qw+uog8POfjFgxZYUFsh/Ldy2OWkg0pIeWuBEnwtUJDMnZOJLf6erBZakQ8K3fhhedL1ATVIuMcJBaTjqgI1/pK7g3VEDBkjvqQvTPUh4GD5nasPM1gzvx92TZCU9L+35dXqkdogjLLhQO6RxVyNr5POHFA1X6oE4pt5SI2QuPAw36oNY9khrakOcRm/z4UbdkKwgpybI5BU2PfVCTARJWb8g5Z6G/lYfA+fWZhLZIbffo9D7RP7RqSXzpF5MoYR5jxPLWgi9ulYr63sOsjTrGCMXGT6NMt2zqEokMj1ZymHGoJfSTYhVyq2cQxiKwPtLyvirZGACxuge/fDy4w5WPr/74QHED0IZeIYS+aY7Qnmbt0Iuo5d/6M5CeMeGLi3Oo4YfHE5jm5sJVZ4ZBhBXN8mOriw69bgvc35+3jfnh0vPHgFeuIcLkEwaWGm0GgXosRJ6c/eiV7iEOiUwmBoPCa5nzagXE+qUZ/BKP3qucRVO5PLBK/mkY57h4054kzgR1EyJBUyoKM94vuQqo+eHfp5QlRv7uL4eoTz8UO/EnXpcOGXjRzaoTITS7ghcZbOoJnqcSy/UPdG7q+iYzNJ2JzFT2XvRwzBJ38Y3fNersT+boS8KC/cwPw8WH1WCdmhmxG8uLXXGpZHBCpQFOz0aV/j8eD8djUkaRiSQrLQJ3WWraiX3l+v4AkpIUYK5ziGhMf+4k6IczYv8Kir18zE3aYKmUA66v3uzjbOV/D40zbIgBaFfFEa3WbTAyu3p+o2mWZZ2/68qQCkWsUpZbd+gOWy60TKTsrpnUXVuqGK8C1cRwcYoX8U9KjEspGdI+IMSqnJ1dqK8yu84dWnOzyEp9rTg6Ja197S9YktzGLP53QQV5gLW0qo28uFODbSVJfyujcRs5gnMwtkgs9X5FIk1MCJr3E09v72awuXIQgIjGu/4LqN2zFSOCZg8I5mdVAVO/7SzCWF2P2/5hSGwEdLOxyYwUYJafmEInIWqyB84kqmRML+vF1yFcGCHiYWFdGDUFz+B+SwJCwK25k3cVsvCQQ9hKTjhmE34Ak3w0H8TmMcF6piDc/7kDtLseUtoNoHjxhkrTvqzyHw+UgXOtD22AQc0VOv/C4qxSVPG28GBH3hTRc4bZpvDJd/URfYXWWK7y8vqqLKO/Buv2G+CqknyD19xmc0MIuNpAAAAAElFTkSuQmCC;" vertex="1" parent="1">
          <mxGeometry x="-120" y="130" width="70" height="62.92" as="geometry" />
        </mxCell>
        <mxCell id="sEhYkQHigQ03g9oe6o_F-32" style="edgeStyle=orthogonalEdgeStyle;rounded=0;orthogonalLoop=1;jettySize=auto;html=1;fontSize=14;" edge="1" parent="1" source="ZjZ7cMIAm1SvYH2-eqid-3" target="sEhYkQHigQ03g9oe6o_F-18">
          <mxGeometry relative="1" as="geometry" />
        </mxCell>
        <mxCell id="sEhYkQHigQ03g9oe6o_F-57" style="edgeStyle=none;shape=link;rounded=0;orthogonalLoop=1;jettySize=auto;html=1;entryX=0.449;entryY=0;entryDx=0;entryDy=0;entryPerimeter=0;fontSize=14;" edge="1" parent="1" source="ZjZ7cMIAm1SvYH2-eqid-3" target="b9mpuUr4YG4pDa8_JKQ_-3">
          <mxGeometry relative="1" as="geometry" />
        </mxCell>
        <mxCell id="sEhYkQHigQ03g9oe6o_F-58" style="edgeStyle=none;shape=link;rounded=0;orthogonalLoop=1;jettySize=auto;html=1;fontSize=14;" edge="1" parent="1" source="ZjZ7cMIAm1SvYH2-eqid-3" target="b9mpuUr4YG4pDa8_JKQ_-21">
          <mxGeometry relative="1" as="geometry" />
        </mxCell>
        <mxCell id="ZjZ7cMIAm1SvYH2-eqid-3" value="" style="shape=image;verticalLabelPosition=bottom;labelBackgroundColor=default;verticalAlign=top;aspect=fixed;imageAspect=0;image=data:image/png,iVBORw0KGgoAAAANSUhEUgAAAFkAAABQCAMAAABF2ilVAAAAAXNSR0IArs4c6QAAAARnQU1BAACxjwv8YQUAAABjUExURQAAAO+ce+6Zd+2Ycu+Ube6QaO2LYuyGXOyDV+t8Tup2RulwPehpM+ZgKeZXHeROEOJDAeRPEeZaIedmMelyQOt+UO2JYO+VcPGhgPKtkPS4oPbEsPjQv/rcz/vn3/3z7/////xrXpIAAAAQdFJOUwAfPFdwh5yvv87b5u/2+/6/gkQkAAAACXBIWXMAABcRAAAXEQHKJvM/AAAD7UlEQVRYR7WZbZuqIBCGdbNS09Rqq+1N//+vPCADAj4OuHud+0sK+kTDMDNQEsFmuy+q+thIjvWhzLMv6vkDaZZXTQs45Bk98hvSrISqmnJHD67kq2BlFcV6u2SHCF3JYZ1Vsorei6Ha0Fth0oLeiaWMtMku0g42e3qXIz3Qw+uog8POfjFgxZYUFsh/Ldy2OWkg0pIeWuBEnwtUJDMnZOJLf6erBZakQ8K3fhhedL1ATVIuMcJBaTjqgI1/pK7g3VEDBkjvqQvTPUh4GD5nasPM1gzvx92TZCU9L+35dXqkdogjLLhQO6RxVyNr5POHFA1X6oE4pt5SI2QuPAw36oNY9khrakOcRm/z4UbdkKwgpybI5BU2PfVCTARJWb8g5Z6G/lYfA+fWZhLZIbffo9D7RP7RqSXzpF5MoYR5jxPLWgi9ulYr63sOsjTrGCMXGT6NMt2zqEokMj1ZymHGoJfSTYhVyq2cQxiKwPtLyvirZGACxuge/fDy4w5WPr/74QHED0IZeIYS+aY7Qnmbt0Iuo5d/6M5CeMeGLi3Oo4YfHE5jm5sJVZ4ZBhBXN8mOriw69bgvc35+3jfnh0vPHgFeuIcLkEwaWGm0GgXosRJ6c/eiV7iEOiUwmBoPCa5nzagXE+qUZ/BKP3qucRVO5PLBK/mkY57h4054kzgR1EyJBUyoKM94vuQqo+eHfp5QlRv7uL4eoTz8UO/EnXpcOGXjRzaoTITS7ghcZbOoJnqcSy/UPdG7q+iYzNJ2JzFT2XvRwzBJ38Y3fNersT+boS8KC/cwPw8WH1WCdmhmxG8uLXXGpZHBCpQFOz0aV/j8eD8djUkaRiSQrLQJ3WWraiX3l+v4AkpIUYK5ziGhMf+4k6IczYv8Kir18zE3aYKmUA66v3uzjbOV/D40zbIgBaFfFEa3WbTAyu3p+o2mWZZ2/68qQCkWsUpZbd+gOWy60TKTsrpnUXVuqGK8C1cRwcYoX8U9KjEspGdI+IMSqnJ1dqK8yu84dWnOzyEp9rTg6Ja197S9YktzGLP53QQV5gLW0qo28uFODbSVJfyujcRs5gnMwtkgs9X5FIk1MCJr3E09v72awuXIQgIjGu/4LqN2zFSOCZg8I5mdVAVO/7SzCWF2P2/5hSGwEdLOxyYwUYJafmEInIWqyB84kqmRML+vF1yFcGCHiYWFdGDUFz+B+SwJCwK25k3cVsvCQQ9hKTjhmE34Ak3w0H8TmMcF6piDc/7kDtLseUtoNoHjxhkrTvqzyHw+UgXOtD22AQc0VOv/C4qxSVPG28GBH3hTRc4bZpvDJd/URfYXWWK7y8vqqLKO/Buv2G+CqknyD19xmc0MIuNpAAAAAElFTkSuQmCC;" vertex="1" parent="1">
          <mxGeometry x="130" y="130" width="66.75" height="60" as="geometry" />
        </mxCell>
        <mxCell id="sEhYkQHigQ03g9oe6o_F-33" style="edgeStyle=orthogonalEdgeStyle;rounded=0;orthogonalLoop=1;jettySize=auto;html=1;fontSize=14;" edge="1" parent="1" source="ZjZ7cMIAm1SvYH2-eqid-4" target="sEhYkQHigQ03g9oe6o_F-18">
          <mxGeometry relative="1" as="geometry" />
        </mxCell>
        <mxCell id="sEhYkQHigQ03g9oe6o_F-34" style="edgeStyle=orthogonalEdgeStyle;rounded=0;orthogonalLoop=1;jettySize=auto;html=1;fontSize=14;" edge="1" parent="1" source="ZjZ7cMIAm1SvYH2-eqid-4" target="sEhYkQHigQ03g9oe6o_F-19">
          <mxGeometry relative="1" as="geometry" />
        </mxCell>
        <mxCell id="sEhYkQHigQ03g9oe6o_F-59" style="edgeStyle=none;shape=link;rounded=0;orthogonalLoop=1;jettySize=auto;html=1;entryX=0.5;entryY=0;entryDx=0;entryDy=0;fontSize=14;" edge="1" parent="1" source="ZjZ7cMIAm1SvYH2-eqid-4" target="b9mpuUr4YG4pDa8_JKQ_-3">
          <mxGeometry relative="1" as="geometry" />
        </mxCell>
        <mxCell id="sEhYkQHigQ03g9oe6o_F-60" style="edgeStyle=none;shape=link;rounded=0;orthogonalLoop=1;jettySize=auto;html=1;fontSize=14;" edge="1" parent="1" source="ZjZ7cMIAm1SvYH2-eqid-4" target="b9mpuUr4YG4pDa8_JKQ_-21">
          <mxGeometry relative="1" as="geometry" />
        </mxCell>
        <mxCell id="ZjZ7cMIAm1SvYH2-eqid-4" value="" style="shape=image;verticalLabelPosition=bottom;labelBackgroundColor=default;verticalAlign=top;aspect=fixed;imageAspect=0;image=data:image/png,iVBORw0KGgoAAAANSUhEUgAAAFkAAABQCAMAAABF2ilVAAAAAXNSR0IArs4c6QAAAARnQU1BAACxjwv8YQUAAABjUExURQAAAO+ce+6Zd+2Ycu+Ube6QaO2LYuyGXOyDV+t8Tup2RulwPehpM+ZgKeZXHeROEOJDAeRPEeZaIedmMelyQOt+UO2JYO+VcPGhgPKtkPS4oPbEsPjQv/rcz/vn3/3z7/////xrXpIAAAAQdFJOUwAfPFdwh5yvv87b5u/2+/6/gkQkAAAACXBIWXMAABcRAAAXEQHKJvM/AAAD7UlEQVRYR7WZbZuqIBCGdbNS09Rqq+1N//+vPCADAj4OuHud+0sK+kTDMDNQEsFmuy+q+thIjvWhzLMv6vkDaZZXTQs45Bk98hvSrISqmnJHD67kq2BlFcV6u2SHCF3JYZ1Vsorei6Ha0Fth0oLeiaWMtMku0g42e3qXIz3Qw+uog8POfjFgxZYUFsh/Ldy2OWkg0pIeWuBEnwtUJDMnZOJLf6erBZakQ8K3fhhedL1ATVIuMcJBaTjqgI1/pK7g3VEDBkjvqQvTPUh4GD5nasPM1gzvx92TZCU9L+35dXqkdogjLLhQO6RxVyNr5POHFA1X6oE4pt5SI2QuPAw36oNY9khrakOcRm/z4UbdkKwgpybI5BU2PfVCTARJWb8g5Z6G/lYfA+fWZhLZIbffo9D7RP7RqSXzpF5MoYR5jxPLWgi9ulYr63sOsjTrGCMXGT6NMt2zqEokMj1ZymHGoJfSTYhVyq2cQxiKwPtLyvirZGACxuge/fDy4w5WPr/74QHED0IZeIYS+aY7Qnmbt0Iuo5d/6M5CeMeGLi3Oo4YfHE5jm5sJVZ4ZBhBXN8mOriw69bgvc35+3jfnh0vPHgFeuIcLkEwaWGm0GgXosRJ6c/eiV7iEOiUwmBoPCa5nzagXE+qUZ/BKP3qucRVO5PLBK/mkY57h4054kzgR1EyJBUyoKM94vuQqo+eHfp5QlRv7uL4eoTz8UO/EnXpcOGXjRzaoTITS7ghcZbOoJnqcSy/UPdG7q+iYzNJ2JzFT2XvRwzBJ38Y3fNersT+boS8KC/cwPw8WH1WCdmhmxG8uLXXGpZHBCpQFOz0aV/j8eD8djUkaRiSQrLQJ3WWraiX3l+v4AkpIUYK5ziGhMf+4k6IczYv8Kir18zE3aYKmUA66v3uzjbOV/D40zbIgBaFfFEa3WbTAyu3p+o2mWZZ2/68qQCkWsUpZbd+gOWy60TKTsrpnUXVuqGK8C1cRwcYoX8U9KjEspGdI+IMSqnJ1dqK8yu84dWnOzyEp9rTg6Ja197S9YktzGLP53QQV5gLW0qo28uFODbSVJfyujcRs5gnMwtkgs9X5FIk1MCJr3E09v72awuXIQgIjGu/4LqN2zFSOCZg8I5mdVAVO/7SzCWF2P2/5hSGwEdLOxyYwUYJafmEInIWqyB84kqmRML+vF1yFcGCHiYWFdGDUFz+B+SwJCwK25k3cVsvCQQ9hKTjhmE34Ak3w0H8TmMcF6piDc/7kDtLseUtoNoHjxhkrTvqzyHw+UgXOtD22AQc0VOv/C4qxSVPG28GBH3hTRc4bZpvDJd/URfYXWWK7y8vqqLKO/Buv2G+CqknyD19xmc0MIuNpAAAAAElFTkSuQmCC;" vertex="1" parent="1">
          <mxGeometry x="168.37" y="130" width="66.75" height="60" as="geometry" />
        </mxCell>
        <mxCell id="sEhYkQHigQ03g9oe6o_F-35" style="edgeStyle=orthogonalEdgeStyle;rounded=0;orthogonalLoop=1;jettySize=auto;html=1;fontSize=14;" edge="1" parent="1" source="ZjZ7cMIAm1SvYH2-eqid-5" target="sEhYkQHigQ03g9oe6o_F-20">
          <mxGeometry relative="1" as="geometry" />
        </mxCell>
        <mxCell id="sEhYkQHigQ03g9oe6o_F-62" style="edgeStyle=none;shape=link;rounded=0;orthogonalLoop=1;jettySize=auto;html=1;entryX=0.5;entryY=0;entryDx=0;entryDy=0;fontSize=14;" edge="1" parent="1" source="ZjZ7cMIAm1SvYH2-eqid-5" target="b9mpuUr4YG4pDa8_JKQ_-3">
          <mxGeometry relative="1" as="geometry" />
        </mxCell>
        <mxCell id="sEhYkQHigQ03g9oe6o_F-63" style="edgeStyle=none;shape=link;rounded=0;orthogonalLoop=1;jettySize=auto;html=1;entryX=0.5;entryY=0;entryDx=0;entryDy=0;fontSize=14;" edge="1" parent="1" source="ZjZ7cMIAm1SvYH2-eqid-5" target="b9mpuUr4YG4pDa8_JKQ_-21">
          <mxGeometry relative="1" as="geometry" />
        </mxCell>
        <mxCell id="ZjZ7cMIAm1SvYH2-eqid-5" value="" style="shape=image;verticalLabelPosition=bottom;labelBackgroundColor=default;verticalAlign=top;aspect=fixed;imageAspect=0;image=data:image/png,iVBORw0KGgoAAAANSUhEUgAAAFkAAABQCAMAAABF2ilVAAAAAXNSR0IArs4c6QAAAARnQU1BAACxjwv8YQUAAABjUExURQAAAO+ce+6Zd+2Ycu+Ube6QaO2LYuyGXOyDV+t8Tup2RulwPehpM+ZgKeZXHeROEOJDAeRPEeZaIedmMelyQOt+UO2JYO+VcPGhgPKtkPS4oPbEsPjQv/rcz/vn3/3z7/////xrXpIAAAAQdFJOUwAfPFdwh5yvv87b5u/2+/6/gkQkAAAACXBIWXMAABcRAAAXEQHKJvM/AAAD7UlEQVRYR7WZbZuqIBCGdbNS09Rqq+1N//+vPCADAj4OuHud+0sK+kTDMDNQEsFmuy+q+thIjvWhzLMv6vkDaZZXTQs45Bk98hvSrISqmnJHD67kq2BlFcV6u2SHCF3JYZ1Vsorei6Ha0Fth0oLeiaWMtMku0g42e3qXIz3Qw+uog8POfjFgxZYUFsh/Ldy2OWkg0pIeWuBEnwtUJDMnZOJLf6erBZakQ8K3fhhedL1ATVIuMcJBaTjqgI1/pK7g3VEDBkjvqQvTPUh4GD5nasPM1gzvx92TZCU9L+35dXqkdogjLLhQO6RxVyNr5POHFA1X6oE4pt5SI2QuPAw36oNY9khrakOcRm/z4UbdkKwgpybI5BU2PfVCTARJWb8g5Z6G/lYfA+fWZhLZIbffo9D7RP7RqSXzpF5MoYR5jxPLWgi9ulYr63sOsjTrGCMXGT6NMt2zqEokMj1ZymHGoJfSTYhVyq2cQxiKwPtLyvirZGACxuge/fDy4w5WPr/74QHED0IZeIYS+aY7Qnmbt0Iuo5d/6M5CeMeGLi3Oo4YfHE5jm5sJVZ4ZBhBXN8mOriw69bgvc35+3jfnh0vPHgFeuIcLkEwaWGm0GgXosRJ6c/eiV7iEOiUwmBoPCa5nzagXE+qUZ/BKP3qucRVO5PLBK/mkY57h4054kzgR1EyJBUyoKM94vuQqo+eHfp5QlRv7uL4eoTz8UO/EnXpcOGXjRzaoTITS7ghcZbOoJnqcSy/UPdG7q+iYzNJ2JzFT2XvRwzBJ38Y3fNersT+boS8KC/cwPw8WH1WCdmhmxG8uLXXGpZHBCpQFOz0aV/j8eD8djUkaRiSQrLQJ3WWraiX3l+v4AkpIUYK5ziGhMf+4k6IczYv8Kir18zE3aYKmUA66v3uzjbOV/D40zbIgBaFfFEa3WbTAyu3p+o2mWZZ2/68qQCkWsUpZbd+gOWy60TKTsrpnUXVuqGK8C1cRwcYoX8U9KjEspGdI+IMSqnJ1dqK8yu84dWnOzyEp9rTg6Ja197S9YktzGLP53QQV5gLW0qo28uFODbSVJfyujcRs5gnMwtkgs9X5FIk1MCJr3E09v72awuXIQgIjGu/4LqN2zFSOCZg8I5mdVAVO/7SzCWF2P2/5hSGwEdLOxyYwUYJafmEInIWqyB84kqmRML+vF1yFcGCHiYWFdGDUFz+B+SwJCwK25k3cVsvCQQ9hKTjhmE34Ak3w0H8TmMcF6piDc/7kDtLseUtoNoHjxhkrTvqzyHw+UgXOtD22AQc0VOv/C4qxSVPG28GBH3hTRc4bZpvDJd/URfYXWWK7y8vqqLKO/Buv2G+CqknyD19xmc0MIuNpAAAAAElFTkSuQmCC;" vertex="1" parent="1">
          <mxGeometry x="420" y="130" width="66.75" height="60" as="geometry" />
        </mxCell>
        <mxCell id="sEhYkQHigQ03g9oe6o_F-36" style="edgeStyle=orthogonalEdgeStyle;rounded=0;orthogonalLoop=1;jettySize=auto;html=1;fontSize=14;" edge="1" parent="1" source="ZjZ7cMIAm1SvYH2-eqid-6" target="sEhYkQHigQ03g9oe6o_F-20">
          <mxGeometry relative="1" as="geometry" />
        </mxCell>
        <mxCell id="sEhYkQHigQ03g9oe6o_F-37" style="edgeStyle=orthogonalEdgeStyle;rounded=0;orthogonalLoop=1;jettySize=auto;html=1;fontSize=14;" edge="1" parent="1" source="ZjZ7cMIAm1SvYH2-eqid-6" target="sEhYkQHigQ03g9oe6o_F-21">
          <mxGeometry relative="1" as="geometry" />
        </mxCell>
        <mxCell id="sEhYkQHigQ03g9oe6o_F-64" style="edgeStyle=none;shape=link;rounded=0;orthogonalLoop=1;jettySize=auto;html=1;entryX=0.5;entryY=0;entryDx=0;entryDy=0;fontSize=14;" edge="1" parent="1" source="ZjZ7cMIAm1SvYH2-eqid-6" target="b9mpuUr4YG4pDa8_JKQ_-3">
          <mxGeometry relative="1" as="geometry" />
        </mxCell>
        <mxCell id="sEhYkQHigQ03g9oe6o_F-65" style="edgeStyle=none;shape=link;rounded=0;orthogonalLoop=1;jettySize=auto;html=1;entryX=0.5;entryY=0;entryDx=0;entryDy=0;fontSize=14;" edge="1" parent="1" source="ZjZ7cMIAm1SvYH2-eqid-6" target="b9mpuUr4YG4pDa8_JKQ_-21">
          <mxGeometry relative="1" as="geometry" />
        </mxCell>
        <mxCell id="ZjZ7cMIAm1SvYH2-eqid-6" value="" style="shape=image;verticalLabelPosition=bottom;labelBackgroundColor=default;verticalAlign=top;aspect=fixed;imageAspect=0;image=data:image/png,iVBORw0KGgoAAAANSUhEUgAAAFkAAABQCAMAAABF2ilVAAAAAXNSR0IArs4c6QAAAARnQU1BAACxjwv8YQUAAABjUExURQAAAO+ce+6Zd+2Ycu+Ube6QaO2LYuyGXOyDV+t8Tup2RulwPehpM+ZgKeZXHeROEOJDAeRPEeZaIedmMelyQOt+UO2JYO+VcPGhgPKtkPS4oPbEsPjQv/rcz/vn3/3z7/////xrXpIAAAAQdFJOUwAfPFdwh5yvv87b5u/2+/6/gkQkAAAACXBIWXMAABcRAAAXEQHKJvM/AAAD7UlEQVRYR7WZbZuqIBCGdbNS09Rqq+1N//+vPCADAj4OuHud+0sK+kTDMDNQEsFmuy+q+thIjvWhzLMv6vkDaZZXTQs45Bk98hvSrISqmnJHD67kq2BlFcV6u2SHCF3JYZ1Vsorei6Ha0Fth0oLeiaWMtMku0g42e3qXIz3Qw+uog8POfjFgxZYUFsh/Ldy2OWkg0pIeWuBEnwtUJDMnZOJLf6erBZakQ8K3fhhedL1ATVIuMcJBaTjqgI1/pK7g3VEDBkjvqQvTPUh4GD5nasPM1gzvx92TZCU9L+35dXqkdogjLLhQO6RxVyNr5POHFA1X6oE4pt5SI2QuPAw36oNY9khrakOcRm/z4UbdkKwgpybI5BU2PfVCTARJWb8g5Z6G/lYfA+fWZhLZIbffo9D7RP7RqSXzpF5MoYR5jxPLWgi9ulYr63sOsjTrGCMXGT6NMt2zqEokMj1ZymHGoJfSTYhVyq2cQxiKwPtLyvirZGACxuge/fDy4w5WPr/74QHED0IZeIYS+aY7Qnmbt0Iuo5d/6M5CeMeGLi3Oo4YfHE5jm5sJVZ4ZBhBXN8mOriw69bgvc35+3jfnh0vPHgFeuIcLkEwaWGm0GgXosRJ6c/eiV7iEOiUwmBoPCa5nzagXE+qUZ/BKP3qucRVO5PLBK/mkY57h4054kzgR1EyJBUyoKM94vuQqo+eHfp5QlRv7uL4eoTz8UO/EnXpcOGXjRzaoTITS7ghcZbOoJnqcSy/UPdG7q+iYzNJ2JzFT2XvRwzBJ38Y3fNersT+boS8KC/cwPw8WH1WCdmhmxG8uLXXGpZHBCpQFOz0aV/j8eD8djUkaRiSQrLQJ3WWraiX3l+v4AkpIUYK5ziGhMf+4k6IczYv8Kir18zE3aYKmUA66v3uzjbOV/D40zbIgBaFfFEa3WbTAyu3p+o2mWZZ2/68qQCkWsUpZbd+gOWy60TKTsrpnUXVuqGK8C1cRwcYoX8U9KjEspGdI+IMSqnJ1dqK8yu84dWnOzyEp9rTg6Ja197S9YktzGLP53QQV5gLW0qo28uFODbSVJfyujcRs5gnMwtkgs9X5FIk1MCJr3E09v72awuXIQgIjGu/4LqN2zFSOCZg8I5mdVAVO/7SzCWF2P2/5hSGwEdLOxyYwUYJafmEInIWqyB84kqmRML+vF1yFcGCHiYWFdGDUFz+B+SwJCwK25k3cVsvCQQ9hKTjhmE34Ak3w0H8TmMcF6piDc/7kDtLseUtoNoHjxhkrTvqzyHw+UgXOtD22AQc0VOv/C4qxSVPG28GBH3hTRc4bZpvDJd/URfYXWWK7y8vqqLKO/Buv2G+CqknyD19xmc0MIuNpAAAAAElFTkSuQmCC;" vertex="1" parent="1">
          <mxGeometry x="460" y="130" width="66.75" height="60" as="geometry" />
        </mxCell>
        <mxCell id="sEhYkQHigQ03g9oe6o_F-38" style="edgeStyle=orthogonalEdgeStyle;rounded=0;orthogonalLoop=1;jettySize=auto;html=1;entryX=0.58;entryY=0.9;entryDx=0;entryDy=0;entryPerimeter=0;fontSize=14;" edge="1" parent="1" source="ZjZ7cMIAm1SvYH2-eqid-7" target="sEhYkQHigQ03g9oe6o_F-22">
          <mxGeometry relative="1" as="geometry" />
        </mxCell>
        <mxCell id="sEhYkQHigQ03g9oe6o_F-39" style="edgeStyle=orthogonalEdgeStyle;rounded=0;orthogonalLoop=1;jettySize=auto;html=1;fontSize=14;" edge="1" parent="1" source="ZjZ7cMIAm1SvYH2-eqid-7" target="sEhYkQHigQ03g9oe6o_F-23">
          <mxGeometry relative="1" as="geometry" />
        </mxCell>
        <mxCell id="sEhYkQHigQ03g9oe6o_F-71" style="edgeStyle=none;shape=link;rounded=0;orthogonalLoop=1;jettySize=auto;html=1;fontSize=14;" edge="1" parent="1" source="ZjZ7cMIAm1SvYH2-eqid-7" target="b9mpuUr4YG4pDa8_JKQ_-33">
          <mxGeometry relative="1" as="geometry" />
        </mxCell>
        <mxCell id="sEhYkQHigQ03g9oe6o_F-72" style="edgeStyle=none;shape=link;rounded=0;orthogonalLoop=1;jettySize=auto;html=1;fontSize=14;" edge="1" parent="1" source="ZjZ7cMIAm1SvYH2-eqid-7" target="b9mpuUr4YG4pDa8_JKQ_-29">
          <mxGeometry relative="1" as="geometry" />
        </mxCell>
        <mxCell id="ZjZ7cMIAm1SvYH2-eqid-7" value="" style="shape=image;verticalLabelPosition=bottom;labelBackgroundColor=default;verticalAlign=top;aspect=fixed;imageAspect=0;image=data:image/png,iVBORw0KGgoAAAANSUhEUgAAAFkAAABQCAMAAABF2ilVAAAAAXNSR0IArs4c6QAAAARnQU1BAACxjwv8YQUAAABjUExURQAAAO+ce+6Zd+2Ycu+Ube6QaO2LYuyGXOyDV+t8Tup2RulwPehpM+ZgKeZXHeROEOJDAeRPEeZaIedmMelyQOt+UO2JYO+VcPGhgPKtkPS4oPbEsPjQv/rcz/vn3/3z7/////xrXpIAAAAQdFJOUwAfPFdwh5yvv87b5u/2+/6/gkQkAAAACXBIWXMAABcRAAAXEQHKJvM/AAAD7UlEQVRYR7WZbZuqIBCGdbNS09Rqq+1N//+vPCADAj4OuHud+0sK+kTDMDNQEsFmuy+q+thIjvWhzLMv6vkDaZZXTQs45Bk98hvSrISqmnJHD67kq2BlFcV6u2SHCF3JYZ1Vsorei6Ha0Fth0oLeiaWMtMku0g42e3qXIz3Qw+uog8POfjFgxZYUFsh/Ldy2OWkg0pIeWuBEnwtUJDMnZOJLf6erBZakQ8K3fhhedL1ATVIuMcJBaTjqgI1/pK7g3VEDBkjvqQvTPUh4GD5nasPM1gzvx92TZCU9L+35dXqkdogjLLhQO6RxVyNr5POHFA1X6oE4pt5SI2QuPAw36oNY9khrakOcRm/z4UbdkKwgpybI5BU2PfVCTARJWb8g5Z6G/lYfA+fWZhLZIbffo9D7RP7RqSXzpF5MoYR5jxPLWgi9ulYr63sOsjTrGCMXGT6NMt2zqEokMj1ZymHGoJfSTYhVyq2cQxiKwPtLyvirZGACxuge/fDy4w5WPr/74QHED0IZeIYS+aY7Qnmbt0Iuo5d/6M5CeMeGLi3Oo4YfHE5jm5sJVZ4ZBhBXN8mOriw69bgvc35+3jfnh0vPHgFeuIcLkEwaWGm0GgXosRJ6c/eiV7iEOiUwmBoPCa5nzagXE+qUZ/BKP3qucRVO5PLBK/mkY57h4054kzgR1EyJBUyoKM94vuQqo+eHfp5QlRv7uL4eoTz8UO/EnXpcOGXjRzaoTITS7ghcZbOoJnqcSy/UPdG7q+iYzNJ2JzFT2XvRwzBJ38Y3fNersT+boS8KC/cwPw8WH1WCdmhmxG8uLXXGpZHBCpQFOz0aV/j8eD8djUkaRiSQrLQJ3WWraiX3l+v4AkpIUYK5ziGhMf+4k6IczYv8Kir18zE3aYKmUA66v3uzjbOV/D40zbIgBaFfFEa3WbTAyu3p+o2mWZZ2/68qQCkWsUpZbd+gOWy60TKTsrpnUXVuqGK8C1cRwcYoX8U9KjEspGdI+IMSqnJ1dqK8yu84dWnOzyEp9rTg6Ja197S9YktzGLP53QQV5gLW0qo28uFODbSVJfyujcRs5gnMwtkgs9X5FIk1MCJr3E09v72awuXIQgIjGu/4LqN2zFSOCZg8I5mdVAVO/7SzCWF2P2/5hSGwEdLOxyYwUYJafmEInIWqyB84kqmRML+vF1yFcGCHiYWFdGDUFz+B+SwJCwK25k3cVsvCQQ9hKTjhmE34Ak3w0H8TmMcF6piDc/7kDtLseUtoNoHjxhkrTvqzyHw+UgXOtD22AQc0VOv/C4qxSVPG28GBH3hTRc4bZpvDJd/URfYXWWK7y8vqqLKO/Buv2G+CqknyD19xmc0MIuNpAAAAAElFTkSuQmCC;" vertex="1" parent="1">
          <mxGeometry x="802.63" y="120" width="66.75" height="60" as="geometry" />
        </mxCell>
        <mxCell id="sEhYkQHigQ03g9oe6o_F-49" style="edgeStyle=orthogonalEdgeStyle;rounded=0;orthogonalLoop=1;jettySize=auto;html=1;fontSize=14;" edge="1" parent="1" source="ZjZ7cMIAm1SvYH2-eqid-8" target="sEhYkQHigQ03g9oe6o_F-43">
          <mxGeometry relative="1" as="geometry" />
        </mxCell>
        <mxCell id="sEhYkQHigQ03g9oe6o_F-75" style="edgeStyle=none;shape=link;rounded=0;orthogonalLoop=1;jettySize=auto;html=1;entryX=0.75;entryY=0;entryDx=0;entryDy=0;fontSize=14;" edge="1" parent="1" source="ZjZ7cMIAm1SvYH2-eqid-8" target="b9mpuUr4YG4pDa8_JKQ_-33">
          <mxGeometry relative="1" as="geometry" />
        </mxCell>
        <mxCell id="sEhYkQHigQ03g9oe6o_F-77" style="edgeStyle=none;shape=link;rounded=0;orthogonalLoop=1;jettySize=auto;html=1;entryX=0.5;entryY=0;entryDx=0;entryDy=0;fontSize=14;" edge="1" parent="1" source="ZjZ7cMIAm1SvYH2-eqid-8" target="b9mpuUr4YG4pDa8_JKQ_-29">
          <mxGeometry relative="1" as="geometry" />
        </mxCell>
        <mxCell id="ZjZ7cMIAm1SvYH2-eqid-8" value="" style="shape=image;verticalLabelPosition=bottom;labelBackgroundColor=default;verticalAlign=top;aspect=fixed;imageAspect=0;image=data:image/png,iVBORw0KGgoAAAANSUhEUgAAAFkAAABQCAMAAABF2ilVAAAAAXNSR0IArs4c6QAAAARnQU1BAACxjwv8YQUAAABjUExURQAAAO+ce+6Zd+2Ycu+Ube6QaO2LYuyGXOyDV+t8Tup2RulwPehpM+ZgKeZXHeROEOJDAeRPEeZaIedmMelyQOt+UO2JYO+VcPGhgPKtkPS4oPbEsPjQv/rcz/vn3/3z7/////xrXpIAAAAQdFJOUwAfPFdwh5yvv87b5u/2+/6/gkQkAAAACXBIWXMAABcRAAAXEQHKJvM/AAAD7UlEQVRYR7WZbZuqIBCGdbNS09Rqq+1N//+vPCADAj4OuHud+0sK+kTDMDNQEsFmuy+q+thIjvWhzLMv6vkDaZZXTQs45Bk98hvSrISqmnJHD67kq2BlFcV6u2SHCF3JYZ1Vsorei6Ha0Fth0oLeiaWMtMku0g42e3qXIz3Qw+uog8POfjFgxZYUFsh/Ldy2OWkg0pIeWuBEnwtUJDMnZOJLf6erBZakQ8K3fhhedL1ATVIuMcJBaTjqgI1/pK7g3VEDBkjvqQvTPUh4GD5nasPM1gzvx92TZCU9L+35dXqkdogjLLhQO6RxVyNr5POHFA1X6oE4pt5SI2QuPAw36oNY9khrakOcRm/z4UbdkKwgpybI5BU2PfVCTARJWb8g5Z6G/lYfA+fWZhLZIbffo9D7RP7RqSXzpF5MoYR5jxPLWgi9ulYr63sOsjTrGCMXGT6NMt2zqEokMj1ZymHGoJfSTYhVyq2cQxiKwPtLyvirZGACxuge/fDy4w5WPr/74QHED0IZeIYS+aY7Qnmbt0Iuo5d/6M5CeMeGLi3Oo4YfHE5jm5sJVZ4ZBhBXN8mOriw69bgvc35+3jfnh0vPHgFeuIcLkEwaWGm0GgXosRJ6c/eiV7iEOiUwmBoPCa5nzagXE+qUZ/BKP3qucRVO5PLBK/mkY57h4054kzgR1EyJBUyoKM94vuQqo+eHfp5QlRv7uL4eoTz8UO/EnXpcOGXjRzaoTITS7ghcZbOoJnqcSy/UPdG7q+iYzNJ2JzFT2XvRwzBJ38Y3fNersT+boS8KC/cwPw8WH1WCdmhmxG8uLXXGpZHBCpQFOz0aV/j8eD8djUkaRiSQrLQJ3WWraiX3l+v4AkpIUYK5ziGhMf+4k6IczYv8Kir18zE3aYKmUA66v3uzjbOV/D40zbIgBaFfFEa3WbTAyu3p+o2mWZZ2/68qQCkWsUpZbd+gOWy60TKTsrpnUXVuqGK8C1cRwcYoX8U9KjEspGdI+IMSqnJ1dqK8yu84dWnOzyEp9rTg6Ja197S9YktzGLP53QQV5gLW0qo28uFODbSVJfyujcRs5gnMwtkgs9X5FIk1MCJr3E09v72awuXIQgIjGu/4LqN2zFSOCZg8I5mdVAVO/7SzCWF2P2/5hSGwEdLOxyYwUYJafmEInIWqyB84kqmRML+vF1yFcGCHiYWFdGDUFz+B+SwJCwK25k3cVsvCQQ9hKTjhmE34Ak3w0H8TmMcF6piDc/7kDtLseUtoNoHjxhkrTvqzyHw+UgXOtD22AQc0VOv/C4qxSVPG28GBH3hTRc4bZpvDJd/URfYXWWK7y8vqqLKO/Buv2G+CqknyD19xmc0MIuNpAAAAAElFTkSuQmCC;" vertex="1" parent="1">
          <mxGeometry x="1430" y="135" width="66.75" height="60" as="geometry" />
        </mxCell>
        <mxCell id="sEhYkQHigQ03g9oe6o_F-50" style="edgeStyle=orthogonalEdgeStyle;rounded=0;orthogonalLoop=1;jettySize=auto;html=1;entryX=0.5;entryY=1;entryDx=0;entryDy=0;entryPerimeter=0;fontSize=14;" edge="1" parent="1" source="ZjZ7cMIAm1SvYH2-eqid-9" target="sEhYkQHigQ03g9oe6o_F-43">
          <mxGeometry relative="1" as="geometry" />
        </mxCell>
        <mxCell id="sEhYkQHigQ03g9oe6o_F-51" style="edgeStyle=orthogonalEdgeStyle;rounded=0;orthogonalLoop=1;jettySize=auto;html=1;entryX=0.5;entryY=1;entryDx=0;entryDy=0;entryPerimeter=0;fontSize=14;" edge="1" parent="1" source="ZjZ7cMIAm1SvYH2-eqid-9" target="sEhYkQHigQ03g9oe6o_F-44">
          <mxGeometry relative="1" as="geometry" />
        </mxCell>
        <mxCell id="sEhYkQHigQ03g9oe6o_F-76" style="edgeStyle=none;shape=link;rounded=0;orthogonalLoop=1;jettySize=auto;html=1;entryX=0.5;entryY=0;entryDx=0;entryDy=0;fontSize=14;" edge="1" parent="1" source="ZjZ7cMIAm1SvYH2-eqid-9" target="b9mpuUr4YG4pDa8_JKQ_-29">
          <mxGeometry relative="1" as="geometry" />
        </mxCell>
        <mxCell id="sEhYkQHigQ03g9oe6o_F-78" style="edgeStyle=none;shape=link;rounded=0;orthogonalLoop=1;jettySize=auto;html=1;entryX=0.5;entryY=0;entryDx=0;entryDy=0;fontSize=14;" edge="1" parent="1" source="ZjZ7cMIAm1SvYH2-eqid-9" target="b9mpuUr4YG4pDa8_JKQ_-33">
          <mxGeometry relative="1" as="geometry" />
        </mxCell>
        <mxCell id="ZjZ7cMIAm1SvYH2-eqid-9" value="" style="shape=image;verticalLabelPosition=bottom;labelBackgroundColor=default;verticalAlign=top;aspect=fixed;imageAspect=0;image=data:image/png,iVBORw0KGgoAAAANSUhEUgAAAFkAAABQCAMAAABF2ilVAAAAAXNSR0IArs4c6QAAAARnQU1BAACxjwv8YQUAAABjUExURQAAAO+ce+6Zd+2Ycu+Ube6QaO2LYuyGXOyDV+t8Tup2RulwPehpM+ZgKeZXHeROEOJDAeRPEeZaIedmMelyQOt+UO2JYO+VcPGhgPKtkPS4oPbEsPjQv/rcz/vn3/3z7/////xrXpIAAAAQdFJOUwAfPFdwh5yvv87b5u/2+/6/gkQkAAAACXBIWXMAABcRAAAXEQHKJvM/AAAD7UlEQVRYR7WZbZuqIBCGdbNS09Rqq+1N//+vPCADAj4OuHud+0sK+kTDMDNQEsFmuy+q+thIjvWhzLMv6vkDaZZXTQs45Bk98hvSrISqmnJHD67kq2BlFcV6u2SHCF3JYZ1Vsorei6Ha0Fth0oLeiaWMtMku0g42e3qXIz3Qw+uog8POfjFgxZYUFsh/Ldy2OWkg0pIeWuBEnwtUJDMnZOJLf6erBZakQ8K3fhhedL1ATVIuMcJBaTjqgI1/pK7g3VEDBkjvqQvTPUh4GD5nasPM1gzvx92TZCU9L+35dXqkdogjLLhQO6RxVyNr5POHFA1X6oE4pt5SI2QuPAw36oNY9khrakOcRm/z4UbdkKwgpybI5BU2PfVCTARJWb8g5Z6G/lYfA+fWZhLZIbffo9D7RP7RqSXzpF5MoYR5jxPLWgi9ulYr63sOsjTrGCMXGT6NMt2zqEokMj1ZymHGoJfSTYhVyq2cQxiKwPtLyvirZGACxuge/fDy4w5WPr/74QHED0IZeIYS+aY7Qnmbt0Iuo5d/6M5CeMeGLi3Oo4YfHE5jm5sJVZ4ZBhBXN8mOriw69bgvc35+3jfnh0vPHgFeuIcLkEwaWGm0GgXosRJ6c/eiV7iEOiUwmBoPCa5nzagXE+qUZ/BKP3qucRVO5PLBK/mkY57h4054kzgR1EyJBUyoKM94vuQqo+eHfp5QlRv7uL4eoTz8UO/EnXpcOGXjRzaoTITS7ghcZbOoJnqcSy/UPdG7q+iYzNJ2JzFT2XvRwzBJ38Y3fNersT+boS8KC/cwPw8WH1WCdmhmxG8uLXXGpZHBCpQFOz0aV/j8eD8djUkaRiSQrLQJ3WWraiX3l+v4AkpIUYK5ziGhMf+4k6IczYv8Kir18zE3aYKmUA66v3uzjbOV/D40zbIgBaFfFEa3WbTAyu3p+o2mWZZ2/68qQCkWsUpZbd+gOWy60TKTsrpnUXVuqGK8C1cRwcYoX8U9KjEspGdI+IMSqnJ1dqK8yu84dWnOzyEp9rTg6Ja197S9YktzGLP53QQV5gLW0qo28uFODbSVJfyujcRs5gnMwtkgs9X5FIk1MCJr3E09v72awuXIQgIjGu/4LqN2zFSOCZg8I5mdVAVO/7SzCWF2P2/5hSGwEdLOxyYwUYJafmEInIWqyB84kqmRML+vF1yFcGCHiYWFdGDUFz+B+SwJCwK25k3cVsvCQQ9hKTjhmE34Ak3w0H8TmMcF6piDc/7kDtLseUtoNoHjxhkrTvqzyHw+UgXOtD22AQc0VOv/C4qxSVPG28GBH3hTRc4bZpvDJd/URfYXWWK7y8vqqLKO/Buv2G+CqknyD19xmc0MIuNpAAAAAElFTkSuQmCC;" vertex="1" parent="1">
          <mxGeometry x="1470" y="135" width="66.75" height="60" as="geometry" />
        </mxCell>
        <mxCell id="ZjZ7cMIAm1SvYH2-eqid-11" value="&lt;span style=&quot;font-size: 14px;&quot;&gt;rbac&lt;/span&gt;" style="aspect=fixed;html=1;points=[];align=center;image;fontSize=12;image=img/lib/azure2/security/Conditional_Access.svg;" vertex="1" parent="1">
          <mxGeometry x="-291.79" y="30" width="30" height="36.43" as="geometry" />
        </mxCell>
        <mxCell id="ZjZ7cMIAm1SvYH2-eqid-12" value="&lt;span style=&quot;font-size: 14px;&quot;&gt;rbac&lt;/span&gt;" style="aspect=fixed;html=1;points=[];align=center;image;fontSize=12;image=img/lib/azure2/security/Conditional_Access.svg;" vertex="1" parent="1">
          <mxGeometry x="-292.94" y="112.5" width="30" height="36.43" as="geometry" />
        </mxCell>
        <mxCell id="ZjZ7cMIAm1SvYH2-eqid-14" style="edgeStyle=orthogonalEdgeStyle;rounded=0;orthogonalLoop=1;jettySize=auto;html=1;entryX=0;entryY=0.5;entryDx=0;entryDy=0;" edge="1" parent="1" source="ZjZ7cMIAm1SvYH2-eqid-13" target="b9mpuUr4YG4pDa8_JKQ_-1">
          <mxGeometry relative="1" as="geometry" />
        </mxCell>
        <mxCell id="ZjZ7cMIAm1SvYH2-eqid-15" style="edgeStyle=orthogonalEdgeStyle;rounded=0;orthogonalLoop=1;jettySize=auto;html=1;entryX=0;entryY=0.5;entryDx=0;entryDy=0;" edge="1" parent="1" source="ZjZ7cMIAm1SvYH2-eqid-13" target="b9mpuUr4YG4pDa8_JKQ_-2">
          <mxGeometry relative="1" as="geometry" />
        </mxCell>
        <mxCell id="ZjZ7cMIAm1SvYH2-eqid-13" value="avx-controller.com.br~&lt;br&gt;avx-copilot.com.br" style="sketch=0;aspect=fixed;html=1;points=[];align=center;image;fontSize=12;image=img/lib/mscae/Application_Gateway.svg;" vertex="1" parent="1">
          <mxGeometry x="-480" y="50" width="50" height="50" as="geometry" />
        </mxCell>
        <mxCell id="pJVExOcaXSI0J4Hgegi3-1" value="&lt;font style=&quot;font-size: 14px;&quot;&gt;dnat - 80,443&lt;/font&gt;" style="sketch=0;aspect=fixed;html=1;points=[];align=center;image;fontSize=12;image=img/lib/mscae/Application_Gateway.svg;" vertex="1" parent="1">
          <mxGeometry x="-133" y="35" width="50" height="50" as="geometry" />
        </mxCell>
        <mxCell id="pJVExOcaXSI0J4Hgegi3-7" value="&lt;font style=&quot;font-size: 14px;&quot;&gt;172.16.1.1/32&lt;/font&gt;" style="aspect=fixed;html=1;points=[];align=center;image;fontSize=12;image=img/lib/azure2/general/Tag.svg;fillColor=#FF0000;" vertex="1" parent="1">
          <mxGeometry x="-120" y="172.37" width="28" height="27.51" as="geometry" />
        </mxCell>
        <mxCell id="pJVExOcaXSI0J4Hgegi3-8" value="&lt;font style=&quot;font-size: 14px;&quot;&gt;172.16.1.2/32&lt;/font&gt;" style="aspect=fixed;html=1;points=[];align=center;image;fontSize=12;image=img/lib/azure2/general/Tag.svg;" vertex="1" parent="1">
          <mxGeometry x="168.37" y="172.37" width="28" height="27.51" as="geometry" />
        </mxCell>
        <mxCell id="pJVExOcaXSI0J4Hgegi3-10" value="&lt;font style=&quot;font-size: 14px;&quot;&gt;10.10.10.0/23&lt;/font&gt;" style="aspect=fixed;html=1;points=[];align=center;image;fontSize=16;image=img/lib/azure2/networking/Virtual_Networks.svg;dashed=1;fillColor=none;" vertex="1" parent="1">
          <mxGeometry x="-200" y="295" width="41.88" height="25" as="geometry" />
        </mxCell>
        <mxCell id="pJVExOcaXSI0J4Hgegi3-14" style="edgeStyle=orthogonalEdgeStyle;rounded=0;orthogonalLoop=1;jettySize=auto;html=1;entryX=1;entryY=0.5;entryDx=0;entryDy=0;shape=link;" edge="1" parent="1" source="pJVExOcaXSI0J4Hgegi3-13" target="b9mpuUr4YG4pDa8_JKQ_-20">
          <mxGeometry relative="1" as="geometry">
            <Array as="points">
              <mxPoint x="420" y="365" />
              <mxPoint x="420" y="365" />
            </Array>
          </mxGeometry>
        </mxCell>
        <mxCell id="pJVExOcaXSI0J4Hgegi3-15" value="&lt;font style=&quot;font-size: 14px;&quot;&gt;Peering&lt;/font&gt;" style="edgeLabel;html=1;align=center;verticalAlign=middle;resizable=0;points=[];" vertex="1" connectable="0" parent="pJVExOcaXSI0J4Hgegi3-14">
          <mxGeometry x="0.2429" y="1" relative="1" as="geometry">
            <mxPoint x="8" y="-1" as="offset" />
          </mxGeometry>
        </mxCell>
        <mxCell id="pJVExOcaXSI0J4Hgegi3-13" value="&lt;font style=&quot;font-size: 14px;&quot;&gt;vnet-snat&lt;/font&gt;" style="rounded=1;whiteSpace=wrap;html=1;absoluteArcSize=1;arcSize=14;strokeWidth=2;fillColor=none;verticalAlign=top;labelPosition=center;verticalLabelPosition=bottom;align=center;dashed=1;fontSize=18;" vertex="1" parent="1">
          <mxGeometry x="460" y="290" width="170" height="150" as="geometry" />
        </mxCell>
        <mxCell id="pJVExOcaXSI0J4Hgegi3-17" value="&lt;font style=&quot;font-size: 14px;&quot;&gt;172.16.1.0/24&lt;/font&gt;" style="aspect=fixed;html=1;points=[];align=center;image;fontSize=16;image=img/lib/azure2/networking/Virtual_Networks.svg;dashed=1;fillColor=none;" vertex="1" parent="1">
          <mxGeometry x="524.06" y="330" width="41.88" height="25" as="geometry" />
        </mxCell>
        <mxCell id="Y3XiVPChW9wHcSamb1J7-1" value="" style="aspect=fixed;html=1;points=[];align=center;image;fontSize=12;image=img/lib/azure2/networking/Virtual_Network_Gateways.svg;fillColor=#FF0000;" vertex="1" parent="1">
          <mxGeometry x="-210" y="395" width="22" height="29.19" as="geometry" />
        </mxCell>
        <mxCell id="Y3XiVPChW9wHcSamb1J7-3" value="&lt;font style=&quot;font-size: 14px;&quot;&gt;vnet-snat&lt;/font&gt;" style="rounded=1;whiteSpace=wrap;html=1;absoluteArcSize=1;arcSize=14;strokeWidth=2;fillColor=none;verticalAlign=top;labelPosition=center;verticalLabelPosition=bottom;align=center;dashed=1;fontSize=18;" vertex="1" parent="1">
          <mxGeometry x="1140" y="295" width="170" height="150" as="geometry" />
        </mxCell>
        <mxCell id="Y3XiVPChW9wHcSamb1J7-7" value="&lt;font style=&quot;font-size: 14px;&quot;&gt;172.16.2.0/24&lt;/font&gt;" style="aspect=fixed;html=1;points=[];align=center;image;fontSize=16;image=img/lib/azure2/networking/Virtual_Networks.svg;dashed=1;fillColor=none;" vertex="1" parent="1">
          <mxGeometry x="1204.06" y="343.6" width="41.88" height="25" as="geometry" />
        </mxCell>
        <mxCell id="sEhYkQHigQ03g9oe6o_F-40" style="edgeStyle=orthogonalEdgeStyle;rounded=0;orthogonalLoop=1;jettySize=auto;html=1;fontSize=14;" edge="1" parent="1" source="Y3XiVPChW9wHcSamb1J7-9" target="sEhYkQHigQ03g9oe6o_F-24">
          <mxGeometry relative="1" as="geometry" />
        </mxCell>
        <mxCell id="sEhYkQHigQ03g9oe6o_F-41" style="edgeStyle=orthogonalEdgeStyle;rounded=0;orthogonalLoop=1;jettySize=auto;html=1;fontSize=14;" edge="1" parent="1" source="Y3XiVPChW9wHcSamb1J7-9" target="sEhYkQHigQ03g9oe6o_F-25">
          <mxGeometry relative="1" as="geometry" />
        </mxCell>
        <mxCell id="sEhYkQHigQ03g9oe6o_F-73" style="edgeStyle=none;shape=link;rounded=0;orthogonalLoop=1;jettySize=auto;html=1;entryX=0.5;entryY=0;entryDx=0;entryDy=0;fontSize=14;" edge="1" parent="1" source="Y3XiVPChW9wHcSamb1J7-9" target="b9mpuUr4YG4pDa8_JKQ_-33">
          <mxGeometry relative="1" as="geometry" />
        </mxCell>
        <mxCell id="sEhYkQHigQ03g9oe6o_F-74" style="edgeStyle=none;shape=link;rounded=0;orthogonalLoop=1;jettySize=auto;html=1;entryX=0.5;entryY=0;entryDx=0;entryDy=0;fontSize=14;" edge="1" parent="1" source="Y3XiVPChW9wHcSamb1J7-9" target="b9mpuUr4YG4pDa8_JKQ_-29">
          <mxGeometry relative="1" as="geometry" />
        </mxCell>
        <mxCell id="Y3XiVPChW9wHcSamb1J7-9" value="" style="shape=image;verticalLabelPosition=bottom;labelBackgroundColor=default;verticalAlign=top;aspect=fixed;imageAspect=0;image=data:image/png,iVBORw0KGgoAAAANSUhEUgAAAFkAAABQCAMAAABF2ilVAAAAAXNSR0IArs4c6QAAAARnQU1BAACxjwv8YQUAAABjUExURQAAAO+ce+6Zd+2Ycu+Ube6QaO2LYuyGXOyDV+t8Tup2RulwPehpM+ZgKeZXHeROEOJDAeRPEeZaIedmMelyQOt+UO2JYO+VcPGhgPKtkPS4oPbEsPjQv/rcz/vn3/3z7/////xrXpIAAAAQdFJOUwAfPFdwh5yvv87b5u/2+/6/gkQkAAAACXBIWXMAABcRAAAXEQHKJvM/AAAD7UlEQVRYR7WZbZuqIBCGdbNS09Rqq+1N//+vPCADAj4OuHud+0sK+kTDMDNQEsFmuy+q+thIjvWhzLMv6vkDaZZXTQs45Bk98hvSrISqmnJHD67kq2BlFcV6u2SHCF3JYZ1Vsorei6Ha0Fth0oLeiaWMtMku0g42e3qXIz3Qw+uog8POfjFgxZYUFsh/Ldy2OWkg0pIeWuBEnwtUJDMnZOJLf6erBZakQ8K3fhhedL1ATVIuMcJBaTjqgI1/pK7g3VEDBkjvqQvTPUh4GD5nasPM1gzvx92TZCU9L+35dXqkdogjLLhQO6RxVyNr5POHFA1X6oE4pt5SI2QuPAw36oNY9khrakOcRm/z4UbdkKwgpybI5BU2PfVCTARJWb8g5Z6G/lYfA+fWZhLZIbffo9D7RP7RqSXzpF5MoYR5jxPLWgi9ulYr63sOsjTrGCMXGT6NMt2zqEokMj1ZymHGoJfSTYhVyq2cQxiKwPtLyvirZGACxuge/fDy4w5WPr/74QHED0IZeIYS+aY7Qnmbt0Iuo5d/6M5CeMeGLi3Oo4YfHE5jm5sJVZ4ZBhBXN8mOriw69bgvc35+3jfnh0vPHgFeuIcLkEwaWGm0GgXosRJ6c/eiV7iEOiUwmBoPCa5nzagXE+qUZ/BKP3qucRVO5PLBK/mkY57h4054kzgR1EyJBUyoKM94vuQqo+eHfp5QlRv7uL4eoTz8UO/EnXpcOGXjRzaoTITS7ghcZbOoJnqcSy/UPdG7q+iYzNJ2JzFT2XvRwzBJ38Y3fNersT+boS8KC/cwPw8WH1WCdmhmxG8uLXXGpZHBCpQFOz0aV/j8eD8djUkaRiSQrLQJ3WWraiX3l+v4AkpIUYK5ziGhMf+4k6IczYv8Kir18zE3aYKmUA66v3uzjbOV/D40zbIgBaFfFEa3WbTAyu3p+o2mWZZ2/68qQCkWsUpZbd+gOWy60TKTsrpnUXVuqGK8C1cRwcYoX8U9KjEspGdI+IMSqnJ1dqK8yu84dWnOzyEp9rTg6Ja197S9YktzGLP53QQV5gLW0qo28uFODbSVJfyujcRs5gnMwtkgs9X5FIk1MCJr3E09v72awuXIQgIjGu/4LqN2zFSOCZg8I5mdVAVO/7SzCWF2P2/5hSGwEdLOxyYwUYJafmEInIWqyB84kqmRML+vF1yFcGCHiYWFdGDUFz+B+SwJCwK25k3cVsvCQQ9hKTjhmE34Ak3w0H8TmMcF6piDc/7kDtLseUtoNoHjxhkrTvqzyHw+UgXOtD22AQc0VOv/C4qxSVPG28GBH3hTRc4bZpvDJd/URfYXWWK7y8vqqLKO/Buv2G+CqknyD19xmc0MIuNpAAAAAElFTkSuQmCC;" vertex="1" parent="1">
          <mxGeometry x="1111.62" y="130" width="66.75" height="60" as="geometry" />
        </mxCell>
        <mxCell id="Y3XiVPChW9wHcSamb1J7-10" value="" style="shape=image;verticalLabelPosition=bottom;labelBackgroundColor=default;verticalAlign=top;aspect=fixed;imageAspect=0;image=http://www.adminsys.ch/wp-content/uploads/2015/02/PaloAltoIcon-266x300.png;" vertex="1" parent="1">
          <mxGeometry x="230" y="368.6" width="45.39" height="51.19" as="geometry" />
        </mxCell>
        <mxCell id="Y3XiVPChW9wHcSamb1J7-11" value="" style="shape=image;verticalLabelPosition=bottom;labelBackgroundColor=default;verticalAlign=top;aspect=fixed;imageAspect=0;image=http://www.adminsys.ch/wp-content/uploads/2015/02/PaloAltoIcon-266x300.png;" vertex="1" parent="1">
          <mxGeometry x="275.39" y="364.19" width="45.39" height="51.19" as="geometry" />
        </mxCell>
        <mxCell id="Y3XiVPChW9wHcSamb1J7-12" value="" style="shape=image;verticalLabelPosition=bottom;labelBackgroundColor=default;verticalAlign=top;aspect=fixed;imageAspect=0;image=http://www.adminsys.ch/wp-content/uploads/2015/02/PaloAltoIcon-266x300.png;" vertex="1" parent="1">
          <mxGeometry x="944.61" y="368.6" width="45.39" height="51.19" as="geometry" />
        </mxCell>
        <mxCell id="Y3XiVPChW9wHcSamb1J7-13" value="" style="shape=image;verticalLabelPosition=bottom;labelBackgroundColor=default;verticalAlign=top;aspect=fixed;imageAspect=0;image=http://www.adminsys.ch/wp-content/uploads/2015/02/PaloAltoIcon-266x300.png;" vertex="1" parent="1">
          <mxGeometry x="990" y="364.19" width="45.39" height="51.19" as="geometry" />
        </mxCell>
        <mxCell id="Y3XiVPChW9wHcSamb1J7-14" value="&lt;font style=&quot;font-size: 14px;&quot;&gt;10.10.20.0/23&lt;/font&gt;" style="aspect=fixed;html=1;points=[];align=center;image;fontSize=16;image=img/lib/azure2/networking/Virtual_Networks.svg;dashed=1;fillColor=none;" vertex="1" parent="1">
          <mxGeometry x="730" y="295" width="41.88" height="25" as="geometry" />
        </mxCell>
        <mxCell id="Y3XiVPChW9wHcSamb1J7-15" value="" style="aspect=fixed;html=1;points=[];align=center;image;fontSize=12;image=img/lib/azure2/networking/Virtual_Network_Gateways.svg;fillColor=#FF0000;" vertex="1" parent="1">
          <mxGeometry x="720" y="395" width="22" height="29.19" as="geometry" />
        </mxCell>
        <mxCell id="Y3XiVPChW9wHcSamb1J7-17" value="&lt;font style=&quot;font-size: 14px;&quot;&gt;dnat - 53&lt;/font&gt;" style="sketch=0;aspect=fixed;html=1;points=[];align=center;image;fontSize=12;image=img/lib/mscae/Load_Balancer_feature.svg;fillColor=#FF0000;" vertex="1" parent="1">
          <mxGeometry x="-40" y="35" width="50" height="50" as="geometry" />
        </mxCell>
        <mxCell id="sEhYkQHigQ03g9oe6o_F-1" value="" style="shape=image;verticalLabelPosition=bottom;labelBackgroundColor=default;verticalAlign=top;aspect=fixed;imageAspect=0;image=https://static-00.iconduck.com/assets.00/aws-icon-512x512-hniukvcn.png;" vertex="1" parent="1">
          <mxGeometry x="1330" y="-200" width="70" height="70" as="geometry" />
        </mxCell>
        <mxCell id="sEhYkQHigQ03g9oe6o_F-2" value="&lt;h2&gt;aws - us east 2&lt;/h2&gt;" style="text;html=1;align=center;verticalAlign=middle;resizable=0;points=[];autosize=1;strokeColor=none;fillColor=none;fontSize=14;" vertex="1" parent="1">
          <mxGeometry x="1395" y="-198" width="170" height="70" as="geometry" />
        </mxCell>
        <mxCell id="sEhYkQHigQ03g9oe6o_F-3" value="&lt;font style=&quot;font-size: 14px;&quot;&gt;172.16.1.3/32&lt;/font&gt;" style="aspect=fixed;html=1;points=[];align=center;image;fontSize=12;image=img/lib/azure2/general/Tag.svg;" vertex="1" parent="1">
          <mxGeometry x="460" y="175.24" width="28" height="27.51" as="geometry" />
        </mxCell>
        <mxCell id="sEhYkQHigQ03g9oe6o_F-4" value="&lt;font style=&quot;font-size: 14px;&quot;&gt;172.16.2.1/32&lt;/font&gt;" style="aspect=fixed;html=1;points=[];align=center;image;fontSize=12;image=img/lib/azure2/general/Tag.svg;" vertex="1" parent="1">
          <mxGeometry x="822" y="175.24" width="28" height="27.51" as="geometry" />
        </mxCell>
        <mxCell id="sEhYkQHigQ03g9oe6o_F-5" value="&lt;font style=&quot;font-size: 14px;&quot;&gt;172.16.2.2/32&lt;/font&gt;" style="aspect=fixed;html=1;points=[];align=center;image;fontSize=12;image=img/lib/azure2/general/Tag.svg;" vertex="1" parent="1">
          <mxGeometry x="1130.99" y="175.24" width="28" height="27.51" as="geometry" />
        </mxCell>
        <mxCell id="sEhYkQHigQ03g9oe6o_F-11" style="rounded=0;orthogonalLoop=1;jettySize=auto;html=1;fontSize=14;shape=link;" edge="1" parent="1" source="sEhYkQHigQ03g9oe6o_F-8" target="Y3XiVPChW9wHcSamb1J7-11">
          <mxGeometry relative="1" as="geometry" />
        </mxCell>
        <mxCell id="sEhYkQHigQ03g9oe6o_F-12" style="edgeStyle=none;rounded=0;orthogonalLoop=1;jettySize=auto;html=1;fontSize=14;shape=link;" edge="1" parent="1" source="sEhYkQHigQ03g9oe6o_F-8" target="Y3XiVPChW9wHcSamb1J7-12">
          <mxGeometry relative="1" as="geometry" />
        </mxCell>
        <mxCell id="sEhYkQHigQ03g9oe6o_F-8" value="Internet" style="aspect=fixed;perimeter=ellipsePerimeter;html=1;align=center;shadow=0;dashed=0;spacingTop=3;image;image=img/lib/active_directory/internet_cloud.svg;fontSize=14;fillColor=#FF0000;" vertex="1" parent="1">
          <mxGeometry x="572" y="610" width="170" height="107.1" as="geometry" />
        </mxCell>
        <mxCell id="sEhYkQHigQ03g9oe6o_F-17" value="&lt;font style=&quot;font-size: 14px;&quot;&gt;172.16.2.3/32&lt;/font&gt;" style="aspect=fixed;html=1;points=[];align=center;image;fontSize=12;image=img/lib/azure2/general/Tag.svg;" vertex="1" parent="1">
          <mxGeometry x="1468.75" y="175.24" width="28" height="27.51" as="geometry" />
        </mxCell>
        <mxCell id="sEhYkQHigQ03g9oe6o_F-18" value="&lt;font style=&quot;font-size: 14px;&quot;&gt;dnat - 80,443&lt;/font&gt;" style="sketch=0;aspect=fixed;html=1;points=[];align=center;image;fontSize=12;image=img/lib/mscae/Application_Gateway.svg;" vertex="1" parent="1">
          <mxGeometry x="157" y="35" width="50" height="50" as="geometry" />
        </mxCell>
        <mxCell id="sEhYkQHigQ03g9oe6o_F-19" value="&lt;font style=&quot;font-size: 14px;&quot;&gt;dnat - 53&lt;/font&gt;" style="sketch=0;aspect=fixed;html=1;points=[];align=center;image;fontSize=12;image=img/lib/mscae/Load_Balancer_feature.svg;fillColor=#FF0000;" vertex="1" parent="1">
          <mxGeometry x="250" y="35" width="50" height="50" as="geometry" />
        </mxCell>
        <mxCell id="sEhYkQHigQ03g9oe6o_F-20" value="&lt;font style=&quot;font-size: 14px;&quot;&gt;dnat - 80,443&lt;/font&gt;" style="sketch=0;aspect=fixed;html=1;points=[];align=center;image;fontSize=12;image=img/lib/mscae/Application_Gateway.svg;" vertex="1" parent="1">
          <mxGeometry x="449" y="35" width="50" height="50" as="geometry" />
        </mxCell>
        <mxCell id="sEhYkQHigQ03g9oe6o_F-21" value="&lt;font style=&quot;font-size: 14px;&quot;&gt;dnat - 53&lt;/font&gt;" style="sketch=0;aspect=fixed;html=1;points=[];align=center;image;fontSize=12;image=img/lib/mscae/Load_Balancer_feature.svg;fillColor=#FF0000;" vertex="1" parent="1">
          <mxGeometry x="540" y="35" width="50" height="50" as="geometry" />
        </mxCell>
        <mxCell id="sEhYkQHigQ03g9oe6o_F-22" value="&lt;font style=&quot;font-size: 14px;&quot;&gt;dnat - 80,443&lt;/font&gt;" style="sketch=0;aspect=fixed;html=1;points=[];align=center;image;fontSize=12;image=img/lib/mscae/Application_Gateway.svg;" vertex="1" parent="1">
          <mxGeometry x="811" y="35" width="50" height="50" as="geometry" />
        </mxCell>
        <mxCell id="sEhYkQHigQ03g9oe6o_F-23" value="&lt;font style=&quot;font-size: 14px;&quot;&gt;dnat - 53&lt;/font&gt;" style="sketch=0;aspect=fixed;html=1;points=[];align=center;image;fontSize=12;image=img/lib/mscae/Load_Balancer_feature.svg;fillColor=#FF0000;" vertex="1" parent="1">
          <mxGeometry x="900" y="35" width="50" height="50" as="geometry" />
        </mxCell>
        <mxCell id="sEhYkQHigQ03g9oe6o_F-24" value="&lt;font style=&quot;font-size: 14px;&quot;&gt;dnat - 80,443&lt;/font&gt;" style="sketch=0;aspect=fixed;html=1;points=[];align=center;image;fontSize=12;image=img/lib/mscae/Application_Gateway.svg;" vertex="1" parent="1">
          <mxGeometry x="1120" y="35" width="50" height="50" as="geometry" />
        </mxCell>
        <mxCell id="sEhYkQHigQ03g9oe6o_F-25" value="&lt;font style=&quot;font-size: 14px;&quot;&gt;dnat - 53&lt;/font&gt;" style="sketch=0;aspect=fixed;html=1;points=[];align=center;image;fontSize=12;image=img/lib/mscae/Load_Balancer_feature.svg;fillColor=#FF0000;" vertex="1" parent="1">
          <mxGeometry x="1210" y="35" width="50" height="50" as="geometry" />
        </mxCell>
        <mxCell id="sEhYkQHigQ03g9oe6o_F-26" value="&lt;font style=&quot;font-size: 14px;&quot;&gt;brewzone 1&lt;/font&gt;" style="sketch=0;aspect=fixed;html=1;points=[];align=center;image;fontSize=12;image=img/lib/mscae/Key.svg;fillColor=none;" vertex="1" parent="1">
          <mxGeometry x="-16.999999999999943" y="-98.75999999999999" width="17.06" height="27.52" as="geometry" />
        </mxCell>
        <mxCell id="sEhYkQHigQ03g9oe6o_F-28" value="&lt;font style=&quot;font-size: 14px;&quot;&gt;brewzone 1&lt;/font&gt;" style="sketch=0;aspect=fixed;html=1;points=[];align=center;image;fontSize=12;image=img/lib/mscae/Key.svg;fillColor=none;" vertex="1" parent="1">
          <mxGeometry x="282.94000000000005" y="-98.75999999999999" width="17.06" height="27.52" as="geometry" />
        </mxCell>
        <mxCell id="sEhYkQHigQ03g9oe6o_F-29" value="&lt;span style=&quot;font-size: 14px;&quot;&gt;sharedservices&lt;/span&gt;" style="sketch=0;aspect=fixed;html=1;points=[];align=center;image;fontSize=12;image=img/lib/mscae/Key.svg;fillColor=none;" vertex="1" parent="1">
          <mxGeometry x="556.47" y="-98.75999999999999" width="17.06" height="27.52" as="geometry" />
        </mxCell>
        <mxCell id="sEhYkQHigQ03g9oe6o_F-30" value="&lt;font style=&quot;font-size: 14px;&quot;&gt;connectivity&lt;/font&gt;" style="sketch=0;aspect=fixed;html=1;points=[];align=center;image;fontSize=12;image=img/lib/mscae/Key.svg;fillColor=none;" vertex="1" parent="1">
          <mxGeometry x="335" y="295" width="17.06" height="27.52" as="geometry" />
        </mxCell>
        <mxCell id="sEhYkQHigQ03g9oe6o_F-31" value="&lt;span style=&quot;font-size: 14px;&quot;&gt;repository&lt;/span&gt;&lt;br style=&quot;border-color: var(--border-color); font-size: 14px;&quot;&gt;&lt;span style=&quot;font-size: 14px;&quot;&gt;pipelines&lt;/span&gt;" style="aspect=fixed;html=1;points=[];align=center;image;fontSize=12;image=img/lib/azure2/devops/Azure_DevOps.svg;fillColor=#FF0000;" vertex="1" parent="1">
          <mxGeometry x="-327.5" y="230" width="50" height="50" as="geometry" />
        </mxCell>
        <mxCell id="sEhYkQHigQ03g9oe6o_F-43" value="&lt;span style=&quot;background-color: rgb(255, 255, 255);&quot;&gt;dnat - 80,443&lt;/span&gt;" style="outlineConnect=0;dashed=0;verticalLabelPosition=bottom;verticalAlign=top;align=center;html=1;shape=mxgraph.aws3.application_load_balancer;fillColor=#F58536;gradientColor=none;fontSize=14;" vertex="1" parent="1">
          <mxGeometry x="1453" y="35" width="54" height="50" as="geometry" />
        </mxCell>
        <mxCell id="sEhYkQHigQ03g9oe6o_F-44" value="&lt;span style=&quot;background-color: rgb(255, 255, 255);&quot;&gt;dnat - 53&lt;/span&gt;" style="outlineConnect=0;dashed=0;verticalLabelPosition=bottom;verticalAlign=top;align=center;html=1;shape=mxgraph.aws3.classic_load_balancer;fillColor=#F58534;gradientColor=none;fontSize=14;" vertex="1" parent="1">
          <mxGeometry x="1540" y="34" width="49" height="51" as="geometry" />
        </mxCell>
        <mxCell id="sEhYkQHigQ03g9oe6o_F-45" value="&lt;font style=&quot;font-size: 14px;&quot;&gt;brewzone 1&lt;/font&gt;" style="sketch=0;aspect=fixed;html=1;points=[];align=center;image;fontSize=12;image=img/lib/mscae/Key.svg;fillColor=none;" vertex="1" parent="1">
          <mxGeometry x="916.47" y="-98.75999999999999" width="17.06" height="27.52" as="geometry" />
        </mxCell>
        <mxCell id="sEhYkQHigQ03g9oe6o_F-46" value="&lt;font style=&quot;font-size: 14px;&quot;&gt;brewzone 2&lt;/font&gt;" style="sketch=0;aspect=fixed;html=1;points=[];align=center;image;fontSize=12;image=img/lib/mscae/Key.svg;fillColor=none;" vertex="1" parent="1">
          <mxGeometry x="1226.47" y="-98.75999999999999" width="17.06" height="27.52" as="geometry" />
        </mxCell>
        <mxCell id="sEhYkQHigQ03g9oe6o_F-48" value="&lt;font style=&quot;font-size: 14px;&quot;&gt;100.64.0.0/16&lt;/font&gt;" style="aspect=fixed;html=1;points=[];align=center;image;fontSize=16;image=img/lib/azure2/networking/Virtual_Networks.svg;dashed=1;fillColor=none;" vertex="1" parent="1">
          <mxGeometry x="1030" y="-98.76" width="67" height="40" as="geometry" />
        </mxCell>
        <mxCell id="b9mpuUr4YG4pDa8_JKQ_-19" value="&lt;font style=&quot;font-size: 14px; background-color: rgb(255, 255, 255);&quot;&gt;brewzone 1 - stg&lt;/font&gt;" style="rounded=1;whiteSpace=wrap;html=1;absoluteArcSize=1;arcSize=14;strokeWidth=2;fillColor=none;verticalAlign=top;labelPosition=center;verticalLabelPosition=bottom;align=center;dashed=1;fontSize=18;" parent="1" vertex="1">
          <mxGeometry x="-230" y="-110" width="270" height="340" as="geometry" />
        </mxCell>
        <mxCell id="sEhYkQHigQ03g9oe6o_F-61" value="" style="edgeStyle=none;shape=link;rounded=0;orthogonalLoop=1;jettySize=auto;html=1;fontSize=14;" edge="1" parent="1" source="b9mpuUr4YG4pDa8_JKQ_-35" target="b9mpuUr4YG4pDa8_JKQ_-20">
          <mxGeometry relative="1" as="geometry" />
        </mxCell>
        <mxCell id="b9mpuUr4YG4pDa8_JKQ_-35" value="&lt;span style=&quot;background-color: rgb(255, 255, 255);&quot;&gt;&lt;font style=&quot;font-size: 14px;&quot;&gt;brewzone 1 - prd&lt;/font&gt;&lt;/span&gt;" style="rounded=1;whiteSpace=wrap;html=1;absoluteArcSize=1;arcSize=14;strokeWidth=2;fillColor=none;verticalAlign=top;labelPosition=center;verticalLabelPosition=bottom;align=center;dashed=1;fontSize=18;" parent="1" vertex="1">
          <mxGeometry x="65" y="-110" width="270" height="340" as="geometry" />
        </mxCell>
        <mxCell id="b9mpuUr4YG4pDa8_JKQ_-20" value="&lt;font style=&quot;font-size: 14px; background-color: rgb(255, 255, 255);&quot;&gt;transit - brazil south&lt;/font&gt;" style="rounded=1;whiteSpace=wrap;html=1;absoluteArcSize=1;arcSize=14;strokeWidth=2;fillColor=none;verticalAlign=top;labelPosition=center;verticalLabelPosition=bottom;align=center;dashed=1;fontSize=18;" parent="1" vertex="1">
          <mxGeometry x="-230" y="290" width="620" height="150" as="geometry" />
        </mxCell>
        <mxCell id="b9mpuUr4YG4pDa8_JKQ_-32" value="&lt;font style=&quot;font-size: 14px; background-color: rgb(255, 255, 255);&quot;&gt;brewzone 1 - dev&lt;/font&gt;" style="rounded=1;whiteSpace=wrap;html=1;absoluteArcSize=1;arcSize=14;strokeWidth=2;fillColor=none;verticalAlign=top;labelPosition=center;verticalLabelPosition=bottom;align=center;dashed=1;" parent="1" vertex="1">
          <mxGeometry x="708" y="-110" width="270" height="340" as="geometry" />
        </mxCell>
        <mxCell id="Y3XiVPChW9wHcSamb1J7-8" value="&lt;font style=&quot;font-size: 14px; background-color: rgb(255, 255, 255);&quot;&gt;brewzone 2 - dev&lt;/font&gt;" style="rounded=1;whiteSpace=wrap;html=1;absoluteArcSize=1;arcSize=14;strokeWidth=2;fillColor=none;verticalAlign=top;labelPosition=center;verticalLabelPosition=bottom;align=center;dashed=1;" vertex="1" parent="1">
          <mxGeometry x="1010" y="-110" width="270" height="340" as="geometry" />
        </mxCell>
        <mxCell id="b9mpuUr4YG4pDa8_JKQ_-24" value="&lt;font style=&quot;font-size: 14px; background-color: rgb(255, 255, 255);&quot;&gt;transit - south central us&lt;/font&gt;" style="rounded=1;whiteSpace=wrap;html=1;absoluteArcSize=1;arcSize=14;strokeWidth=2;fillColor=none;verticalAlign=top;labelPosition=center;verticalLabelPosition=bottom;align=center;dashed=1;" parent="1" vertex="1">
          <mxGeometry x="700" y="290" width="370" height="150" as="geometry" />
        </mxCell>
        <mxCell id="sEhYkQHigQ03g9oe6o_F-80" style="edgeStyle=orthogonalEdgeStyle;rounded=0;orthogonalLoop=1;jettySize=auto;html=1;fontSize=14;" edge="1" parent="1" source="sEhYkQHigQ03g9oe6o_F-79" target="ZjZ7cMIAm1SvYH2-eqid-11">
          <mxGeometry relative="1" as="geometry">
            <Array as="points">
              <mxPoint x="-277" y="-40" />
            </Array>
          </mxGeometry>
        </mxCell>
        <mxCell id="sEhYkQHigQ03g9oe6o_F-79" value="Azure AD SSO" style="aspect=fixed;html=1;points=[];align=center;image;fontSize=12;image=img/lib/azure2/identity/Azure_AD_B2C.svg;labelBackgroundColor=#FFFFFF;fillColor=#FF0000;" vertex="1" parent="1">
          <mxGeometry x="-489.5" y="-80" width="69" height="64" as="geometry" />
        </mxCell>
        <mxCell id="Rt1KXk0HPHx_iiRFSkXc-1" value="" style="ellipse;whiteSpace=wrap;html=1;aspect=fixed;fillColor=#3399FF;" vertex="1" parent="1">
          <mxGeometry x="-520" y="429.19" width="20" height="20" as="geometry" />
        </mxCell>
        <mxCell id="Rt1KXk0HPHx_iiRFSkXc-2" value="&lt;font style=&quot;font-size: 14px;&quot;&gt;sharedservices-domain&lt;/font&gt;" style="text;html=1;strokeColor=none;fillColor=none;align=center;verticalAlign=middle;whiteSpace=wrap;rounded=0;" vertex="1" parent="1">
          <mxGeometry x="-490.87" y="424.19" width="120" height="30" as="geometry" />
        </mxCell>
        <mxCell id="Rt1KXk0HPHx_iiRFSkXc-3" value="&lt;font style=&quot;font-size: 14px;&quot;&gt;dev-domain&lt;/font&gt;" style="text;html=1;strokeColor=none;fillColor=none;align=center;verticalAlign=middle;whiteSpace=wrap;rounded=0;" vertex="1" parent="1">
          <mxGeometry x="-511.75" y="454.19" width="161.75" height="30" as="geometry" />
        </mxCell>
        <mxCell id="Rt1KXk0HPHx_iiRFSkXc-4" value="" style="ellipse;whiteSpace=wrap;html=1;aspect=fixed;fillColor=#FFFF00;" vertex="1" parent="1">
          <mxGeometry x="-520" y="489.19" width="20" height="20" as="geometry" />
        </mxCell>
        <mxCell id="Rt1KXk0HPHx_iiRFSkXc-5" value="&lt;font style=&quot;font-size: 14px;&quot;&gt;stg-domain&lt;/font&gt;" style="text;html=1;strokeColor=none;fillColor=none;align=center;verticalAlign=middle;whiteSpace=wrap;rounded=0;" vertex="1" parent="1">
          <mxGeometry x="-500.87" y="484.19" width="140" height="30" as="geometry" />
        </mxCell>
        <mxCell id="Rt1KXk0HPHx_iiRFSkXc-6" value="" style="ellipse;whiteSpace=wrap;html=1;aspect=fixed;fillColor=#00FF00;" vertex="1" parent="1">
          <mxGeometry x="-520" y="519.19" width="20" height="20" as="geometry" />
        </mxCell>
        <mxCell id="Rt1KXk0HPHx_iiRFSkXc-7" value="&lt;font style=&quot;font-size: 14px;&quot;&gt;prd-domain&lt;/font&gt;" style="text;html=1;strokeColor=none;fillColor=none;align=center;verticalAlign=middle;whiteSpace=wrap;rounded=0;" vertex="1" parent="1">
          <mxGeometry x="-490" y="514.19" width="120" height="30" as="geometry" />
        </mxCell>
        <mxCell id="Rt1KXk0HPHx_iiRFSkXc-8" value="" style="ellipse;whiteSpace=wrap;html=1;aspect=fixed;fillColor=#FF8000;" vertex="1" parent="1">
          <mxGeometry x="-520" y="459.19" width="20" height="20" as="geometry" />
        </mxCell>
        <mxCell id="Rt1KXk0HPHx_iiRFSkXc-9" value="" style="ellipse;whiteSpace=wrap;html=1;aspect=fixed;fillColor=#FF0000;" vertex="1" parent="1">
          <mxGeometry x="-520" y="552.19" width="20" height="20" as="geometry" />
        </mxCell>
        <mxCell id="Rt1KXk0HPHx_iiRFSkXc-10" value="&lt;font style=&quot;font-size: 14px;&quot;&gt;on-prem&lt;/font&gt;" style="text;html=1;strokeColor=none;fillColor=none;align=center;verticalAlign=middle;whiteSpace=wrap;rounded=0;" vertex="1" parent="1">
          <mxGeometry x="-494.5" y="544.19" width="120" height="30" as="geometry" />
        </mxCell>
        <mxCell id="Rt1KXk0HPHx_iiRFSkXc-11" value="" style="ellipse;whiteSpace=wrap;html=1;aspect=fixed;fillColor=#FF0000;" vertex="1" parent="1">
          <mxGeometry x="-178.12" y="404.19" width="20" height="20" as="geometry" />
        </mxCell>
        <mxCell id="Rt1KXk0HPHx_iiRFSkXc-12" value="" style="ellipse;whiteSpace=wrap;html=1;aspect=fixed;fillColor=#FF0000;" vertex="1" parent="1">
          <mxGeometry x="-220" y="-20" width="20" height="20" as="geometry" />
        </mxCell>
        <mxCell id="Rt1KXk0HPHx_iiRFSkXc-13" value="" style="ellipse;whiteSpace=wrap;html=1;aspect=fixed;fillColor=#FFFF00;" vertex="1" parent="1">
          <mxGeometry x="-160" y="-20" width="20" height="20" as="geometry" />
        </mxCell>
        <mxCell id="lDalFYN6IJG57NMuMiJ6-2" value="" style="ellipse;whiteSpace=wrap;html=1;aspect=fixed;fillColor=#3399FF;" vertex="1" parent="1">
          <mxGeometry x="-189.06" y="-20" width="20" height="20" as="geometry" />
        </mxCell>
        <mxCell id="lDalFYN6IJG57NMuMiJ6-3" value="" style="ellipse;whiteSpace=wrap;html=1;aspect=fixed;fillColor=#FF0000;" vertex="1" parent="1">
          <mxGeometry x="76.75" y="-20" width="20" height="20" as="geometry" />
        </mxCell>
        <mxCell id="lDalFYN6IJG57NMuMiJ6-4" value="" style="ellipse;whiteSpace=wrap;html=1;aspect=fixed;fillColor=#3399FF;" vertex="1" parent="1">
          <mxGeometry x="106.75" y="-20" width="20" height="20" as="geometry" />
        </mxCell>
        <mxCell id="lDalFYN6IJG57NMuMiJ6-5" value="" style="ellipse;whiteSpace=wrap;html=1;aspect=fixed;fillColor=#00FF00;" vertex="1" parent="1">
          <mxGeometry x="137" y="-20" width="20" height="20" as="geometry" />
        </mxCell>
        <mxCell id="lDalFYN6IJG57NMuMiJ6-6" value="" style="ellipse;whiteSpace=wrap;html=1;aspect=fixed;fillColor=#FF0000;" vertex="1" parent="1">
          <mxGeometry x="751.88" y="404.19" width="20" height="20" as="geometry" />
        </mxCell>
        <mxCell id="lDalFYN6IJG57NMuMiJ6-7" value="" style="ellipse;whiteSpace=wrap;html=1;aspect=fixed;fillColor=#FF0000;" vertex="1" parent="1">
          <mxGeometry x="370" y="-20" width="20" height="20" as="geometry" />
        </mxCell>
        <mxCell id="lDalFYN6IJG57NMuMiJ6-8" value="" style="ellipse;whiteSpace=wrap;html=1;aspect=fixed;fillColor=#3399FF;" vertex="1" parent="1">
          <mxGeometry x="400" y="-20" width="20" height="20" as="geometry" />
        </mxCell>
        <mxCell id="lDalFYN6IJG57NMuMiJ6-9" value="" style="ellipse;whiteSpace=wrap;html=1;aspect=fixed;fillColor=#FF0000;" vertex="1" parent="1">
          <mxGeometry x="722" y="-20" width="20" height="20" as="geometry" />
        </mxCell>
        <mxCell id="lDalFYN6IJG57NMuMiJ6-10" value="" style="ellipse;whiteSpace=wrap;html=1;aspect=fixed;fillColor=#3399FF;" vertex="1" parent="1">
          <mxGeometry x="751.88" y="-20" width="20" height="20" as="geometry" />
        </mxCell>
        <mxCell id="lDalFYN6IJG57NMuMiJ6-11" value="" style="ellipse;whiteSpace=wrap;html=1;aspect=fixed;fillColor=#FF8000;" vertex="1" parent="1">
          <mxGeometry x="782.6300000000001" y="-20" width="20" height="20" as="geometry" />
        </mxCell>
        <mxCell id="lDalFYN6IJG57NMuMiJ6-12" value="" style="ellipse;whiteSpace=wrap;html=1;aspect=fixed;fillColor=#FF0000;" vertex="1" parent="1">
          <mxGeometry x="1020" y="-20" width="20" height="20" as="geometry" />
        </mxCell>
        <mxCell id="lDalFYN6IJG57NMuMiJ6-13" value="" style="ellipse;whiteSpace=wrap;html=1;aspect=fixed;fillColor=#3399FF;" vertex="1" parent="1">
          <mxGeometry x="1050.5" y="-20" width="20" height="20" as="geometry" />
        </mxCell>
        <mxCell id="lDalFYN6IJG57NMuMiJ6-14" value="" style="ellipse;whiteSpace=wrap;html=1;aspect=fixed;fillColor=#FF8000;" vertex="1" parent="1">
          <mxGeometry x="1080.0000000000002" y="-20" width="20" height="20" as="geometry" />
        </mxCell>
        <mxCell id="lDalFYN6IJG57NMuMiJ6-17" value="" style="ellipse;whiteSpace=wrap;html=1;aspect=fixed;fillColor=#FF0000;" vertex="1" parent="1">
          <mxGeometry x="1360" y="-20" width="20" height="20" as="geometry" />
        </mxCell>
        <mxCell id="lDalFYN6IJG57NMuMiJ6-18" value="" style="ellipse;whiteSpace=wrap;html=1;aspect=fixed;fillColor=#3399FF;" vertex="1" parent="1">
          <mxGeometry x="1390" y="-20" width="20" height="20" as="geometry" />
        </mxCell>
        <mxCell id="lDalFYN6IJG57NMuMiJ6-19" value="" style="ellipse;whiteSpace=wrap;html=1;aspect=fixed;fillColor=#00FF00;" vertex="1" parent="1">
          <mxGeometry x="1420" y="-20" width="20" height="20" as="geometry" />
        </mxCell>
        <mxCell id="lDalFYN6IJG57NMuMiJ6-20" value="&lt;span style=&quot;font-size: 14px;&quot;&gt;connectivity&lt;/span&gt;" style="sketch=0;aspect=fixed;html=1;points=[];align=center;image;fontSize=12;image=img/lib/mscae/Key.svg;fillColor=none;" vertex="1" parent="1">
          <mxGeometry x="1002.94" y="300" width="17.06" height="27.52" as="geometry" />
        </mxCell>
        <mxCell id="lDalFYN6IJG57NMuMiJ6-21" value="&lt;font style=&quot;font-size: 14px;&quot;&gt;brewzone 2&lt;/font&gt;" style="sketch=0;outlineConnect=0;fontColor=#232F3E;gradientColor=none;fillColor=#B0084D;strokeColor=none;dashed=0;verticalLabelPosition=bottom;verticalAlign=top;align=center;html=1;fontSize=12;fontStyle=0;aspect=fixed;pointerEvents=1;shape=mxgraph.aws4.organizations_account;labelBackgroundColor=#FFFFFF;" vertex="1" parent="1">
          <mxGeometry x="1553" y="-103.97" width="36" height="37.95" as="geometry" />
        </mxCell>
      </root>
    </mxGraphModel>
  </diagram>
</mxfile>
